<svg width="100%" height="100%" viewBox="0 0 97 34" fill="none" xmlns="http://www.w3.org/2000/svg">
<g clip-path="url(#clip0_2232_43479)">
<path d="M26.691 0.333984L24.0586 2.97249H31.0562L33.6886 0.333984" fill="#C7D6EE"/>
<path d="M31.0556 2.9725V3.30648H24.058C24.058 3.30648 23.7914 3.23969 23.7581 3.10609C23.6914 2.9725 23.7581 2.8389 23.8247 2.7387L26.4571 0.100196L26.6904 0H33.688C33.688 0 33.9546 0.0667976 33.9879 0.200393C34.0545 0.333988 33.9879 0.467584 33.9212 0.56778L31.3221 3.20629L31.0889 3.30648V2.9725L30.8556 2.7387L32.9216 0.667976H26.857L24.891 2.63851H31.0889V2.9725" fill="#0072BC"/>
<path d="M33.6891 0.333984L31.0566 2.97249H38.0542L40.6867 0.333984" fill="#C7D6EE"/>
<path d="M38.0536 2.9725V3.30648H31.056C31.056 3.30648 30.7894 3.23969 30.7561 3.10609C30.6895 2.9725 30.7561 2.8389 30.8228 2.7387L33.4552 0.100196L33.6884 0H40.686C40.686 0 40.9526 0.0667976 40.9859 0.200393C41.0526 0.333988 40.9859 0.467584 40.9193 0.56778L38.3202 3.20629L38.0869 3.30648V2.9725L37.8537 2.7387L39.8863 0.667976H33.8217L31.8557 2.63851H38.0536V2.9725Z" fill="#0072BC"/>
<path d="M40.6852 0.333984L38.0527 2.97249H45.0503L47.6828 0.333984" fill="#C7D6EE"/>
<path d="M45.0517 2.9725V3.30648H38.0541C38.0541 3.30648 37.7875 3.23969 37.7542 3.10609C37.6875 2.9725 37.7542 2.8389 37.8208 2.7387L40.4532 0.100196L40.6865 0H47.6841C47.6841 0 47.9507 0.0667976 47.984 0.200393C48.0506 0.333988 47.984 0.467584 47.9173 0.56778L45.3182 3.20629L45.085 3.30648V2.9725L44.8517 2.7387L46.8844 0.667976H40.8198L38.8538 2.63851H45.0517V2.9725Z" fill="#0072BC"/>
<path d="M47.6832 0.333984L45.0508 2.97249H52.0484L54.6808 0.333984" fill="#C7D6EE"/>
<path d="M52.0497 2.9725V3.30648H45.0521C45.0521 3.30648 44.7855 3.23969 44.7522 3.10609C44.6856 2.9725 44.7522 2.8389 44.8189 2.7387L47.4513 0.100196L47.6845 0H54.6821C54.6821 0 54.9487 0.0667976 54.982 0.200393C55.0487 0.333988 54.982 0.467584 54.9154 0.56778L52.3163 3.20629L52.083 3.30648V2.9725L51.8498 2.7387L53.9157 0.667976H47.8511L45.8852 2.63851H52.083V2.9725" fill="#0072BC"/>
<path d="M54.6813 0.333984L52.0488 2.97249H59.0464L61.6789 0.333984" fill="#C7D6EE"/>
<path d="M59.0458 2.9725V3.30648H52.0482C52.0482 3.30648 51.7816 3.23969 51.7483 3.10609C51.6817 2.9725 51.7483 2.8389 51.815 2.7387L54.4474 0.100196L54.6806 0H61.6782C61.6782 0 61.9448 0.0667976 61.9781 0.200393C62.0448 0.333988 61.9781 0.467584 61.9115 0.56778L59.3124 3.20629L59.0791 3.30648V2.9725L58.8459 2.7387L60.8785 0.667976H54.8139L52.8479 2.63851H59.0458V2.9725Z" fill="#0072BC"/>
<path d="M61.6793 0.333984L59.0469 2.97249H66.0445L68.6769 0.333984" fill="#C7D6EE"/>
<path d="M66.0438 2.9725V3.30648H59.0463C59.0463 3.30648 58.7797 3.23969 58.7464 3.10609C58.6797 2.9725 58.7464 2.8389 58.813 2.7387L61.4454 0.100196L61.6787 0H68.6763C68.6763 0 68.9429 0.0667976 68.9762 0.200393C69.0428 0.333988 68.9762 0.467584 68.9095 0.56778L66.3104 3.20629L66.0772 3.30648V2.9725L65.8439 2.7387L67.9099 0.667976H61.8453L59.8793 2.63851H66.0772V2.9725" fill="#0072BC"/>
<path d="M68.6774 0.333984L66.0449 2.97249H73.0425L75.6749 0.333984" fill="#C7D6EE"/>
<path d="M73.0419 2.9725V3.30648H66.0443C66.0443 3.30648 65.7777 3.23969 65.7444 3.10609C65.6778 2.9725 65.7444 2.8389 65.811 2.7387L68.4435 0.100196L68.6767 0H75.6743C75.6743 0 75.9409 0.0667976 75.9742 0.200393C76.0409 0.333988 75.9742 0.467584 75.9076 0.56778L73.3085 3.20629L73.0752 3.30648V2.9725L72.842 2.7387L74.8746 0.667976H68.81L66.844 2.63851H73.0419V2.9725Z" fill="#0072BC"/>
<path d="M75.6734 0.333984L73.041 2.97249H80.0386L82.671 0.333984" fill="#C7D6EE"/>
<path d="M80.0399 2.9725V3.30648H73.0423C73.0423 3.30648 72.7758 3.23969 72.7424 3.10609C72.6758 2.9725 72.7424 2.8389 72.8091 2.7387L75.4415 0.100196L75.6748 0H82.6724C82.6724 0 82.9389 0.0667976 82.9723 0.200393C83.0389 0.333988 82.9723 0.467584 82.9056 0.56778L80.3065 3.20629L80.0733 3.30648V2.9725L79.84 2.7387L81.8726 0.667976H75.8081L73.8421 2.63851H80.0399V2.9725Z" fill="#0072BC"/>
<path d="M82.6715 0.333984L80.0391 2.97249H87.0367L89.6691 0.333984" fill="#C7D6EE"/>
<path d="M87.036 2.9725V3.30648H80.0384C80.0384 3.30648 79.7719 3.23969 79.7385 3.10609C79.6719 2.9725 79.7385 2.8389 79.8052 2.7387L82.4376 0.100196L82.6709 0H89.6685C89.6685 0 89.935 0.0667976 89.9684 0.200393C90.035 0.333988 89.9684 0.467584 89.9017 0.56778L87.3026 3.20629L87.0694 3.30648V2.9725L86.8361 2.7387L88.8687 0.667976H82.8042L80.8382 2.63851H87.036V2.9725Z" fill="#0072BC"/>
<path d="M89.6695 0.333984L87.0371 2.97249H94.068L96.6671 0.333984" fill="#C7D6EE"/>
<path d="M94.0673 2.9725V3.30648H87.0697C87.0697 3.30648 86.8031 3.23969 86.7698 3.10609C86.7031 2.9725 86.7698 2.8389 86.8364 2.7387L89.4689 0.100196L89.7021 0H96.6997C96.6997 0 96.9663 0.0667976 96.9996 0.200393C97.0663 0.333988 96.9996 0.467584 96.933 0.56778L94.3339 3.20629L94.1006 3.30648V2.9725L93.8674 2.7387L95.9 0.667976H89.8354L87.8694 2.63851H94.0673V2.9725Z" fill="#0072BC"/>
<path d="M94.0352 2.97249V9.98624L96.6676 7.34774V0.333984" fill="#2484C6"/>
<path d="M96.6668 7.34867L96.9001 7.58246L94.2676 10.221C94.2676 10.221 94.0344 10.3546 93.9011 10.2878C93.7678 10.2544 93.7012 10.1208 93.7012 9.98718V2.97342L93.8011 2.73963L96.4336 0.101126C96.4336 0.101126 96.6668 -0.0324693 96.8001 0.0343283C96.9334 0.0677272 97 0.201322 97 0.334918V7.34867L96.9001 7.58246L96.6668 7.34867H96.3336V1.13649L94.3676 3.10702V9.18561L96.4336 7.11488L96.6668 7.34867Z" fill="#0072BC"/>
<path d="M24.0582 2.97266L21.4258 5.61116H28.4234L31.0558 2.97266" fill="#C7D6EE"/>
<path d="M28.4228 5.61117V5.94515H21.4252C21.4252 5.94515 21.1586 5.87836 21.1253 5.74476C21.0586 5.61117 21.1253 5.47757 21.1919 5.37738L23.8243 2.73887L24.0576 2.63867H31.0552C31.0552 2.63867 31.3218 2.70547 31.3551 2.83906C31.4217 2.97266 31.3551 3.10626 31.2884 3.20645L28.6893 5.84496L28.4561 5.94515V5.61117L28.2228 5.37738L30.2888 3.30665H24.2242L22.2582 5.27718H28.4561V5.61117" fill="#0072BC"/>
<path d="M31.0563 2.97266L28.4238 5.61116H35.4214L38.0205 2.97266" fill="#C7D6EE"/>
<path d="M35.4208 5.61117V5.94515H28.4232C28.4232 5.94515 28.1566 5.87836 28.1233 5.74476C28.0567 5.61117 28.1233 5.47757 28.19 5.37738L30.8224 2.73887L31.0556 2.63867H38.0532C38.0532 2.63867 38.3198 2.70547 38.3531 2.83906C38.4198 2.97266 38.3531 3.10626 38.2865 3.20645L35.6874 5.84496L35.4541 5.94515V5.61117L35.2209 5.37738L37.2868 3.30665H31.2222L29.2563 5.27718H35.4541V5.61117" fill="#0072BC"/>
<path d="M38.0543 2.97266L35.4219 5.61116H42.4195L45.0186 2.97266" fill="#C7D6EE"/>
<path d="M42.4188 5.61117V5.94515H35.4213C35.4213 5.94515 35.1547 5.87836 35.1214 5.74476C35.0547 5.61117 35.1214 5.47757 35.188 5.37738L37.8204 2.73887L38.0537 2.63867H45.0513C45.0513 2.63867 45.3178 2.70547 45.3512 2.83906C45.4178 2.97266 45.3512 3.10626 45.2845 3.20645L42.6854 5.84496L42.4522 5.94515V5.61117L42.2189 5.37738L44.2849 3.30665H38.2203L36.2543 5.27718H42.4522V5.61117" fill="#0072BC"/>
<path d="M45.0504 2.97266L42.418 5.61116H49.4156L52.048 2.97266" fill="#C7D6EE"/>
<path d="M49.4169 5.61117V5.94515H42.4193C42.4193 5.94515 42.1527 5.87836 42.1194 5.74476C42.0528 5.61117 42.1194 5.47757 42.186 5.37738L44.8185 2.73887L45.0517 2.63867H52.0493C52.0493 2.63867 52.3159 2.70547 52.3492 2.83906C52.4159 2.97266 52.3492 3.10626 52.2826 3.20645L49.6835 5.84496L49.4502 5.94515V5.61117L49.217 5.37738L51.2829 3.30665H45.2183L43.2523 5.27718H49.4502V5.61117" fill="#0072BC"/>
<path d="M52.0484 2.97266L49.416 5.61116H56.4136L59.046 2.97266" fill="#C7D6EE"/>
<path d="M56.413 5.61117V5.94515H49.4154C49.4154 5.94515 49.1488 5.87836 49.1155 5.74476C49.0489 5.61117 49.1155 5.47757 49.1821 5.37738L51.8146 2.73887L52.0478 2.63867H59.0454C59.0454 2.63867 59.312 2.70547 59.3453 2.83906C59.412 2.97266 59.3453 3.10626 59.2787 3.20645L56.6796 5.84496L56.4463 5.94515V5.61117L56.2131 5.37738L58.2457 3.30665H52.1811L50.2151 5.27718H56.413V5.61117Z" fill="#0072BC"/>
<path d="M59.0465 2.97266L56.4141 5.61116H63.4117L66.0441 2.97266" fill="#C7D6EE"/>
<path d="M63.411 5.61117V5.94515H56.4134C56.4134 5.94515 56.1469 5.87836 56.1135 5.74476C56.0469 5.61117 56.1135 5.47757 56.1802 5.37738L58.8126 2.73887L59.0459 2.63867H66.0435C66.0435 2.63867 66.31 2.70547 66.3434 2.83906C66.41 2.97266 66.3434 3.10626 66.2767 3.20645L63.6776 5.84496L63.4444 5.94515V5.61117L63.2111 5.37738L65.2771 3.30665H59.2125L57.2465 5.27718H63.4444V5.61117" fill="#0072BC"/>
<path d="M66.0445 2.97266L63.4121 5.61116H70.4097L73.0421 2.97266" fill="#C7D6EE"/>
<path d="M70.4091 5.61117V5.94515H63.4115C63.4115 5.94515 63.1449 5.87836 63.1116 5.74476C63.0449 5.61117 63.1116 5.47757 63.1782 5.37738L65.8107 2.73887L66.0439 2.63867H73.0415C73.0415 2.63867 73.3081 2.70547 73.3414 2.83906C73.4081 2.97266 73.3414 3.10626 73.2748 3.20645L70.6757 5.84496L70.4424 5.94515V5.61117L70.2091 5.37738L72.2751 3.30665H66.2105L64.2445 5.27718H70.4424V5.61117" fill="#0072BC"/>
<path d="M73.0406 2.97266L70.4082 5.61116H77.4058L80.0382 2.97266" fill="#C7D6EE"/>
<path d="M77.4071 5.61117V5.94515H70.4095C70.4095 5.94515 70.143 5.87836 70.1096 5.74476C70.043 5.61117 70.1096 5.47757 70.1763 5.37738L72.8087 2.73887L73.042 2.63867H80.0396C80.0396 2.63867 80.3061 2.70547 80.3395 2.83906C80.4061 2.97266 80.3395 3.10626 80.2728 3.20645L77.6737 5.84496L77.4404 5.94515V5.61117L77.2072 5.37738L79.2732 3.30665H73.2086L71.2426 5.27718H77.4404V5.61117" fill="#0072BC"/>
<path d="M80.0387 2.97266L77.4062 5.61116H84.4038L87.0363 2.97266" fill="#C7D6EE"/>
<path d="M84.4052 5.61117V5.94515H77.4076C77.4076 5.94515 77.141 5.87836 77.1077 5.74476C77.041 5.61117 77.1077 5.47757 77.1743 5.37738L79.8068 2.73887L80.04 2.63867H87.0376C87.0376 2.63867 87.3042 2.70547 87.3375 2.83906C87.4041 2.97266 87.3375 3.10626 87.2709 3.20645L84.6718 5.84496L84.4385 5.94515V5.61117L84.2052 5.37738L86.2712 3.30665H80.2066L78.2406 5.27718H84.4385V5.61117" fill="#0072BC"/>
<path d="M87.0367 2.97266L84.4043 5.61116H91.4019L94.0343 2.97266" fill="#C7D6EE"/>
<path d="M91.4013 5.61117V5.94515H84.4037C84.4037 5.94515 84.1371 5.87836 84.1038 5.74476C84.0371 5.61117 84.1038 5.47757 84.1704 5.37738L86.8028 2.73887L87.0361 2.63867H94.0337C94.0337 2.63867 94.3003 2.70547 94.3336 2.83906C94.4002 2.97266 94.3336 3.10626 94.267 3.20645L91.6678 5.84496L91.4346 5.94515V5.61117L91.2013 5.37738L93.234 3.30665H87.1694L85.2034 5.27718H91.4013V5.61117Z" fill="#0072BC"/>
<path d="M91.4023 5.61116V12.6249L94.0348 9.98641V2.97266" fill="#2484C6"/>
<path d="M94.034 9.98539L94.2673 10.2192L91.6348 12.8577C91.6348 12.8577 91.4016 12.9913 91.2683 12.9245C91.135 12.8911 91.0684 12.7575 91.0684 12.6239V5.61014L91.1683 5.37635L93.8008 2.73784C93.8008 2.73784 94.034 2.60425 94.1673 2.67105C94.3006 2.70445 94.3672 2.83804 94.3672 2.97164V9.98539L94.2673 10.2192L94.034 9.98539H93.7008V3.77321L91.7348 5.74374V11.8223L93.8008 9.7516L94.034 9.98539Z" fill="#0072BC"/>
<path d="M21.4254 5.61133L18.793 8.24984H25.7906L28.3897 5.61133" fill="#C7D6EE"/>
<path d="M25.7919 8.24984V8.58383H18.7943C18.7943 8.58383 18.5277 8.51703 18.4944 8.38343C18.4278 8.24984 18.4944 8.11624 18.561 8.01605L21.1935 5.37754L21.4267 5.27734H28.4243C28.4243 5.27734 28.6909 5.34414 28.7242 5.47774C28.7909 5.61133 28.7242 5.74493 28.6576 5.84512L26.0585 8.48363L25.8252 8.58383V8.24984L25.592 8.01605L27.6579 5.94532H21.5933L19.6273 7.91585H25.8252V8.24984" fill="#0072BC"/>
<path d="M28.4234 5.61133L25.791 8.24984H32.7886L35.3877 5.61133" fill="#C7D6EE"/>
<path d="M32.788 8.24984V8.58383H25.7904C25.7904 8.58383 25.5238 8.51703 25.4905 8.38343C25.4239 8.24984 25.4905 8.11624 25.5571 8.01605L28.1896 5.37754L28.4228 5.27734H35.4204C35.4204 5.27734 35.687 5.34414 35.7203 5.47774C35.787 5.61133 35.7203 5.74493 35.6537 5.84512L33.0546 8.48363L32.8213 8.58383V8.24984L32.5881 8.01605L34.654 5.94532H28.5894L26.6234 7.91585H32.8213V8.24984" fill="#0072BC"/>
<path d="M35.4215 5.61133L32.7891 8.24984H39.7867L42.4191 5.61133" fill="#C7D6EE"/>
<path d="M39.786 8.24984V8.58383H32.7884C32.7884 8.58383 32.5219 8.51703 32.4885 8.38343C32.4219 8.24984 32.4885 8.11624 32.5552 8.01605L35.1876 5.37754L35.4209 5.27734H42.4185C42.4185 5.27734 42.685 5.34414 42.7184 5.47774C42.785 5.61133 42.7184 5.74493 42.6517 5.84512L40.0526 8.48363L39.8194 8.58383V8.24984L39.5861 8.01605L41.6521 5.94532H35.5875L33.6215 7.91585H39.8194V8.24984" fill="#0072BC"/>
<path d="M42.4195 5.61133L39.7871 8.24984H46.7847L49.3838 5.61133" fill="#C7D6EE"/>
<path d="M46.7841 8.24984V8.58383H39.7865C39.7865 8.58383 39.5199 8.51703 39.4866 8.38343C39.4199 8.24984 39.4866 8.11624 39.5532 8.01605L42.1857 5.37754L42.4189 5.27734H49.4165C49.4165 5.27734 49.6831 5.34414 49.7164 5.47774C49.783 5.61133 49.7164 5.74493 49.6498 5.84512L47.0507 8.48363L46.8174 8.58383V8.24984L46.5841 8.01605L48.6501 5.94532H42.5855L40.6195 7.91585H46.8174V8.24984" fill="#0072BC"/>
<path d="M49.4156 5.61133L46.7832 8.24984H53.7808L56.4132 5.61133" fill="#C7D6EE"/>
<path d="M53.7821 8.24984V8.58383H46.7845C46.7845 8.58383 46.518 8.51703 46.4846 8.38343C46.418 8.24984 46.4846 8.11624 46.5513 8.01605L49.1837 5.37754L49.417 5.27734H56.4146C56.4146 5.27734 56.6811 5.34414 56.7145 5.47774C56.7811 5.61133 56.7145 5.74493 56.6478 5.84512L54.0487 8.48363L53.8154 8.58383V8.24984L53.5822 8.01605L55.6482 5.94532H49.5836L47.6176 7.91585H53.8154V8.24984" fill="#0072BC"/>
<path d="M56.4137 5.61133L53.7812 8.24984H60.7788L63.4113 5.61133" fill="#C7D6EE"/>
<path d="M60.7782 8.24984V8.58383H53.7806C53.7806 8.58383 53.5141 8.51703 53.4807 8.38343C53.4141 8.24984 53.4807 8.11624 53.5474 8.01605L56.1798 5.37754L56.4131 5.27734H63.4107C63.4107 5.27734 63.6772 5.34414 63.7106 5.47774C63.7772 5.61133 63.7106 5.74493 63.6439 5.84512L61.0448 8.48363L60.8115 8.58383V8.24984L60.5783 8.01605L62.6442 5.94532H56.5797L54.6137 7.91585H60.8115V8.24984" fill="#0072BC"/>
<path d="M63.4117 5.61133L60.7793 8.24984H67.7769L70.4093 5.61133" fill="#C7D6EE"/>
<path d="M67.7763 8.24984V8.58383H60.7787C60.7787 8.58383 60.5121 8.51703 60.4788 8.38343C60.4121 8.24984 60.4788 8.11624 60.5454 8.01605L63.1778 5.37754L63.4111 5.27734H70.4087C70.4087 5.27734 70.6753 5.34414 70.7086 5.47774C70.7752 5.61133 70.7086 5.74493 70.642 5.84512L68.0428 8.48363L67.8096 8.58383V8.24984L67.5763 8.01605L69.6423 5.94532H63.5777L61.6117 7.91585H67.8096V8.24984" fill="#0072BC"/>
<path d="M70.4098 5.61133L67.7773 8.24984H74.7749L77.4074 5.61133" fill="#C7D6EE"/>
<path d="M74.7743 8.24984V8.58383H67.7767C67.7767 8.58383 67.5101 8.51703 67.4768 8.38343C67.4102 8.24984 67.4768 8.11624 67.5435 8.01605L70.1759 5.37754L70.4091 5.27734H77.4067C77.4067 5.27734 77.6733 5.34414 77.7066 5.47774C77.7733 5.61133 77.7066 5.74493 77.64 5.84512L75.0409 8.48363L74.8076 8.58383V8.24984L74.5744 8.01605L76.6403 5.94532H70.5758L68.6098 7.91585H74.8076V8.24984" fill="#0072BC"/>
<path d="M77.4059 5.61133L74.7734 8.24984H81.771L84.4035 5.61133" fill="#C7D6EE"/>
<path d="M81.7724 8.24984V8.58383H74.7748C74.7748 8.58383 74.5082 8.51703 74.4749 8.38343C74.4082 8.24984 74.4749 8.11624 74.5415 8.01605L77.1739 5.37754L77.4072 5.27734H84.4048C84.4048 5.27734 84.6714 5.34414 84.7047 5.47774C84.7713 5.61133 84.7047 5.74493 84.638 5.84512L82.0389 8.48363L81.8057 8.58383V8.24984L81.5724 8.01605L83.6384 5.94532H77.5738L75.6078 7.91585H81.8057V8.24984" fill="#0072BC"/>
<path d="M84.4039 5.61133L81.7715 8.24984H88.7691L91.4015 5.61133" fill="#C7D6EE"/>
<path d="M88.7704 8.24984V8.58383H81.7728C81.7728 8.58383 81.5062 8.51703 81.4729 8.38343C81.4063 8.24984 81.4729 8.11624 81.5396 8.01605L84.172 5.37754L84.4052 5.27734H91.4028C91.4028 5.27734 91.6694 5.34414 91.7027 5.47774C91.7694 5.61133 91.7027 5.74493 91.6361 5.84512L89.037 8.48363L88.8037 8.58383V8.24984L88.5705 8.01605L90.6031 5.94532H84.5385L82.5725 7.91585H88.7704V8.24984Z" fill="#0072BC"/>
<path d="M88.7695 8.24984V15.2302L91.402 12.6251V5.61133" fill="#2484C6"/>
<path d="M91.4012 12.6241L91.6344 12.8579L89.002 15.4964C89.002 15.4964 88.7688 15.63 88.6355 15.5632C88.5022 15.5298 88.4355 15.3962 88.4355 15.2626V8.24881L88.5355 8.01502L91.1679 5.37652C91.1679 5.37652 91.4012 5.24292 91.5345 5.30972C91.6678 5.34312 91.7344 5.47671 91.7344 5.61031V12.6241L91.6344 12.8579L91.4012 12.6241H91.068V6.41188L89.102 8.38241V14.461L91.1679 12.3903L91.4012 12.6241Z" fill="#0072BC"/>
<path d="M18.7926 8.25L16.1602 10.8551H23.1578L25.7569 8.25" fill="#C7D6EE"/>
<path d="M23.1591 10.8553V11.1893H16.1615C16.1615 11.1893 15.8949 11.1225 15.8616 10.9889C15.7949 10.8553 15.8616 10.7217 15.9282 10.6215L18.5607 7.98301L18.7939 7.88281H25.7915C25.7915 7.88281 26.0581 7.94961 26.0914 8.08321C26.158 8.2168 26.0914 8.3504 26.0248 8.45059L23.4257 11.0891L23.1924 11.1893V10.8553L22.9591 10.6215L25.0251 8.55079H18.9605L16.9945 10.5213H23.1924V10.8553" fill="#0072BC"/>
<path d="M25.7906 8.25L23.1582 10.8551H30.1558L32.7549 8.25" fill="#C7D6EE"/>
<path d="M30.1571 10.8553V11.1893H23.1595C23.1595 11.1893 22.893 11.1225 22.8596 10.9889C22.793 10.8553 22.8596 10.7217 22.9263 10.6215L25.5587 7.98301L25.792 7.88281H32.7896C32.7896 7.88281 33.0561 7.94961 33.0895 8.08321C33.1561 8.2168 33.0895 8.3504 33.0228 8.45059L30.4237 11.0891L30.1905 11.1893V10.8553L29.9572 10.6215L31.9898 8.55079H25.9252L23.9593 10.5213H30.1571V10.8553Z" fill="#0072BC"/>
<path d="M32.7887 8.25L30.1562 10.8551H37.1538L39.753 8.25" fill="#C7D6EE"/>
<path d="M37.1532 10.8553V11.1893H30.1556C30.1556 11.1893 29.8891 11.1225 29.8557 10.9889C29.7891 10.8553 29.8557 10.7217 29.9224 10.6215L32.5548 7.98301L32.7881 7.88281H39.7856C39.7856 7.88281 40.0522 7.94961 40.0855 8.08321C40.1522 8.2168 40.0855 8.3504 40.0189 8.45059L37.4198 11.0891L37.1865 11.1893V10.8553L36.9533 10.6215L39.0192 8.55079H32.9547L30.9887 10.5213H37.1865V10.8553" fill="#0072BC"/>
<path d="M39.7867 8.25L37.1543 10.8551H44.1519L46.751 8.25" fill="#C7D6EE"/>
<path d="M44.1513 10.8553V11.1893H37.1537C37.1537 11.1893 36.8871 11.1225 36.8538 10.9889C36.7871 10.8553 36.8538 10.7217 36.9204 10.6215L39.5528 7.98301L39.7861 7.88281H46.7837C46.7837 7.88281 47.0503 7.94961 47.0836 8.08321C47.1502 8.2168 47.0836 8.3504 47.0169 8.45059L44.4178 11.0891L44.1846 11.1893V10.8553L43.9513 10.6215L45.984 8.55079H39.9194L37.9534 10.5213H44.1513V10.8553Z" fill="#0072BC"/>
<path d="M46.7848 8.25L44.1523 10.8551H51.1499L53.749 8.25" fill="#C7D6EE"/>
<path d="M51.1493 10.8553V11.1893H44.1517C44.1517 11.1893 43.8851 11.1225 43.8518 10.9889C43.7852 10.8553 43.8518 10.7217 43.9185 10.6215L46.5509 7.98301L46.7841 7.88281H53.7817C53.7817 7.88281 54.0483 7.94961 54.0816 8.08321C54.1483 8.2168 54.0816 8.3504 54.015 8.45059L51.4159 11.0891L51.1826 11.1893V10.8553L50.9494 10.6215L52.982 8.55079H46.9508L44.9848 10.5213H51.1826V10.8553" fill="#0072BC"/>
<path d="M53.7809 8.25L51.1484 10.8551H58.146L60.7785 8.25" fill="#C7D6EE"/>
<path d="M58.1474 10.8553V11.1893H51.1498C51.1498 11.1893 50.8832 11.1225 50.8499 10.9889C50.7832 10.8553 50.8499 10.7217 50.9165 10.6215L53.5489 7.98301L53.7822 7.88281H60.7798C60.7798 7.88281 61.0464 7.94961 61.0797 8.08321C61.1463 8.2168 61.0797 8.3504 61.013 8.45059L58.4139 11.0891L58.1807 11.1893V10.8553L57.9474 10.6215L60.0134 8.55079H53.9488L51.9828 10.5213H58.1807V10.8553" fill="#0072BC"/>
<path d="M60.7789 8.25L58.1465 10.8551H65.1441L67.7765 8.25" fill="#C7D6EE"/>
<path d="M65.1435 10.8553V11.1893H58.1459C58.1459 11.1893 57.8793 11.1225 57.846 10.9889C57.7793 10.8553 57.846 10.7217 57.9126 10.6215L60.545 7.98301L60.7783 7.88281H67.7759C67.7759 7.88281 68.0425 7.94961 68.0758 8.08321C68.1424 8.2168 68.0758 8.3504 68.0091 8.45059L65.41 11.0891L65.1768 11.1893V10.8553L64.9435 10.6215L66.9762 8.55079H60.9116L58.9456 10.5213H65.1435V10.8553Z" fill="#0072BC"/>
<path d="M67.777 8.25L65.1445 10.8551H72.1421L74.7412 8.25" fill="#C7D6EE"/>
<path d="M72.1415 10.8553V11.1893H65.1439C65.1439 11.1893 64.8773 11.1225 64.844 10.9889C64.7774 10.8553 64.844 10.7217 64.9107 10.6215L67.5431 7.98301L67.7763 7.88281H74.7739C74.7739 7.88281 75.0405 7.94961 75.0738 8.08321C75.1405 8.2168 75.0738 8.3504 75.0072 8.45059L72.4081 11.0891L72.1748 11.1893V10.8553L71.9416 10.6215L73.9742 8.55079H67.9096L65.9436 10.5213H72.1415V10.8553Z" fill="#0072BC"/>
<path d="M74.775 8.25L72.1426 10.8551H79.1402L81.7726 8.25" fill="#C7D6EE"/>
<path d="M79.1396 10.8553V11.1893H72.142C72.142 11.1893 71.8754 11.1225 71.8421 10.9889C71.7754 10.8553 71.8421 10.7217 71.9087 10.6215L74.5411 7.98301L74.7744 7.88281H81.772C81.772 7.88281 82.0386 7.94961 82.0719 8.08321C82.1385 8.2168 82.0719 8.3504 82.0052 8.45059L79.4061 11.0891L79.1729 11.1893V10.8553L78.9396 10.6215L81.0056 8.55079H74.941L72.975 10.5213H79.1729V10.8553" fill="#0072BC"/>
<path d="M81.7711 8.25L79.1387 10.8551H86.1363L88.7687 8.25" fill="#C7D6EE"/>
<path d="M86.1376 10.8553V11.1893H79.14C79.14 11.1893 78.8734 11.1225 78.8401 10.9889C78.7735 10.8553 78.8401 10.7217 78.9067 10.6215L81.5392 7.98301L81.7724 7.88281H88.77C88.77 7.88281 89.0366 7.94961 89.0699 8.08321C89.1366 8.2168 89.0699 8.3504 89.0033 8.45059L86.4042 11.0891L86.1709 11.1893V10.8553L85.9377 10.6215L87.9703 8.55079H81.939L79.973 10.5213H86.1709V10.8553" fill="#0072BC"/>
<path d="M86.1367 10.8553V17.8691L88.7691 15.2305V8.2168" fill="#2484C6"/>
<path d="M88.7703 15.2295L89.0036 15.4633L86.3712 18.1018C86.3712 18.1018 86.1379 18.2354 86.0046 18.1686C85.8713 18.1352 85.8047 18.0016 85.8047 17.868V10.8543L85.9047 10.6205L88.5371 7.98199C88.5371 7.98199 88.7703 7.84839 88.9036 7.91519C89.0369 7.94859 89.1036 8.08218 89.1036 8.21578V15.2295L89.0036 15.4633L88.7703 15.2295H88.4371V9.01735L86.4711 10.9879V17.0665L88.5371 14.9957L88.7703 15.2295Z" fill="#0072BC"/>
<path d="M16.1617 10.8555L13.5293 13.494H20.5269L23.126 10.8555" fill="#C7D6EE"/>
<path d="M20.5263 13.494V13.828H13.5287C13.5287 13.828 13.2621 13.7612 13.2288 13.6276C13.1621 13.494 13.2288 13.3604 13.2954 13.2602L15.9278 10.6217L16.1611 10.5215H23.1587C23.1587 10.5215 23.4253 10.5883 23.4586 10.7219C23.5252 10.8555 23.4586 10.9891 23.392 11.0893L20.7928 13.7278L20.5596 13.828V13.494L20.3263 13.2602L22.3923 11.1895H16.3277L14.3617 13.16H20.5596V13.494" fill="#0072BC"/>
<path d="M23.1578 10.8555L20.5254 13.494H27.523L30.1221 10.8555" fill="#C7D6EE"/>
<path d="M27.5243 13.494V13.828H20.5267C20.5267 13.828 20.2601 13.7612 20.2268 13.6276C20.1602 13.494 20.2268 13.3604 20.2935 13.2602L22.9259 10.6217L23.1591 10.5215H30.1567C30.1567 10.5215 30.4233 10.5883 30.4566 10.7219C30.5233 10.8555 30.4566 10.9891 30.39 11.0893L27.7909 13.7278L27.5576 13.828V13.494L27.3244 13.2602L29.357 11.1895H23.2924L21.3264 13.16H27.5243V13.494Z" fill="#0072BC"/>
<path d="M30.1559 10.8555L27.5234 13.494H34.521L37.1201 10.8555" fill="#C7D6EE"/>
<path d="M34.5224 13.494V13.828H27.5248C27.5248 13.828 27.2582 13.7612 27.2249 13.6276C27.1582 13.494 27.2249 13.3604 27.2915 13.2602L29.9239 10.6217L30.1572 10.5215H37.1548C37.1548 10.5215 37.4214 10.5883 37.4547 10.7219C37.5213 10.8555 37.4547 10.9891 37.388 11.0893L34.7889 13.7278L34.5557 13.828V13.494L34.3224 13.2602L36.3551 11.1895H30.2905L28.3245 13.16H34.5224V13.494Z" fill="#0072BC"/>
<path d="M37.1539 10.8555L34.5215 13.494H41.5191L44.1182 10.8555" fill="#C7D6EE"/>
<path d="M41.5185 13.494V13.828H34.5209C34.5209 13.828 34.2543 13.7612 34.221 13.6276C34.1543 13.494 34.221 13.3604 34.2876 13.2602L36.92 10.6217L37.1533 10.5215H44.1509C44.1509 10.5215 44.4175 10.5883 44.4508 10.7219C44.5174 10.8555 44.4508 10.9891 44.3841 11.0893L41.785 13.7278L41.5518 13.828V13.494L41.3185 13.2602L43.3512 11.1895H37.2866L35.3206 13.16H41.5185V13.494Z" fill="#0072BC"/>
<path d="M44.152 10.8555L41.5195 13.494H48.5171L51.1162 10.8555" fill="#C7D6EE"/>
<path d="M48.5165 13.494V13.828H41.5189C41.5189 13.828 41.2523 13.7612 41.219 13.6276C41.1524 13.494 41.219 13.3604 41.2857 13.2602L43.9181 10.6217L44.1513 10.5215H51.1489C51.1489 10.5215 51.4155 10.5883 51.4488 10.7219C51.5155 10.8555 51.4488 10.9891 51.3822 11.0893L48.7831 13.7278L48.5498 13.828V13.494L48.3166 13.2602L50.3492 11.1895H44.2846L42.3186 13.16H48.5165V13.494Z" fill="#0072BC"/>
<path d="M51.15 10.8555L48.5176 13.494H55.5152L58.1143 10.8555" fill="#C7D6EE"/>
<path d="M55.5145 13.494V13.828H48.517C48.517 13.828 48.2504 13.7612 48.2171 13.6276C48.1504 13.494 48.2171 13.3604 48.2837 13.2602L50.9161 10.6217L51.1494 10.5215H58.147C58.147 10.5215 58.4136 10.5883 58.4469 10.7219C58.5135 10.8555 58.4469 10.9891 58.3802 11.0893L55.7811 13.7278L55.5479 13.828V13.494L55.3146 13.2602L57.3806 11.1895H51.316L49.35 13.16H55.5479V13.494" fill="#0072BC"/>
<path d="M58.1461 10.8555L55.5137 13.494H62.5113L65.1104 10.8555" fill="#C7D6EE"/>
<path d="M62.5126 13.494V13.828H55.515C55.515 13.828 55.2484 13.7612 55.2151 13.6276C55.1485 13.494 55.2151 13.3604 55.2817 13.2602L57.9142 10.6217L58.1474 10.5215H65.145C65.145 10.5215 65.4116 10.5883 65.4449 10.7219C65.5116 10.8555 65.4449 10.9891 65.3783 11.0893L62.7792 13.7278L62.5459 13.828V13.494L62.3127 13.2602L64.3453 11.1895H58.2807L56.3147 13.16H62.5126V13.494Z" fill="#0072BC"/>
<path d="M65.1441 10.8555L62.5117 13.494H69.5093L72.1084 10.8555" fill="#C7D6EE"/>
<path d="M69.5087 13.494V13.828H62.5111C62.5111 13.828 62.2445 13.7612 62.2112 13.6276C62.1446 13.494 62.2112 13.3604 62.2778 13.2602L64.9103 10.6217L65.1435 10.5215H72.1411C72.1411 10.5215 72.4077 10.5883 72.441 10.7219C72.5077 10.8555 72.441 10.9891 72.3744 11.0893L69.7753 13.7278L69.542 13.828V13.494L69.3088 13.2602L71.3414 11.1895H65.2768L63.3108 13.16H69.5087V13.494Z" fill="#0072BC"/>
<path d="M72.1422 10.8555L69.5098 13.494H76.5074L79.1065 10.8555" fill="#C7D6EE"/>
<path d="M76.5067 13.494V13.828H69.5091C69.5091 13.828 69.2426 13.7612 69.2092 13.6276C69.1426 13.494 69.2092 13.3604 69.2759 13.2602L71.9083 10.6217L72.1416 10.5215H79.1392C79.1392 10.5215 79.4057 10.5883 79.4391 10.7219C79.5057 10.8555 79.4391 10.9891 79.3724 11.0893L76.7733 13.7278L76.5401 13.828V13.494L76.3068 13.2602L78.3728 11.1895H72.3082L70.3422 13.16H76.5401V13.494" fill="#0072BC"/>
<path d="M79.1402 10.8555L76.5078 13.494H83.5054L86.1045 10.8555" fill="#C7D6EE"/>
<path d="M83.5048 13.494V13.828H76.5072C76.5072 13.828 76.2406 13.7612 76.2073 13.6276C76.1406 13.494 76.2073 13.3604 76.2739 13.2602L78.9064 10.6217L79.1396 10.5215H86.1372C86.1372 10.5215 86.4038 10.5883 86.4371 10.7219C86.5038 10.8555 86.4371 10.9891 86.3705 11.0893L83.7714 13.7278L83.5381 13.828V13.494L83.3049 13.2602L85.3375 11.1895H79.3062L77.3402 13.16H83.5381V13.494" fill="#0072BC"/>
<path d="M83.5039 13.494V20.5077L86.1363 17.8692V10.8555" fill="#2484C6"/>
<path d="M86.1375 17.8682L86.3708 18.102L83.7383 20.7405C83.7383 20.7405 83.5051 20.8741 83.3718 20.8073C83.2385 20.7739 83.1719 20.6403 83.1719 20.5067V13.493L83.2718 13.2592L85.9043 10.6207C85.9043 10.6207 86.1375 10.4871 86.2708 10.5539C86.4041 10.5873 86.4707 10.7209 86.4707 10.8544V17.8682L86.3708 18.102L86.1375 17.8682H85.8043V11.656L83.8383 13.6266V19.7051L85.9043 17.6344L86.1375 17.8682Z" fill="#0072BC"/>
<path d="M13.4957 13.4922L10.8633 16.1307H17.8942L20.4933 13.4922" fill="#C7D6EE"/>
<path d="M17.8935 16.1307V16.4647H10.8959C10.8959 16.4647 10.6293 16.3979 10.596 16.2643C10.5293 16.1307 10.596 15.9971 10.6626 15.8969L13.295 13.2584L13.5283 13.1582H20.5259C20.5259 13.1582 20.7925 13.225 20.8258 13.3586C20.8924 13.4922 20.8258 13.6258 20.7591 13.726L18.16 16.3645L17.9268 16.4647V16.1307L17.6935 15.8969L19.7595 13.8262H13.6949L11.7289 15.7967H17.9268V16.1307" fill="#0072BC"/>
<path d="M20.4938 13.4922L17.8613 16.1307H24.8922L27.4914 13.4922" fill="#C7D6EE"/>
<path d="M24.8915 16.1307V16.4647H17.8939C17.8939 16.4647 17.6273 16.3979 17.594 16.2643C17.5274 16.1307 17.594 15.9971 17.6607 15.8969L20.2931 13.2584L20.5263 13.1582H27.5239C27.5239 13.1582 27.7905 13.225 27.8238 13.3586C27.8905 13.4922 27.8238 13.6258 27.7572 13.726L25.1581 16.3645L24.9248 16.4647V16.1307L24.6916 15.8969L26.7242 13.8262H20.6596L18.6936 15.7967H24.8915V16.1307Z" fill="#0072BC"/>
<path d="M27.4897 13.4922L24.8906 16.1307H31.8882L34.4873 13.4922" fill="#C7D6EE"/>
<path d="M31.8895 16.1307V16.4647H24.892C24.892 16.4647 24.6254 16.3979 24.5921 16.2643C24.5254 16.1307 24.5921 15.9971 24.6587 15.8969L27.2911 13.2584L27.5244 13.1582H34.522C34.522 13.1582 34.7886 13.225 34.8219 13.3586C34.8885 13.4922 34.8219 13.6258 34.7552 13.726L32.1561 16.3645L31.9229 16.4647V16.1307L31.6896 15.8969L33.7556 13.8262H27.691L25.725 15.7967H31.9229V16.1307" fill="#0072BC"/>
<path d="M34.4878 13.4922L31.8887 16.1307H38.8863L41.4854 13.4922" fill="#C7D6EE"/>
<path d="M38.8876 16.1307V16.4647H31.89C31.89 16.4647 31.6234 16.3979 31.5901 16.2643C31.5235 16.1307 31.5901 15.9971 31.6567 15.8969L34.2892 13.2584L34.5224 13.1582H41.52C41.52 13.1582 41.7866 13.225 41.8199 13.3586C41.8866 13.4922 41.8199 13.6258 41.7533 13.726L39.1542 16.3645L38.9209 16.4647V16.1307L38.6877 15.8969L40.7536 13.8262H34.689L32.723 15.7967H38.9209V16.1307" fill="#0072BC"/>
<path d="M41.4858 13.4922L38.8867 16.1307H45.8843L48.4834 13.4922" fill="#C7D6EE"/>
<path d="M45.8837 16.1307V16.4647H38.8861C38.8861 16.4647 38.6195 16.3979 38.5862 16.2643C38.5196 16.1307 38.5862 15.9971 38.6528 15.8969L41.2853 13.2584L41.5185 13.1582H48.5161C48.5161 13.1582 48.7827 13.225 48.816 13.3586C48.8827 13.4922 48.816 13.6258 48.7494 13.726L46.1503 16.3645L45.917 16.4647V16.1307L45.6838 15.8969L47.7164 13.8262H41.6518L39.6858 15.7967H45.8837V16.1307Z" fill="#0072BC"/>
<path d="M48.5172 13.4922L45.8848 16.1307H52.8824L55.4815 13.4922" fill="#C7D6EE"/>
<path d="M52.8817 16.1307V16.4647H45.8841C45.8841 16.4647 45.6176 16.3979 45.5842 16.2643C45.5176 16.1307 45.5842 15.9971 45.6509 15.8969L48.2833 13.2584L48.5166 13.1582H55.5142C55.5142 13.1582 55.7807 13.225 55.8141 13.3586C55.8807 13.4922 55.8141 13.6258 55.7474 13.726L53.1483 16.3645L52.9151 16.4647V16.1307L52.6818 15.8969L54.7478 13.8262H48.6832L46.7172 15.7967H52.9151V16.1307" fill="#0072BC"/>
<path d="M55.5133 13.4922L52.8809 16.1307H59.8785L62.4776 13.4922" fill="#C7D6EE"/>
<path d="M59.8798 16.1307V16.4647H52.8822C52.8822 16.4647 52.6156 16.3979 52.5823 16.2643C52.5156 16.1307 52.5823 15.9971 52.6489 15.8969L55.2814 13.2584L55.5146 13.1582H62.5122C62.5122 13.1582 62.7788 13.225 62.8121 13.3586C62.8788 13.4922 62.8121 13.6258 62.7455 13.726L60.1464 16.3645L59.9131 16.4647V16.1307L59.6799 15.8969L61.7458 13.8262H55.6812L53.7152 15.7967H59.9131V16.1307" fill="#0072BC"/>
<path d="M62.5113 13.4922L59.8789 16.1307H66.8765L69.4756 13.4922" fill="#C7D6EE"/>
<path d="M66.8778 16.1307V16.4647H59.8802C59.8802 16.4647 59.6137 16.3979 59.5803 16.2643C59.5137 16.1307 59.5803 15.9971 59.647 15.8969L62.2794 13.2584L62.5127 13.1582H69.5103C69.5103 13.1582 69.7768 13.225 69.8102 13.3586C69.8768 13.4922 69.8102 13.6258 69.7435 13.726L67.1444 16.3645L66.9112 16.4647V16.1307L66.6779 15.8969L68.7439 13.8262H62.6793L60.7133 15.7967H66.9112V16.1307" fill="#0072BC"/>
<path d="M69.5094 13.4922L66.877 16.1307H73.8745L76.4737 13.4922" fill="#C7D6EE"/>
<path d="M73.8739 16.1307V16.4647H66.8763C66.8763 16.4647 66.6098 16.3979 66.5764 16.2643C66.5098 16.1307 66.5764 15.9971 66.6431 15.8969L69.2755 13.2584L69.5088 13.1582H76.5064C76.5064 13.1582 76.7729 13.225 76.8062 13.3586C76.8729 13.4922 76.8063 13.6258 76.7396 13.726L74.1405 16.3645L73.9072 16.4647V16.1307L73.674 15.8969L75.7399 13.8262H69.6754L67.7094 15.7967H73.9072V16.1307" fill="#0072BC"/>
<path d="M76.5074 13.4922L73.875 16.1307H80.8726L83.4717 13.4922" fill="#C7D6EE"/>
<path d="M80.872 16.1307V16.4647H73.8744C73.8744 16.4647 73.6078 16.3979 73.5745 16.2643C73.5078 16.1307 73.5745 15.9971 73.6411 15.8969L76.2736 13.2584L76.5068 13.1582H83.5044C83.5044 13.1582 83.771 13.225 83.8043 13.3586C83.8709 13.4922 83.8043 13.6258 83.7377 13.726L81.1385 16.3645L80.9053 16.4647V16.1307L80.672 15.8969L82.738 13.8262H76.6734L74.7074 15.7967H80.9053V16.1307" fill="#0072BC"/>
<path d="M80.873 16.1307V23.1444L83.5055 20.5059V13.4922" fill="#2484C6"/>
<path d="M83.5047 20.5069L83.738 20.7407L81.1055 23.3792C81.1055 23.3792 80.8723 23.5128 80.739 23.446C80.6057 23.4126 80.5391 23.279 80.5391 23.1454V16.1316L80.639 15.8978L83.2715 13.2593C83.2715 13.2593 83.5047 13.1257 83.638 13.1925C83.7713 13.2259 83.8379 13.3595 83.8379 13.4931V20.5069L83.738 20.7407L83.5047 20.5069H83.1715V14.2947L81.2055 16.2652V22.3438L83.2715 20.2731L83.5047 20.5069Z" fill="#0072BC"/>
<path d="M10.8629 16.1309L8.23047 18.7694H15.2281L17.8605 16.1309" fill="#C7D6EE"/>
<path d="M15.2606 18.7694V19.1034H8.26305C8.26305 19.1034 7.99647 19.0366 7.96315 18.903C7.89651 18.7694 7.96315 18.6358 8.0298 18.5356L10.6622 15.8971L10.8955 15.7969H17.8931C17.8931 15.7969 18.1596 15.8637 18.193 15.9973C18.2596 16.1309 18.193 16.2645 18.1263 16.3647L15.5272 19.0032L15.294 19.1034V18.7694L15.0607 18.5356L17.1267 16.4649H11.0621L9.0961 18.4354H15.294V18.7694" fill="#0072BC"/>
<path d="M17.8609 16.1309L15.2285 18.7694H22.2594L24.8585 16.1309" fill="#C7D6EE"/>
<path d="M22.2587 18.7694V19.1034H15.2611C15.2611 19.1034 14.9945 19.0366 14.9612 18.903C14.8946 18.7694 14.9612 18.6358 15.0278 18.5356L17.6603 15.8971L17.8935 15.7969H24.8911C24.8911 15.7969 25.1577 15.8637 25.191 15.9973C25.2577 16.1309 25.191 16.2645 25.1244 16.3647L22.5253 19.0032L22.292 19.1034V18.7694L22.0588 18.5356L24.0914 16.4649H18.0268L16.0608 18.4354H22.2587V18.7694Z" fill="#0072BC"/>
<path d="M24.8589 16.1309L22.2598 18.7694H29.2574L31.8565 16.1309" fill="#C7D6EE"/>
<path d="M29.2567 18.7694V19.1034H22.2591C22.2591 19.1034 21.9926 19.0366 21.9592 18.903C21.8926 18.7694 21.9592 18.6358 22.0259 18.5356L24.6583 15.8971L24.8916 15.7969H31.8892C31.8892 15.7969 32.1557 15.8637 32.1891 15.9973C32.2557 16.1309 32.1891 16.2645 32.1224 16.3647L29.5233 19.0032L29.2901 19.1034V18.7694L29.0568 18.5356L31.1228 16.4649H25.0582L23.0922 18.4354H29.2901V18.7694" fill="#0072BC"/>
<path d="M31.855 16.1309L29.2559 18.7694H36.2535L38.8526 16.1309" fill="#C7D6EE"/>
<path d="M36.2548 18.7694V19.1034H29.2572C29.2572 19.1034 28.9906 19.0366 28.9573 18.903C28.8906 18.7694 28.9573 18.6358 29.0239 18.5356L31.6564 15.8971L31.8896 15.7969H38.8872C38.8872 15.7969 39.1538 15.8637 39.1871 15.9973C39.2538 16.1309 39.1871 16.2645 39.1205 16.3647L36.5214 19.0032L36.2881 19.1034V18.7694L36.0549 18.5356L38.0875 16.4649H32.0229L30.0569 18.4354H36.2548V18.7694Z" fill="#0072BC"/>
<path d="M38.853 16.1309L36.2539 18.7694H43.2515L45.8506 16.1309" fill="#C7D6EE"/>
<path d="M43.2509 18.7694V19.1034H36.2533C36.2533 19.1034 35.9867 19.0366 35.9534 18.903C35.8867 18.7694 35.9534 18.6358 36.02 18.5356L38.6525 15.8971L38.8857 15.7969H45.8833C45.8833 15.7969 46.1499 15.8637 46.1832 15.9973C46.2498 16.1309 46.1832 16.2645 46.1166 16.3647L43.5175 19.0032L43.2842 19.1034V18.7694L43.0509 18.5356L45.0836 16.4649H39.019L37.053 18.4354H43.2509V18.7694Z" fill="#0072BC"/>
<path d="M45.8844 16.1309L43.252 18.7694H50.2495L52.8487 16.1309" fill="#C7D6EE"/>
<path d="M50.2489 18.7694V19.1034H43.2513C43.2513 19.1034 42.9848 19.0366 42.9514 18.903C42.8848 18.7694 42.9514 18.6358 43.0181 18.5356L45.6505 15.8971L45.8838 15.7969H52.8814C52.8814 15.7969 53.1479 15.8637 53.1812 15.9973C53.2479 16.1309 53.1812 16.2645 53.1146 16.3647L50.5155 19.0032L50.2822 19.1034V18.7694L50.049 18.5356L52.115 16.4649H46.0504L44.0844 18.4354H50.2822V18.7694" fill="#0072BC"/>
<path d="M52.8491 16.1309L50.25 18.7694H57.2476L59.8467 16.1309" fill="#C7D6EE"/>
<path d="M57.247 18.7694V19.1034H50.2494C50.2494 19.1034 49.9828 19.0366 49.9495 18.903C49.8828 18.7694 49.9495 18.6358 50.0161 18.5356L52.6486 15.8971L52.8818 15.7969H59.8794C59.8794 15.7969 60.146 15.8637 60.1793 15.9973C60.2459 16.1309 60.1793 16.2645 60.1127 16.3647L57.5135 19.0032L57.2803 19.1034V18.7694L57.047 18.5356L59.0797 16.4649H53.0151L51.0491 18.4354H57.247V18.7694Z" fill="#0072BC"/>
<path d="M59.8785 16.1309L57.2461 18.7694H64.2437L66.8428 16.1309" fill="#C7D6EE"/>
<path d="M64.245 18.7694V19.1034H57.2474C57.2474 19.1034 56.9808 19.0366 56.9475 18.903C56.8809 18.7694 56.9475 18.6358 57.0142 18.5356L59.6466 15.8971L59.8798 15.7969H66.8774C66.8774 15.7969 67.144 15.8637 67.1773 15.9973C67.244 16.1309 67.1773 16.2645 67.1107 16.3647L64.5116 19.0032L64.2783 19.1034V18.7694L64.0451 18.5356L66.111 16.4649H60.0465L58.0805 18.4354H64.2783V18.7694" fill="#0072BC"/>
<path d="M66.8766 16.1309L64.2441 18.7694H71.2417L73.8408 16.1309" fill="#C7D6EE"/>
<path d="M71.2431 18.7694V19.1034H64.2455C64.2455 19.1034 63.9789 19.0366 63.9456 18.903C63.8789 18.7694 63.9456 18.6358 64.0122 18.5356L66.6446 15.8971L66.8779 15.7969H73.8755C73.8755 15.7969 74.1421 15.8637 74.1754 15.9973C74.242 16.1309 74.1754 16.2645 74.1087 16.3647L71.5096 19.0032L71.2764 19.1034V18.7694L71.0431 18.5356L73.0758 16.4649H67.0112L65.0452 18.4354H71.2431V18.7694Z" fill="#0072BC"/>
<path d="M73.8746 16.1309L71.2422 18.7694H78.2398L80.8389 16.1309" fill="#C7D6EE"/>
<path d="M78.2392 18.7694V19.1034H71.2416C71.2416 19.1034 70.975 19.0366 70.9417 18.903C70.875 18.7694 70.9417 18.6358 71.0083 18.5356L73.6407 15.8971L73.874 15.7969H80.8716C80.8716 15.7969 81.1382 15.8637 81.1715 15.9973C81.2381 16.1309 81.1715 16.2645 81.1048 16.3647L78.5057 19.0032L78.2725 19.1034V18.7694L78.0392 18.5356L80.0719 16.4649H74.0073L72.0413 18.4354H78.2392V18.7694Z" fill="#0072BC"/>
<path d="M78.2402 18.7694V25.7831L80.8727 23.1446V16.1309" fill="#2484C6"/>
<path d="M80.8719 23.1455L81.1052 23.3793L78.4727 26.0178C78.4727 26.0178 78.2395 26.1514 78.1062 26.0846C77.9729 26.0512 77.9062 25.9176 77.9062 25.7841V18.7703L78.0062 18.5365L80.6386 15.898C80.6386 15.898 80.8719 15.7644 81.0052 15.8312C81.1385 15.8646 81.2051 15.9982 81.2051 16.1318V23.1455L81.1052 23.3793L80.8719 23.1455H80.5387V16.9334L78.5727 18.9039V24.9825L80.6386 22.9118L80.8719 23.1455Z" fill="#0072BC"/>
<path d="M8.23009 18.7695L5.59766 21.3746H12.5953L15.2277 18.7695" fill="#C7D6EE"/>
<path d="M12.6299 21.3748V21.7088H5.59899C5.59899 21.7088 5.33241 21.642 5.29909 21.5084C5.23245 21.3748 5.29909 21.2412 5.36573 21.141L7.99816 18.5025L8.23141 18.4023H15.229C15.229 18.4023 15.4956 18.4691 15.5289 18.6027C15.5955 18.7363 15.5289 18.8699 15.4623 18.9701L12.8632 21.6086L12.6299 21.7088V21.3748L12.3966 21.141L14.4293 19.0703H8.3647L6.39871 21.0409H12.5966V21.3748" fill="#0072BC"/>
<path d="M15.2281 18.7695L12.5957 21.3746H19.6266L22.2257 18.7695" fill="#C7D6EE"/>
<path d="M19.6259 21.3748V21.7088H12.6283C12.6283 21.7088 12.3617 21.642 12.3284 21.5084C12.2617 21.3748 12.3284 21.2412 12.395 21.141L15.0275 18.5025L15.2607 18.4023H22.2583C22.2583 18.4023 22.5249 18.4691 22.5582 18.6027C22.6248 18.7363 22.5582 18.8699 22.4916 18.9701L19.8925 21.6086L19.6592 21.7088V21.3748L19.4259 21.141L21.4586 19.0703H15.394L13.428 21.0409H19.6259V21.3748Z" fill="#0072BC"/>
<path d="M22.2262 18.7695L19.5938 21.3746H26.6247L29.2238 18.7695" fill="#C7D6EE"/>
<path d="M26.6239 21.3748V21.7088H19.6263C19.6263 21.7088 19.3598 21.642 19.3264 21.5084C19.2598 21.3748 19.3264 21.2412 19.3931 21.141L22.0255 18.5025L22.2588 18.4023H29.2564C29.2564 18.4023 29.5229 18.4691 29.5562 18.6027C29.6229 18.7363 29.5563 18.8699 29.4896 18.9701L26.8905 21.6086L26.6572 21.7088V21.3748L26.424 21.141L28.49 19.0703H22.4254L20.4594 21.0409H26.6572V21.3748" fill="#0072BC"/>
<path d="M29.2242 18.7695L26.5918 21.3746H33.5894L36.2218 18.7695" fill="#C7D6EE"/>
<path d="M33.622 21.3748V21.7088H26.6244C26.6244 21.7088 26.3578 21.642 26.3245 21.5084C26.2578 21.3748 26.3245 21.2412 26.3911 21.141L29.0236 18.5025L29.2568 18.4023H36.2544C36.2544 18.4023 36.521 18.4691 36.5543 18.6027C36.6209 18.7363 36.5543 18.8699 36.4877 18.9701L33.8885 21.6086L33.6553 21.7088V21.3748L33.422 21.141L35.4547 19.0703H29.3901L27.4241 21.0409H33.622V21.3748Z" fill="#0072BC"/>
<path d="M36.2203 18.7695L33.5879 21.3746H40.6188L43.2179 18.7695" fill="#C7D6EE"/>
<path d="M40.62 21.3748V21.7088H33.6224C33.6224 21.7088 33.3558 21.642 33.3225 21.5084C33.2559 21.3748 33.3225 21.2412 33.3892 21.141L36.0216 18.5025L36.2549 18.4023H43.2524C43.2524 18.4023 43.519 18.4691 43.5523 18.6027C43.619 18.7363 43.5523 18.8699 43.4857 18.9701L40.8866 21.6086L40.6533 21.7088V21.3748L40.4201 21.141L42.4527 19.0703H36.3881L34.4221 21.0409H40.62V21.3748Z" fill="#0072BC"/>
<path d="M43.2182 18.7695L40.6191 21.3746H47.6167L50.2158 18.7695" fill="#C7D6EE"/>
<path d="M47.6161 21.3748V21.7088H40.6185C40.6185 21.7088 40.3519 21.642 40.3186 21.5084C40.252 21.3748 40.3186 21.2412 40.3853 21.141L43.0177 18.5025L43.2509 18.4023H50.2485C50.2485 18.4023 50.5151 18.4691 50.5484 18.6027C50.6151 18.7363 50.5484 18.8699 50.4818 18.9701L47.8827 21.6086L47.6494 21.7088V21.3748L47.4162 21.141L49.4821 19.0703H43.4176L41.4516 21.0409H47.6494V21.3748" fill="#0072BC"/>
<path d="M50.2163 18.7695L47.6172 21.3746H54.6148L57.2139 18.7695" fill="#C7D6EE"/>
<path d="M54.6142 21.3748V21.7088H47.6166C47.6166 21.7088 47.35 21.642 47.3167 21.5084C47.25 21.3748 47.3167 21.2412 47.3833 21.141L50.0157 18.5025L50.249 18.4023H57.2466C57.2466 18.4023 57.5132 18.4691 57.5465 18.6027C57.6131 18.7363 57.5465 18.8699 57.4798 18.9701L54.8807 21.6086L54.6475 21.7088V21.3748L54.4142 21.141L56.4802 19.0703H50.4156L48.4496 21.0409H54.6475V21.3748" fill="#0072BC"/>
<path d="M57.2477 18.7695L54.6152 21.3746H61.6128L64.2119 18.7695" fill="#C7D6EE"/>
<path d="M61.6122 21.3748V21.7088H54.6146C54.6146 21.7088 54.348 21.642 54.3147 21.5084C54.2481 21.3748 54.3147 21.2412 54.3814 21.141L57.0138 18.5025L57.247 18.4023H64.2446C64.2446 18.4023 64.5112 18.4691 64.5445 18.6027C64.6112 18.7363 64.5445 18.8699 64.4779 18.9701L61.8788 21.6086L61.6455 21.7088V21.3748L61.4123 21.141L63.4782 19.0703H57.4136L55.4477 21.0409H61.6455V21.3748" fill="#0072BC"/>
<path d="M64.2438 18.7695L61.6113 21.3746H68.6089L71.208 18.7695" fill="#C7D6EE"/>
<path d="M68.6103 21.3748V21.7088H61.6127C61.6127 21.7088 61.3461 21.642 61.3128 21.5084C61.2461 21.3748 61.3128 21.2412 61.3794 21.141L64.0118 18.5025L64.2451 18.4023H71.2427C71.2427 18.4023 71.5093 18.4691 71.5426 18.6027C71.6092 18.7363 71.5426 18.8699 71.4759 18.9701L68.8768 21.6086L68.6436 21.7088V21.3748L68.4103 21.141L70.443 19.0703H64.3784L62.4124 21.0409H68.6103V21.3748Z" fill="#0072BC"/>
<path d="M71.2418 18.7695L68.6094 21.3746H75.607L78.2061 18.7695" fill="#C7D6EE"/>
<path d="M75.6083 21.3748V21.7088H68.6107C68.6107 21.7088 68.3441 21.642 68.3108 21.5084C68.2442 21.3748 68.3108 21.2412 68.3775 21.141L71.0099 18.5025L71.2431 18.4023H78.2407C78.2407 18.4023 78.5073 18.4691 78.5406 18.6027C78.6073 18.7363 78.5406 18.8699 78.474 18.9701L75.8749 21.6086L75.6416 21.7088V21.3748L75.4084 21.141L77.441 19.0703H71.4097L69.4438 21.0409H75.6416V21.3748" fill="#0072BC"/>
<path d="M75.6074 21.3748V28.3886L78.2398 25.7501V18.7363" fill="#2484C6"/>
<path d="M78.2391 25.751L78.4723 25.9848L75.8399 28.6233C75.8399 28.6233 75.6067 28.7569 75.4734 28.6901C75.3401 28.6567 75.2734 28.5231 75.2734 28.3895V21.3758L75.3734 21.142L78.0058 18.5035C78.0058 18.5035 78.2391 18.3699 78.3724 18.4367C78.5057 18.4701 78.5723 18.6037 78.5723 18.7373V25.751L78.4723 25.9848L78.2391 25.751H77.9059V19.5388L75.9399 21.5094V27.5879L78.0058 25.5172L78.2391 25.751Z" fill="#0072BC"/>
<path d="M5.59727 21.375L2.96484 24.0135H9.96244L12.5949 21.375" fill="#C7D6EE"/>
<path d="M9.96377 24.0135V24.3475H2.96617C2.96617 24.3475 2.6996 24.2807 2.66628 24.1471C2.59963 24.0135 2.66628 23.8799 2.73292 23.7797L5.36535 21.1412L5.5986 21.041H12.5962C12.5962 21.041 12.8628 21.1078 12.8961 21.2414C12.9627 21.375 12.8961 21.5086 12.8295 21.6088L10.2303 24.2473L9.99709 24.3475V24.0135L9.76384 23.7797L11.7965 21.709H5.73189L3.7659 23.6795H9.96377V24.0135Z" fill="#0072BC"/>
<path d="M12.5953 21.375L9.96289 24.0135H16.9605L19.5929 21.375" fill="#C7D6EE"/>
<path d="M16.9599 24.0135V24.3475H9.96227C9.96227 24.3475 9.69569 24.2807 9.66237 24.1471C9.59573 24.0135 9.66237 23.8799 9.72901 23.7797L12.3614 21.1412L12.5947 21.041H19.5923C19.5923 21.041 19.8589 21.1078 19.8922 21.2414C19.9588 21.375 19.8922 21.5086 19.8255 21.6088L17.2264 24.2473L16.9932 24.3475V24.0135L16.7599 23.7797L18.7926 21.709H12.728L10.762 23.6795H16.9599V24.0135Z" fill="#0072BC"/>
<path d="M19.5934 21.375L16.9609 24.0135H23.9585L26.591 21.375" fill="#C7D6EE"/>
<path d="M23.9579 24.0135V24.3475H16.9603C16.9603 24.3475 16.6937 24.2807 16.6604 24.1471C16.5938 24.0135 16.6604 23.8799 16.7271 23.7797L19.3595 21.1412L19.5927 21.041H26.5903C26.5903 21.041 26.8569 21.1078 26.8902 21.2414C26.9569 21.375 26.8902 21.5086 26.8236 21.6088L24.2245 24.2473L23.9912 24.3475V24.0135L23.758 23.7797L25.8239 21.709H19.7594L17.7934 23.6795H23.9912V24.0135" fill="#0072BC"/>
<path d="M26.5914 21.375L23.959 24.0135H30.9566L33.589 21.375" fill="#C7D6EE"/>
<path d="M30.9892 24.0135V24.3475H23.9916C23.9916 24.3475 23.725 24.2807 23.6917 24.1471C23.625 24.0135 23.6917 23.8799 23.7583 23.7797L26.3907 21.1412L26.624 21.041H33.6216C33.6216 21.041 33.8882 21.1078 33.9215 21.2414C33.9881 21.375 33.9215 21.5086 33.8548 21.6088L31.2557 24.2473L31.0225 24.3475V24.0135L30.7892 23.7797L32.8219 21.709H26.7573L24.7913 23.6795H30.9892V24.0135Z" fill="#0072BC"/>
<path d="M33.5875 21.375L30.9551 24.0135H37.986L40.5851 21.375" fill="#C7D6EE"/>
<path d="M37.9872 24.0135V24.3475H30.9896C30.9896 24.3475 30.723 24.2807 30.6897 24.1471C30.6231 24.0135 30.6897 23.8799 30.7564 23.7797L33.3888 21.1412L33.622 21.041H40.6196C40.6196 21.041 40.8862 21.1078 40.9195 21.2414C40.9862 21.375 40.9195 21.5086 40.8529 21.6088L38.2538 24.2473L38.0205 24.3475V24.0135L37.7873 23.7797L39.8199 21.709H33.7553L31.7893 23.6795H37.9872V24.0135Z" fill="#0072BC"/>
<path d="M40.5856 21.375L37.9531 24.0135H44.984L47.5831 21.375" fill="#C7D6EE"/>
<path d="M44.9853 24.0135V24.3475H37.9877C37.9877 24.3475 37.7211 24.2807 37.6878 24.1471C37.6211 24.0135 37.6878 23.8799 37.7544 23.7797L40.3868 21.1412L40.6201 21.041H47.6177C47.6177 21.041 47.8843 21.1078 47.9176 21.2414C47.9842 21.375 47.9176 21.5086 47.8509 21.6088L45.2518 24.2473L45.0186 24.3475V24.0135L44.7853 23.7797L46.8513 21.709H40.7867L38.8207 23.6795H45.0186V24.0135" fill="#0072BC"/>
<path d="M47.5836 21.375L44.9512 24.0135H51.9821L54.5812 21.375" fill="#C7D6EE"/>
<path d="M51.9813 24.0135V24.3475H44.9838C44.9838 24.3475 44.7172 24.2807 44.6839 24.1471C44.6172 24.0135 44.6839 23.8799 44.7505 23.7797L47.3829 21.1412L47.6162 21.041H54.6138C54.6138 21.041 54.8803 21.1078 54.9137 21.2414C54.9803 21.375 54.9137 21.5086 54.847 21.6088L52.2479 24.2473L52.0147 24.3475V24.0135L51.7814 23.7797L53.814 21.709H47.7495L45.7835 23.6795H51.9813V24.0135Z" fill="#0072BC"/>
<path d="M54.5815 21.375L51.9824 24.0135H58.98L61.5791 21.375" fill="#C7D6EE"/>
<path d="M58.9794 24.0135V24.3475H51.9818C51.9818 24.3475 51.7152 24.2807 51.6819 24.1471C51.6153 24.0135 51.6819 23.8799 51.7485 23.7797L54.381 21.1412L54.6142 21.041H61.6118C61.6118 21.041 61.8784 21.1078 61.9117 21.2414C61.9784 21.375 61.9117 21.5086 61.8451 21.6088L59.246 24.2473L59.0127 24.3475V24.0135L58.7795 23.7797L60.8121 21.709H54.7475L52.7815 23.6795H58.9794V24.0135Z" fill="#0072BC"/>
<path d="M61.5797 21.375L58.9473 24.0135H65.9782L68.5773 21.375" fill="#C7D6EE"/>
<path d="M65.9774 24.0135V24.3475H58.9798C58.9798 24.3475 58.7133 24.2807 58.6799 24.1471C58.6133 24.0135 58.6799 23.8799 58.7466 23.7797L61.379 21.1412L61.6123 21.041H68.6099C68.6099 21.041 68.8764 21.1078 68.9098 21.2414C68.9764 21.375 68.9098 21.5086 68.8431 21.6088L66.244 24.2473L66.0108 24.3475V24.0135L65.7775 23.7797L67.8101 21.709H61.7456L59.7796 23.6795H65.9774V24.0135Z" fill="#0072BC"/>
<path d="M68.5757 21.375L65.9766 24.0135H72.9742L75.5733 21.375" fill="#C7D6EE"/>
<path d="M72.9755 24.0135V24.3475H65.9779C65.9779 24.3475 65.7113 24.2807 65.678 24.1471C65.6114 24.0135 65.678 23.8799 65.7446 23.7797L68.3771 21.1412L68.6103 21.041H75.6079C75.6079 21.041 75.8745 21.1078 75.9078 21.2414C75.9745 21.375 75.9078 21.5086 75.8412 21.6088L73.2421 24.2473L73.0088 24.3475V24.0135L72.7756 23.7797L74.8082 21.709H68.7436L66.7776 23.6795H72.9755V24.0135Z" fill="#0072BC"/>
<path d="M72.9746 24.0135V31.0273L75.5737 28.3888V21.375" fill="#2484C6"/>
<path d="M75.6082 28.3897L75.8415 28.6235L73.2091 31.262C73.2091 31.262 72.9758 31.3956 72.8425 31.3288C72.7092 31.2954 72.6426 31.1618 72.6426 31.0282V24.0144L72.7425 23.7806L75.375 21.1421C75.375 21.1421 75.6082 21.0085 75.7415 21.0753C75.8748 21.1087 75.9415 21.2423 75.9415 21.3759V28.3897L75.8415 28.6235L75.6082 28.3897H75.275V22.1775L73.309 24.148V30.2266L75.375 28.1559L75.6082 28.3897Z" fill="#0072BC"/>
<path d="M2.96641 24.0137L0.333984 26.6522H7.33158L9.96401 24.0137" fill="#C7D6EE"/>
<path d="M7.33096 26.6522V26.9862H0.333361C0.333361 26.9862 0.066786 26.9194 0.0334641 26.7858C-0.0331796 26.6522 0.0334641 26.5186 0.100108 26.4184L2.73254 23.7799L2.96579 23.6797H9.96338C9.96338 23.6797 10.23 23.7465 10.2633 23.8801C10.3299 24.0137 10.2633 24.1473 10.1966 24.2475L7.59753 26.886L7.36428 26.9862V26.6522L7.13103 26.4184L9.19698 24.3477H3.09908L1.13309 26.3182H7.33096V26.6522Z" fill="#0072BC"/>
<path d="M7.33158 26.6523H0.333984V33.6661H7.33158V26.6523Z" fill="#95B6DF"/>
<path d="M7.33081 33.6661V34.0001H0.333219L0.0999656 33.8999L0 33.6661V26.6523L0.0999656 26.4186L0.333219 26.3184H7.33081L7.56407 26.4186L7.66403 26.6523V33.6661L7.56407 33.8999L7.33081 34.0001V33.6661H6.9976V26.9863H0.666438V33.3321H7.33081V33.6661H6.9976H7.33081Z" fill="#0072BC"/>
<path d="M9.96251 24.0137L7.33008 26.6522H14.3277L16.9601 24.0137" fill="#C7D6EE"/>
<path d="M14.329 26.6522V26.9862H7.33141C7.33141 26.9862 7.06483 26.9194 7.03151 26.7858C6.96487 26.6522 7.03151 26.5186 7.09816 26.4184L9.73058 23.7799L9.96384 23.6797H16.9614C16.9614 23.6797 17.228 23.7465 17.2613 23.8801C17.328 24.0137 17.2613 24.1473 17.1947 24.2475L14.5956 26.886L14.3623 26.9862V26.6522L14.1291 26.4184L16.195 24.3477H10.1304L8.16446 26.3182H14.3623V26.6522" fill="#0072BC"/>
<path d="M14.3277 26.6523H7.33008V33.6661H14.3277V26.6523Z" fill="#95B6DF"/>
<path d="M14.3289 33.6661V34.0001H7.33127L7.09801 33.8999L6.99805 33.6661V26.6523L7.09801 26.4186L7.33127 26.3184H14.3289L14.5621 26.4186L14.6621 26.6523V33.6661L14.5621 33.8999L14.3289 34.0001V33.6661H13.9956V26.9863H7.66448V33.3321H14.3289V33.6661H13.9956H14.3289Z" fill="#0072BC"/>
<path d="M16.9606 24.0137L14.3281 26.6522H21.3257L23.9581 24.0137" fill="#C7D6EE"/>
<path d="M21.3251 26.6522V26.9862H14.3275C14.3275 26.9862 14.0609 26.9194 14.0276 26.7858C13.961 26.6522 14.0276 26.5186 14.0942 26.4184L16.7267 23.7799L16.9599 23.6797H23.9575C23.9575 23.6797 24.2241 23.7465 24.2574 23.8801C24.3241 24.0137 24.2574 24.1473 24.1908 24.2475L21.5917 26.886L21.3584 26.9862V26.6522L21.1252 26.4184L23.1911 24.3477H17.1265L15.1605 26.3182H21.3584V26.6522" fill="#0072BC"/>
<path d="M21.3257 26.6523H14.3281V33.6661H21.3257V26.6523Z" fill="#95B6DF"/>
<path d="M21.3269 33.6661V34.0001H14.3293L14.0961 33.8999L13.9961 33.6661V26.6523L14.0961 26.4186L14.3293 26.3184H21.3269L21.5602 26.4186L21.6601 26.6523V33.6661L21.5602 33.8999L21.3269 34.0001V33.6661H20.9937V26.9863H14.6625V33.3321H21.3269V33.6661H20.9937H21.3269Z" fill="#0072BC"/>
<path d="M23.9586 24.0137L21.3262 26.6522H28.3238L30.9562 24.0137" fill="#C7D6EE"/>
<path d="M28.3231 26.6522V26.9862H21.3255C21.3255 26.9862 21.059 26.9194 21.0257 26.7858C20.959 26.6522 21.0257 26.5186 21.0923 26.4184L23.7247 23.7799L23.958 23.6797H30.9556C30.9556 23.6797 31.2221 23.7465 31.2555 23.8801C31.3221 24.0137 31.2555 24.1473 31.1888 24.2475L28.5897 26.886L28.3565 26.9862V26.6522L28.1232 26.4184L30.1892 24.3477H24.1246L22.1586 26.3182H28.3565V26.6522" fill="#0072BC"/>
<path d="M28.3238 26.6523H21.3262V33.6661H28.3238V26.6523Z" fill="#95B6DF"/>
<path d="M28.323 33.6661V34.0001H21.3254L21.0922 33.8999L20.9922 33.6661V26.6523L21.0922 26.4186L21.3254 26.3184H28.323L28.5563 26.4186L28.6562 26.6523V33.6661L28.5563 33.8999L28.323 34.0001V33.6661H27.9898V26.9863H21.6586V33.3321H28.323V33.6661H27.9898H28.323Z" fill="#0072BC"/>
<path d="M30.9566 24.0137L28.3242 26.6522H35.3218L37.9542 24.0137" fill="#C7D6EE"/>
<path d="M35.3212 26.6522V26.9862H28.3236C28.3236 26.9862 28.057 26.9194 28.0237 26.7858C27.9571 26.6522 28.0237 26.5186 28.0903 26.4184L30.7228 23.7799L30.956 23.6797H37.9536C37.9536 23.6797 38.2202 23.7465 38.2535 23.8801C38.3202 24.0137 38.2535 24.1473 38.1869 24.2475L35.5878 26.886L35.3545 26.9862V26.6522L35.1213 26.4184L37.1872 24.3477H31.1226L29.1566 26.3182H35.3545V26.6522" fill="#0072BC"/>
<path d="M35.3218 26.6523H28.3242V33.6661H35.3218V26.6523Z" fill="#95B6DF"/>
<path d="M35.3211 33.6661V34.0001H28.3235L28.0902 33.8999L27.9902 33.6661V26.6523L28.0902 26.4186L28.3235 26.3184H35.3211L35.5543 26.4186L35.6543 26.6523V33.6661L35.5543 33.8999L35.3211 34.0001V33.6661H34.9878V26.9863H28.6567V33.3321H35.3211V33.6661H34.9878H35.3211Z" fill="#0072BC"/>
<path d="M37.9527 24.0137L35.3203 26.6522H42.3179L44.9503 24.0137" fill="#C7D6EE"/>
<path d="M42.3192 26.6522V26.9862H35.3216C35.3216 26.9862 35.0551 26.9194 35.0217 26.7858C34.9551 26.6522 35.0217 26.5186 35.0884 26.4184L37.7208 23.7799L37.9541 23.6797H44.9517C44.9517 23.6797 45.2182 23.7465 45.2516 23.8801C45.3182 24.0137 45.2516 24.1473 45.1849 24.2475L42.5858 26.886L42.3526 26.9862V26.6522L42.1193 26.4184L44.1853 24.3477H38.1207L36.1547 26.3182H42.3526V26.6522" fill="#0072BC"/>
<path d="M42.3179 26.6523H35.3203V33.6661H42.3179V26.6523Z" fill="#95B6DF"/>
<path d="M42.3191 33.6661V34.0001H35.3215L35.0882 33.8999L34.9883 33.6661V26.6523L35.0882 26.4186L35.3215 26.3184H42.3191L42.5524 26.4186L42.6523 26.6523V33.6661L42.5524 33.8999L42.3191 34.0001V33.6661H41.9859V26.9863H35.6547V33.3321H42.3191V33.6661H41.9859H42.3191Z" fill="#0072BC"/>
<path d="M44.9508 24.0137L42.3184 26.6522H49.3493L51.9484 24.0137" fill="#C7D6EE"/>
<path d="M49.3505 26.6522V26.9862H42.3529C42.3529 26.9862 42.0863 26.9194 42.053 26.7858C41.9864 26.6522 42.053 26.5186 42.1196 26.4184L44.7521 23.7799L44.9853 23.6797H51.9829C51.9829 23.6797 52.2495 23.7465 52.2828 23.8801C52.3495 24.0137 52.2828 24.1473 52.2162 24.2475L49.6171 26.886L49.3838 26.9862V26.6522L49.1506 26.4184L51.1832 24.3477H45.1186L43.1526 26.3182H49.3505V26.6522Z" fill="#0072BC"/>
<path d="M49.316 26.6523H42.3184V33.6661H49.316V26.6523Z" fill="#95B6DF"/>
<path d="M49.3171 33.6661V34.0001H42.3195L42.0863 33.8999L41.9863 33.6661V26.6523L42.0863 26.4186L42.3195 26.3184H49.3171L49.5504 26.4186L49.6504 26.6523V33.6661L49.5504 33.8999L49.3171 34.0001V33.6661H48.9839V26.9863H42.6528V33.3321H49.3171V33.6661H48.9839H49.3171Z" fill="#0072BC"/>
<path d="M51.9488 24.0137L49.3164 26.6522H56.314L58.9464 24.0137" fill="#C7D6EE"/>
<path d="M56.3466 26.6522V26.9862H49.349C49.349 26.9862 49.0824 26.9194 49.0491 26.7858C48.9824 26.6522 49.0491 26.5186 49.1157 26.4184L51.7482 23.7799L51.9814 23.6797H58.979C58.979 23.6797 59.2456 23.7465 59.2789 23.8801C59.3456 24.0137 59.2789 24.1473 59.2123 24.2475L56.6132 26.886L56.3799 26.9862V26.6522L56.1467 26.4184L58.2126 24.3477H52.148L50.182 26.3182H56.3799V26.6522" fill="#0072BC"/>
<path d="M56.314 26.6523H49.3164V33.6661H56.314V26.6523Z" fill="#95B6DF"/>
<path d="M56.3132 33.6661V34.0001H49.3156L49.0824 33.8999L48.9824 33.6661V26.6523L49.0824 26.4186L49.3156 26.3184H56.3132L56.5465 26.4186L56.6465 26.6523V33.6661L56.5465 33.8999L56.3132 34.0001V33.6661H55.98V26.9863H49.6489V33.3321H56.3132V33.6661H55.98H56.3132Z" fill="#0072BC"/>
<path d="M58.9469 24.0137L56.3145 26.6522H63.3454L65.9445 24.0137" fill="#C7D6EE"/>
<path d="M63.3446 26.6522V26.9862H56.347C56.347 26.9862 56.0805 26.9194 56.0471 26.7858C55.9805 26.6522 56.0471 26.5186 56.1138 26.4184L58.7462 23.7799L58.9795 23.6797H65.9771C65.9771 23.6797 66.2436 23.7465 66.277 23.8801C66.3436 24.0137 66.277 24.1473 66.2103 24.2475L63.6112 26.886L63.378 26.9862V26.6522L63.1447 26.4184L65.1773 24.3477H59.1127L57.1468 26.3182H63.3446V26.6522Z" fill="#0072BC"/>
<path d="M63.312 26.6523H56.3145V33.6661H63.312V26.6523Z" fill="#95B6DF"/>
<path d="M63.3113 33.6661V34.0001H56.3137L56.0804 33.8999L55.9805 33.6661V26.6523L56.0804 26.4186L56.3137 26.3184H63.3113L63.5445 26.4186L63.6445 26.6523V33.6661L63.5445 33.8999L63.3113 34.0001V33.6661H62.9781V26.9863H56.6469V33.3321H63.3113V33.6661H62.9781H63.3113Z" fill="#0072BC"/>
<path d="M65.9449 24.0137L63.3125 26.6522H70.3434L72.9425 24.0137" fill="#C7D6EE"/>
<path d="M70.3427 26.6522V26.9862H63.3451C63.3451 26.9862 63.0785 26.9194 63.0452 26.7858C62.9785 26.6522 63.0452 26.5186 63.1118 26.4184L65.7443 23.7799L65.9775 23.6797H72.9751C72.9751 23.6797 73.2417 23.7465 73.275 23.8801C73.3416 24.0137 73.275 24.1473 73.2084 24.2475L70.6093 26.886L70.376 26.9862V26.6522L70.1427 26.4184L72.1754 24.3477H66.1108L64.1448 26.3182H70.3427V26.6522Z" fill="#0072BC"/>
<path d="M70.3086 26.6522V33.6659L72.941 31.0274V24.0137" fill="#2484C6"/>
<path d="M72.9422 31.0284L73.1755 31.2621L70.543 33.9007C70.543 33.9007 70.3098 34.0343 70.1765 33.9675C70.0432 33.9341 69.9766 33.8005 69.9766 33.6669V26.6531L70.0765 26.4193L72.709 23.7808C72.709 23.7808 72.9422 23.6472 73.0755 23.714C73.2088 23.7474 73.2754 23.881 73.2754 24.0146V31.0284L73.1755 31.2621L72.9422 31.0284H72.609V24.8162L70.643 26.7867V32.8653L72.709 30.7946L72.9422 31.0284Z" fill="#0072BC"/>
<path d="M70.3101 26.6523H63.3125V33.6661H70.3101V26.6523Z" fill="#95B6DF"/>
<path d="M70.3093 33.6661V34.0001H63.3117L63.0785 33.8999L62.9785 33.6661V26.6523L63.0785 26.4186L63.3117 26.3184H70.3093L70.5426 26.4186L70.6426 26.6523V33.6661L70.5426 33.8999L70.3093 34.0001V33.6661H69.9761V26.9863H63.645V33.3321H70.3093V33.6661H69.9761H70.3093Z" fill="#0072BC"/>
</g>
<defs>
<clipPath id="clip0_2232_43479">
<rect width="97" height="34" fill="white"/>
</clipPath>
</defs>
</svg>
