<svg width="21" height="21" viewBox="0 0 21 21" fill="none" xmlns="http://www.w3.org/2000/svg">
<g clip-path="url(#clip0_2_5190)">
<path d="M14.9568 5.83337H0.339355L5.83361 0.339111H20.4171L14.9568 5.83337Z" fill="#D3DEF1"/>
<path d="M20.4508 14.9565L14.9565 20.4169V5.83337L20.4508 0.339111V14.9565Z" fill="#187FC4"/>
<path d="M14.9229 5.8335H0.339355V20.417H14.9229V5.8335Z" fill="#A3BCE2"/>
<path d="M14.9566 20.7561H0.339152C0.135661 20.7561 0 20.6204 0 20.4169V5.83341C0 5.83341 0.101746 5.56209 0.203491 5.52817L5.596 0.101746C5.596 0.101746 5.73166 0 5.83341 0H20.3491C20.3491 0 20.5187 0 20.5865 0C20.7222 0.0678303 20.79 0.169576 20.79 0.305237V14.9227C20.79 14.9227 20.7561 15.0923 20.6883 15.1601L15.194 20.6204C15.194 20.6204 15.0583 20.7222 14.9566 20.7222V20.7561ZM0.678303 20.0778H14.5835V6.17256H0.678303V20.0778ZM15.2957 5.96907V19.603L20.1117 14.787V1.15312L15.2957 5.96907ZM1.18703 5.49426H14.787L19.603 0.678303H5.96907L1.18703 5.49426Z" fill="#0068B7"/>
</g>
<defs>
<clipPath id="clip0_2_5190">
<rect width="20.79" height="20.7561" fill="white"/>
</clipPath>
</defs>
</svg>
