<svg width="21" height="152" viewBox="0 0 21 152" fill="none" xmlns="http://www.w3.org/2000/svg">
<g clip-path="url(#clip0_191_15838)">
<path d="M14.9999 136.718H0.406311L5.89162 131.241H20.4175L14.9999 136.718Z" fill="#AFD69A"/>
<path d="M20.4514 145.779L14.9661 151.256V136.718L20.4514 131.241V145.779Z" fill="#80C269"/>
<path d="M14.9661 136.685H0.406311V151.222H14.9661V136.685Z" fill="#95CB7E"/>
<path d="M14.9661 151.594H0.406348C0.203189 151.594 0.067749 151.459 0.067749 151.256V136.718C0.067749 136.718 0.169329 136.448 0.270909 136.414L5.62078 131.039C5.62078 131.039 5.75622 130.937 5.8578 130.937H20.3499C20.3499 130.937 20.4853 130.937 20.5869 130.937C20.7223 131.005 20.79 131.106 20.79 131.242V145.813C20.79 145.813 20.79 145.982 20.6885 146.049L15.2031 151.492C15.2031 151.492 15.0677 151.594 14.9661 151.594ZM0.744948 150.918H14.6275V137.056H0.744948V150.918ZM15.3047 136.82V150.411L20.1128 145.61V132.019L15.3047 136.82ZM1.25285 136.38H14.8307L19.6388 131.58H6.0271L1.25285 136.38Z" fill="#22AC38"/>
<path d="M14.9661 122.147H0.406311L5.85776 116.704H20.4175L14.9661 122.147Z" fill="#AFD69A"/>
<path d="M20.4514 131.242L14.9661 136.718V122.147L20.4514 116.67V131.242Z" fill="#80C269"/>
<path d="M14.9322 122.147H0.372437V136.685H14.9322V122.147Z" fill="#95CB7E"/>
<path d="M14.9661 137.023H0.406348C0.203189 137.023 0.067749 136.887 0.067749 136.685V122.147C0.067749 122.147 0.169329 121.877 0.270909 121.843L5.62078 116.468C5.62078 116.468 5.75622 116.366 5.8578 116.366H20.3499C20.3499 116.366 20.4853 116.366 20.5869 116.366C20.7223 116.434 20.79 116.535 20.79 116.67V131.241C20.79 131.241 20.79 131.411 20.6885 131.478L15.2031 136.921C15.2031 136.921 15.0677 137.023 14.9661 137.023ZM0.711088 136.38H14.5937V122.519H0.711088V136.38ZM15.3047 122.282V135.873L20.1128 131.072V117.482L15.3047 122.282ZM1.25285 121.809H14.8307L19.6388 117.008H6.0271L1.25285 121.809Z" fill="#22AC38"/>
<path d="M14.9661 107.61H0.372437L5.85775 102.167H20.4175L14.9661 107.61Z" fill="#AFD69A"/>
<path d="M20.4514 116.704L14.9661 122.147V107.61L20.4514 102.133V116.704Z" fill="#80C269"/>
<path d="M14.9322 107.61H0.372437V122.147H14.9322V107.61Z" fill="#95CB7E"/>
<path d="M14.9661 122.485H0.372474C0.169314 122.485 0.0338745 122.35 0.0338745 122.147V107.61C0.0338745 107.61 0.135454 107.34 0.237034 107.306L5.5869 101.93C5.5869 101.93 5.72234 101.829 5.82392 101.829H20.316C20.316 101.829 20.4514 101.829 20.553 101.829C20.6884 101.896 20.7562 101.998 20.7562 102.133V116.704C20.7562 116.704 20.7562 116.873 20.6546 116.941L15.1693 122.384C15.1693 122.384 15.0338 122.485 14.9322 122.485H14.9661ZM0.711073 121.809H14.5936V107.948H0.711073V121.809ZM15.3047 107.745V121.336L20.1128 116.535V102.945L15.3047 107.745ZM1.21897 107.272H14.7968L19.6049 102.471H5.99322L1.21897 107.272Z" fill="#22AC38"/>
<path d="M14.9661 93.0726H0.372437L5.85775 87.6295H20.4175L14.9661 93.0726Z" fill="#AFD69A"/>
<path d="M20.4514 102.167L14.9661 107.61V93.0726L20.4514 87.5957V102.167Z" fill="#80C269"/>
<path d="M14.9322 93.0726H0.372437V107.61H14.9322V93.0726Z" fill="#95CB7E"/>
<path d="M14.9661 107.948H0.372474C0.169314 107.948 0.0338745 107.813 0.0338745 107.61V93.0726C0.0338745 93.0726 0.135454 92.8022 0.237034 92.7684L5.5869 87.3929C5.5869 87.3929 5.72234 87.2915 5.82392 87.2915H20.316C20.316 87.2915 20.4514 87.2915 20.553 87.2915C20.6884 87.3591 20.7562 87.4605 20.7562 87.5958V102.167C20.7562 102.167 20.7562 102.336 20.6546 102.404L15.1693 107.847C15.1693 107.847 15.0338 107.948 14.9322 107.948H14.9661ZM0.711073 107.272H14.5936V93.4107H0.711073V107.272ZM15.3047 93.2079V106.799L20.1128 101.998V88.4072L15.3047 93.2079ZM1.21897 92.7345H14.7968L19.6049 87.9339H5.99322L1.21897 92.7345Z" fill="#22AC38"/>
<path d="M14.9661 78.5353H0.372437L5.85775 73.0585H20.4175L14.9661 78.5353Z" fill="#AFD69A"/>
<path d="M20.4176 87.6296L14.9323 93.0726V78.5353L20.4176 73.0585V87.6296Z" fill="#80C269"/>
<path d="M14.9322 78.5353H0.372437V93.0726H14.9322V78.5353Z" fill="#95CB7E"/>
<path d="M14.9322 93.4107H0.372474C0.169314 93.4107 0.0338745 93.2754 0.0338745 93.0726V78.5353C0.0338745 78.5353 0.135454 78.2648 0.237034 78.231L5.5869 72.8556C5.5869 72.8556 5.72234 72.7542 5.82392 72.7542H20.316C20.316 72.7542 20.4514 72.7542 20.553 72.7542C20.6884 72.8218 20.7562 72.9232 20.7562 73.0584V87.6295C20.7562 87.6295 20.7562 87.7986 20.6546 87.8662L15.1693 93.3092C15.1693 93.3092 15.0338 93.4107 14.9322 93.4107ZM0.711073 92.7345H14.5936V78.8733H0.711073V92.7345ZM15.2708 78.6705V92.2612L20.079 87.4605V73.8698L15.2708 78.6705ZM1.21897 78.1972H14.7968L19.6049 73.3965H5.99322L1.21897 78.1972Z" fill="#22AC38"/>
<path d="M14.9661 63.998H0.372437L5.85775 58.5211H20.3837L14.9661 63.998Z" fill="#AFD69A"/>
<path d="M20.4176 73.0584L14.9323 78.5353V63.998L20.4176 58.5211V73.0584Z" fill="#80C269"/>
<path d="M14.9322 63.9642H0.372437V78.5015H14.9322V63.9642Z" fill="#95CB7E"/>
<path d="M14.9322 78.8734H0.372474C0.169314 78.8734 0.0338745 78.7382 0.0338745 78.5354V63.998C0.0338745 63.998 0.135454 63.7276 0.237034 63.6938L5.5869 58.3183C5.5869 58.3183 5.72234 58.2169 5.82392 58.2169H20.316C20.316 58.2169 20.4514 58.2169 20.553 58.2169C20.6884 58.2845 20.7562 58.386 20.7562 58.5212V73.0923C20.7562 73.0923 20.7562 73.2614 20.6546 73.329L15.1693 78.772C15.1693 78.772 15.0338 78.8734 14.9322 78.8734ZM0.711073 78.1973H14.5936V64.3361H0.711073V78.1973ZM15.2708 64.0995V77.6902L20.079 72.8895V59.2988L15.2708 64.0995ZM1.21897 63.66H14.7968L19.6049 58.8593H5.99322L1.21897 63.66Z" fill="#22AC38"/>
<path d="M14.9322 49.4269H0.372437L5.82389 43.9839H20.3837L14.9322 49.4269Z" fill="#AFD69A"/>
<path d="M20.4176 58.5212L14.9323 63.998V49.4607L20.4176 43.9839V58.5212Z" fill="#80C269"/>
<path d="M14.8984 49.4269H0.338623V63.9642H14.8984V49.4269Z" fill="#95CB7E"/>
<path d="M14.9322 64.3361H0.372474C0.169314 64.3361 0.0338745 64.2008 0.0338745 63.998V49.4607C0.0338745 49.4607 0.135454 49.1902 0.237034 49.1564L5.5869 43.781C5.5869 43.781 5.72234 43.6796 5.82392 43.6796H20.316C20.316 43.6796 20.4514 43.6796 20.553 43.6796C20.6884 43.7472 20.7562 43.8486 20.7562 43.9838V58.555C20.7562 58.555 20.7562 58.724 20.6546 58.7916L15.1693 64.2347C15.1693 64.2347 15.0338 64.3361 14.9322 64.3361ZM0.711073 63.6599H14.5936V49.7988H0.711073V63.6599ZM15.2708 49.5621V63.1528L20.079 58.3521V44.7614L15.2708 49.5621ZM1.18511 49.1226H14.7629L19.5711 44.3219H5.99322L1.21897 49.1226H1.18511Z" fill="#22AC38"/>
<path d="M14.9323 34.8896H0.338623L5.82393 29.4465H20.3837L14.9323 34.8896Z" fill="#AFD69A"/>
<path d="M20.4176 43.9838L14.9323 49.4269V34.8896L20.4176 29.4127V43.9838Z" fill="#80C269"/>
<path d="M14.8984 34.8895H0.338623V49.4268H14.8984V34.8895Z" fill="#95CB7E"/>
<path d="M14.9322 49.7649H0.338599C0.13544 49.7649 0 49.6297 0 49.4268V34.8895C0 34.8895 0.10158 34.6191 0.20316 34.5852L5.55303 29.2098C5.55303 29.2098 5.68847 29.1084 5.79005 29.1084H20.2821C20.2821 29.1084 20.4175 29.1084 20.5191 29.1084C20.6546 29.176 20.7223 29.2774 20.7223 29.4127V43.9838C20.7223 43.9838 20.7223 44.1528 20.6207 44.2204L15.1354 49.6635C15.1354 49.6635 15 49.7649 14.8984 49.7649H14.9322ZM0.677199 49.0888H14.5598V35.2276H0.677199V49.0888ZM15.2708 35.0247V48.6154L20.0789 43.8148V30.2241L15.2708 35.0247ZM1.1851 34.5514H14.7629L19.571 29.7507H5.95935L1.1851 34.5514Z" fill="#22AC38"/>
<path d="M14.9323 20.3522H0.338623L5.82393 14.9092H20.3837L14.9323 20.3522Z" fill="#AFD69A"/>
<path d="M20.4176 29.4465L14.9323 34.8895V20.3522L20.4176 14.8754V29.4465Z" fill="#80C269"/>
<path d="M14.8984 20.3523H0.338623V34.8896H14.8984V20.3523Z" fill="#95CB7E"/>
<path d="M14.9322 35.2277H0.338599C0.13544 35.2277 0 35.0924 0 34.8896V20.3523C0 20.3523 0.10158 20.0818 0.20316 20.048L5.55303 14.6726C5.55303 14.6726 5.68847 14.5712 5.79005 14.5712H20.2821C20.2821 14.5712 20.4175 14.5712 20.5191 14.5712C20.6546 14.6388 20.7223 14.7402 20.7223 14.8754V29.4466C20.7223 29.4466 20.7223 29.6156 20.6207 29.6832L15.1354 35.1263C15.1354 35.1263 15 35.2277 14.8984 35.2277H14.9322ZM0.677199 34.5515H14.5598V20.6904H0.677199V34.5515ZM15.2708 20.4875V34.0782L20.0789 29.2775V15.6868L15.2708 20.4875ZM1.1851 20.0142H14.7629L19.571 15.2135H5.95935L1.1851 20.0142Z" fill="#22AC38"/>
<path d="M14.9323 5.81498H0.338623L5.82393 0.338135H20.3837L14.9323 5.81498Z" fill="#AFD69A"/>
<path d="M20.3837 14.9093L14.8984 20.3523V5.81498L20.3837 0.338135V14.9093Z" fill="#80C269"/>
<path d="M14.8984 5.81494H0.338623V20.3523H14.8984V5.81494Z" fill="#95CB7E"/>
<path d="M14.8984 20.6903H0.338599C0.13544 20.6903 0 20.5551 0 20.3522V5.81493C0 5.81493 0.10158 5.54446 0.20316 5.51066L5.58689 0.101423C5.58689 0.101423 5.72233 0 5.82391 0H20.316C20.316 0 20.4514 0 20.553 0C20.6884 0.0676154 20.7561 0.169039 20.7561 0.304269V14.8754C20.7561 14.8754 20.7561 15.0444 20.6546 15.112L15.1693 20.5551C15.1693 20.5551 15.0338 20.6565 14.9322 20.6565L14.8984 20.6903ZM0.677199 20.0142H14.5598V6.153H0.677199V20.0142ZM15.237 5.95016V19.5409L20.0451 14.7402V1.14946L15.237 5.95016ZM1.1851 5.47685H14.7629L19.571 0.676154H5.95935L1.1851 5.47685Z" fill="#22AC38"/>
</g>
<defs>
<clipPath id="clip0_191_15838">
<rect width="20.79" height="151.594" fill="white"/>
</clipPath>
</defs>
</svg>
