<svg width="21" height="153" viewBox="0 0 21 153" fill="none" xmlns="http://www.w3.org/2000/svg">
<path d="M15.1994 137.987H0.580078L6.07506 132.459H20.6266L15.1994 137.987Z" fill="#D3DEF1"/>
<path d="M20.661 147.131L15.166 152.659V137.987L20.661 132.459V147.131Z" fill="#187FC4"/>
<path d="M15.1655 137.952H0.580078V152.625H15.1655V137.952Z" fill="#A3BCE2"/>
<path d="M15.1656 153H0.546228C0.342711 153 0.207031 152.864 0.207031 152.659V137.987C0.207031 137.987 0.308791 137.714 0.41055 137.68L5.76985 132.254C5.76985 132.254 5.90552 132.152 6.00728 132.152H20.5249C20.5249 132.152 20.6605 132.152 20.7623 132.152C20.898 132.22 20.9658 132.322 20.9658 132.459V147.165C20.9658 147.165 20.9319 147.336 20.8641 147.404L15.3691 152.898C15.3691 152.898 15.2334 153 15.1317 153H15.1656ZM0.919343 152.318H14.8264V138.328H0.919343V152.318ZM15.5048 138.089V151.806L20.3214 146.995V133.278L15.5048 138.123V138.089ZM1.42814 137.645H15.0299L19.8465 132.8H6.2108L1.42814 137.645Z" fill="#0068B7"/>
<path d="M15.1994 123.28H0.580078L6.07506 117.787H20.6266L15.1994 123.28Z" fill="#D3DEF1"/>
<path d="M20.661 132.459L15.166 137.987V123.28L20.661 117.753V132.459Z" fill="#187FC4"/>
<path d="M15.1655 123.28H0.580078V137.952H15.1655V123.28Z" fill="#A3BCE2"/>
<path d="M15.1656 138.328H0.546228C0.342711 138.328 0.207031 138.191 0.207031 137.987V123.314C0.207031 123.314 0.308791 123.042 0.41055 123.007L5.76985 117.582C5.76985 117.582 5.90552 117.48 6.00728 117.48H20.5249C20.5249 117.48 20.6605 117.48 20.7623 117.48C20.898 117.548 20.9658 117.65 20.9658 117.787V132.493C20.9658 132.493 20.9319 132.664 20.8641 132.732L15.3691 138.225C15.3691 138.225 15.2334 138.328 15.1317 138.328H15.1656ZM0.919343 137.645H14.8264V123.656H0.919343V137.645ZM15.5048 123.417V137.134L20.3214 132.323V118.606L15.5048 123.451V123.417ZM1.42814 122.939H15.0299L19.8465 118.094H6.2108L1.42814 122.939Z" fill="#0068B7"/>
<path d="M15.1994 108.608H0.580078L6.07506 103.115H20.6266L15.1994 108.608Z" fill="#D3DEF1"/>
<path d="M20.661 117.787L15.166 123.28V108.608L20.661 103.081V117.787Z" fill="#187FC4"/>
<path d="M15.1655 108.608H0.580078V123.28H15.1655V108.608Z" fill="#A3BCE2"/>
<path d="M15.1656 123.622H0.546228C0.342711 123.622 0.207031 123.485 0.207031 123.28V108.608C0.207031 108.608 0.308791 108.335 0.41055 108.301L5.76985 102.876C5.76985 102.876 5.90552 102.773 6.00728 102.773H20.5249C20.5249 102.773 20.6605 102.773 20.7623 102.773C20.898 102.842 20.9658 102.944 20.9658 103.081V117.787C20.9658 117.787 20.9319 117.957 20.8641 118.026L15.3691 123.519C15.3691 123.519 15.2334 123.622 15.1317 123.622H15.1656ZM0.919343 122.939H14.8264V108.949H0.919343V122.939ZM15.5048 108.745V122.461L20.3214 117.65V103.934L15.5048 108.779V108.745ZM1.42814 108.267H15.0299L19.8465 103.422H6.2108L1.42814 108.267Z" fill="#0068B7"/>
<path d="M15.1994 93.9359H0.580078L6.07506 88.4424H20.6266L15.1994 93.9359Z" fill="#D3DEF1"/>
<path d="M20.661 103.115L15.166 108.608V93.9361L20.661 88.4084V103.115Z" fill="#187FC4"/>
<path d="M15.1655 93.936H0.580078V108.608H15.1655V93.936Z" fill="#A3BCE2"/>
<path d="M15.1656 108.949H0.546228C0.342711 108.949 0.207031 108.813 0.207031 108.608V93.9361C0.207031 93.9361 0.308791 93.6631 0.41055 93.629L5.76985 88.2037C5.76985 88.2037 5.90552 88.1013 6.00728 88.1013H20.5249C20.5249 88.1013 20.6605 88.1013 20.7623 88.1013C20.898 88.1696 20.9658 88.2719 20.9658 88.4084V103.115C20.9658 103.115 20.9319 103.285 20.8641 103.354L15.3691 108.847C15.3691 108.847 15.2334 108.949 15.1317 108.949H15.1656ZM0.919343 108.267H14.8264V94.2773H0.919343V108.267ZM15.5048 94.0725V107.789L20.3214 102.978V89.2614L15.5048 94.1067V94.0725ZM1.42814 93.5949H15.0299L19.8465 88.7496H6.2108L1.42814 93.5949Z" fill="#0068B7"/>
<path d="M15.1994 79.2637H0.580078L6.07506 73.7361H20.6266L15.1994 79.2637Z" fill="#D3DEF1"/>
<path d="M20.661 88.4424L15.166 93.9359V79.2637L20.661 73.7361V88.4424Z" fill="#187FC4"/>
<path d="M15.1655 79.2639H0.580078V93.9361H15.1655V79.2639Z" fill="#A3BCE2"/>
<path d="M15.1656 94.2773H0.546228C0.342711 94.2773 0.207031 94.1408 0.207031 93.9361V79.2639C0.207031 79.2639 0.308791 78.991 0.41055 78.9568L5.76985 73.5316C5.76985 73.5316 5.90552 73.4292 6.00728 73.4292H20.5249C20.5249 73.4292 20.6605 73.4292 20.7623 73.4292C20.898 73.4974 20.9658 73.5998 20.9658 73.7363V88.4426C20.9658 88.4426 20.9319 88.6132 20.8641 88.6814L15.3691 94.175C15.3691 94.175 15.2334 94.2773 15.1317 94.2773H15.1656ZM0.919343 93.5949H14.8264V79.6052H0.919343V93.5949ZM15.5048 79.3663V93.0831L20.3214 88.272V74.5552L15.5048 79.4004V79.3663ZM1.42814 78.9227H15.0299L19.8465 74.0775H6.2108L1.42814 78.9227Z" fill="#0068B7"/>
<path d="M15.1994 64.5916H0.580078L6.07506 59.064H20.6266L15.1994 64.5916Z" fill="#D3DEF1"/>
<path d="M20.661 73.7361L15.166 79.2638V64.5916L20.661 59.064V73.7361Z" fill="#187FC4"/>
<path d="M15.1655 64.5576H0.580078V79.2298H15.1655V64.5576Z" fill="#A3BCE2"/>
<path d="M15.1656 79.605H0.546228C0.342711 79.605 0.207031 79.4685 0.207031 79.2637V64.5916C0.207031 64.5916 0.308791 64.3186 0.41055 64.2845L5.76985 58.8592C5.76985 58.8592 5.90552 58.7568 6.00728 58.7568H20.5249C20.5249 58.7568 20.6605 58.7568 20.7623 58.7568C20.898 58.8251 20.9658 58.9274 20.9658 59.0639V73.7702C20.9658 73.7702 20.9319 73.9408 20.8641 74.0091L15.3691 79.5026C15.3691 79.5026 15.2334 79.605 15.1317 79.605H15.1656ZM0.919343 78.9225H14.8264V64.9328H0.919343V78.9225ZM15.5048 64.6939V78.4107L20.3214 73.5996V59.8828L15.5048 64.7281V64.6939ZM1.42814 64.2504H15.0299L19.8465 59.4051H6.2108L1.42814 64.2504Z" fill="#0068B7"/>
<path d="M15.1994 49.9195H0.580078L6.07506 44.3918H20.6266L15.1994 49.9195Z" fill="#D3DEF1"/>
<path d="M20.661 59.064L15.166 64.5917V49.8854L20.661 44.3918V59.064Z" fill="#187FC4"/>
<path d="M15.1655 49.8853H0.580078V64.5574H15.1655V49.8853Z" fill="#A3BCE2"/>
<path d="M15.1656 64.9328H0.546228C0.342711 64.9328 0.207031 64.7964 0.207031 64.5916V49.9195C0.207031 49.9195 0.308791 49.6465 0.41055 49.6124L5.76985 44.1871C5.76985 44.1871 5.90552 44.0847 6.00728 44.0847H20.5249C20.5249 44.0847 20.6605 44.0847 20.7623 44.0847C20.898 44.153 20.9658 44.2553 20.9658 44.3918V59.0981C20.9658 59.0981 20.9319 59.2687 20.8641 59.3369L15.3691 64.8305C15.3691 64.8305 15.2334 64.9328 15.1317 64.9328H15.1656ZM0.919343 64.2504H14.8264V50.2607H0.919343V64.2504ZM15.5048 50.0218V63.7386L20.3214 58.9275V45.2107L15.5048 50.0559V50.0218ZM1.42814 49.5782H15.0299L19.8465 44.733H6.2108L1.42814 49.5782Z" fill="#0068B7"/>
<path d="M15.1994 35.2133H0.580078L6.07506 29.7197H20.6266L15.1994 35.2133Z" fill="#D3DEF1"/>
<path d="M20.661 44.3918L15.166 49.8854V35.2132L20.661 29.6855V44.3918Z" fill="#187FC4"/>
<path d="M15.1655 35.2131H0.580078V49.8853H15.1655V35.2131Z" fill="#A3BCE2"/>
<path d="M15.1656 50.2265H0.546228C0.342711 50.2265 0.207031 50.0901 0.207031 49.8853V35.2132C0.207031 35.2132 0.308791 34.9402 0.41055 34.9061L5.76985 29.4808C5.76985 29.4808 5.90552 29.3784 6.00728 29.3784H20.5249C20.5249 29.3784 20.6605 29.3784 20.7623 29.3784C20.898 29.4467 20.9658 29.549 20.9658 29.6855V44.3918C20.9658 44.3918 20.9319 44.5624 20.8641 44.6306L15.3691 50.1242C15.3691 50.1242 15.2334 50.2265 15.1317 50.2265H15.1656ZM0.919343 49.5441H14.8264V35.5544H0.919343V49.5441ZM15.5048 35.3496V49.0664L20.3214 44.2553V30.5385L15.5048 35.3838V35.3496ZM1.42814 34.872H15.0299L19.8465 30.0267H6.2108L1.42814 34.872Z" fill="#0068B7"/>
<path d="M15.1994 20.5411H0.580078L6.07506 15.0476H20.6266L15.1994 20.5411Z" fill="#D3DEF1"/>
<path d="M20.661 29.7197L15.166 35.2132V20.5411L20.661 15.0134V29.7197Z" fill="#187FC4"/>
<path d="M15.1655 20.541H0.580078V35.2132H15.1655V20.541Z" fill="#A3BCE2"/>
<path d="M15.1656 35.5544H0.546228C0.342711 35.5544 0.207031 35.4179 0.207031 35.2132V20.541C0.207031 20.541 0.308791 20.2681 0.41055 20.234L5.76985 14.8087C5.76985 14.8087 5.90552 14.7063 6.00728 14.7063H20.5249C20.5249 14.7063 20.6605 14.7063 20.7623 14.7063C20.898 14.7745 20.9658 14.8769 20.9658 15.0134V29.7197C20.9658 29.7197 20.9319 29.8903 20.8641 29.9585L15.3691 35.4521C15.3691 35.4521 15.2334 35.5544 15.1317 35.5544H15.1656ZM0.919343 34.872H14.8264V20.8823H0.919343V34.872ZM15.5048 20.6775V34.3943L20.3214 29.5832V15.8664L15.5048 20.7117V20.6775ZM1.42814 20.1998H15.0299L19.8465 15.3546H6.2108L1.42814 20.1998Z" fill="#0068B7"/>
<path d="M15.1994 5.86896H0.580078L6.07506 0.341309H20.6266L15.1994 5.86896Z" fill="#D3DEF1"/>
<path d="M20.661 15.0476L15.166 20.5411V5.86896L20.661 0.341309V15.0476Z" fill="#187FC4"/>
<path d="M15.1655 5.8689H0.580078V20.5411H15.1655V5.8689Z" fill="#A3BCE2"/>
<path d="M15.1656 20.8822H0.546228C0.342711 20.8822 0.207031 20.7458 0.207031 20.541V5.86887C0.207031 5.86887 0.308791 5.5959 0.41055 5.56177L5.80376 0.102364C5.80376 0.102364 5.93944 0 6.0412 0H20.5588C20.5588 0 20.6945 0 20.7962 0C20.9319 0.0682426 20.9997 0.170607 20.9997 0.307092V15.0134C20.9997 15.0134 20.9658 15.184 20.898 15.2522L15.403 20.7458C15.403 20.7458 15.2673 20.8481 15.1656 20.8481V20.8822ZM0.919343 20.1998H14.8264V6.21008H0.919343V20.1998ZM15.5048 6.00535V19.7221L20.3214 14.911V1.16012L15.5048 6.00535ZM1.42814 5.52765H15.0299L19.8465 0.682426H6.2108L1.42814 5.52765Z" fill="#0068B7"/>
</svg>
