<svg width="21" height="21" viewBox="0 0 21 21" fill="none" xmlns="http://www.w3.org/2000/svg">
<g clip-path="url(#clip0_191_15921)">
<path d="M14.9566 5.83337H0.339142L5.8334 0.339111H20.4169L14.9566 5.83337Z" fill="#AFD69A"/>
<path d="M20.4509 14.9565L14.9566 20.4169V5.83337L20.4509 0.339111V14.9565Z" fill="#80C269"/>
<path d="M14.9227 5.83337H0.339142V20.4169H14.9227V5.83337Z" fill="#95CB7E"/>
<path d="M14.9566 20.7561H0.339152C0.135661 20.7561 0 20.6204 0 20.4169V5.83341C0 5.83341 0.101746 5.56209 0.203491 5.52817L5.596 0.101746C5.596 0.101746 5.73166 0 5.83341 0H20.3491C20.3491 0 20.4848 0 20.5865 0C20.7222 0.0678303 20.79 0.169576 20.79 0.305237V14.9227C20.79 14.9227 20.79 15.0923 20.6883 15.1601L15.194 20.6204C15.194 20.6204 15.0583 20.7222 14.9566 20.7222V20.7561ZM0.678303 20.0778H14.6174V6.17256H0.678303V20.0778ZM15.2957 5.93515V19.603L20.1117 14.787V1.15312L15.2957 5.93515ZM1.18703 5.49426H14.787L19.603 0.678303H5.96907L1.18703 5.49426Z" fill="#22AC38"/>
</g>
<defs>
<clipPath id="clip0_191_15921">
<rect width="20.79" height="20.7561" fill="white"/>
</clipPath>
</defs>
</svg>
