<svg width="22" height="38" viewBox="0 0 22 38" fill="none" xmlns="http://www.w3.org/2000/svg">
<path d="M8.90349 0.120208C-0.259735 -0.0790486 -0.279708 0.060426 0.159488 9.24613C0.219378 10.6609 -0.239782 12.6933 1.93623 12.5737C4.0324 12.4542 3.37359 10.362 3.45345 9.02695C3.81279 3.40793 5.68938 3.14889 9.84178 3.14889C11.3191 3.14889 12.4969 3.28837 13.8145 3.14889C16.9887 2.83008 17.2881 4.02563 16.4896 6.87499C13.9343 15.8614 11.7383 24.9276 9.34269 33.9738C8.98335 35.3288 8.54415 36.7435 10.241 37.2815C12.1376 37.8792 12.3372 36.0062 12.6766 34.9103C13.5949 31.9215 14.1139 28.833 15.0722 25.8641C17.5477 18.3123 18.3063 10.2623 21.9795 3.0692V1.09656C19.3044 -0.118904 13.2555 0.239758 8.88351 0.14013L8.90349 0.120208Z" fill="#E00900"/>
</svg>
