<svg width="38" height="40" viewBox="0 0 38 40" fill="none" xmlns="http://www.w3.org/2000/svg">
<path d="M35.2682 35.4898C31.0159 35.4699 26.7637 35.4898 21.1141 35.4898C23.1703 33.2582 24.2284 32.0427 25.3463 30.887C29.878 26.2842 34.27 21.6216 35.8471 15.0661C37.2845 9.12823 33.9506 2.37346 28.7601 1.03844C22.3718 -0.595458 16.1032 2.83174 14.3465 9.06846C13.9472 10.5031 12.969 12.4957 15.3047 13.213C17.4009 13.8506 17.4807 11.878 17.9998 10.5828C18.419 9.52675 18.7584 8.41092 19.3174 7.43456C21.0142 4.5055 23.7093 3.38966 26.9234 4.16676C30.1575 4.94386 31.8344 7.29508 32.1938 10.5629C32.5332 13.6115 31.7945 16.4011 30.2773 19.0313C27.3427 24.1322 23.2502 28.1572 18.7983 31.9032C16.3827 33.9356 13.9671 35.988 10.6133 38.8174C19.7565 38.8174 27.5223 38.8174 35.2881 38.8174C36.6456 38.8174 37.7037 38.2993 37.7835 37.0042C37.8834 35.3304 36.4061 35.45 35.2682 35.45V35.4898Z" fill="#E00900"/>
<path d="M4.3443 4.16648C4.3443 2.63221 4.34431 1.01823 2.24815 0.958456C-0.0676156 0.898679 0.271752 2.73183 0.271752 4.14655C0.251789 14.8466 0.251789 25.5467 0.271752 36.2467C0.271752 37.6415 -0.107545 39.5743 2.16829 39.4946C4.04485 39.4348 4.38423 37.9205 4.36427 36.2866C4.32434 30.8469 4.36427 25.4271 4.36427 19.9874C4.36427 14.7271 4.36427 9.44676 4.36427 4.1864L4.3443 4.16648Z" fill="#E00900"/>
</svg>
