<svg width="26" height="39" viewBox="0 0 26 39" fill="none" xmlns="http://www.w3.org/2000/svg">
<path d="M17.7198 14.0546C19.0973 13.2974 20.2152 11.8827 22.1118 12.4008C25.5056 13.3373 25.5654 11.3248 24.5074 9.25252C22.4511 5.18769 19.4766 1.74057 14.905 0.584881C10.6527 -0.491102 6.56025 0.485252 3.965 4.35082C1.98861 7.29981 1.58935 10.9861 4.6238 13.1978C8.65641 16.1269 7.03938 17.6611 4.44413 20.3511C-2.76268 27.7634 -0.626588 35.4149 9.2154 38.5432C9.51485 38.6428 9.79431 38.8421 10.0938 39.0015C10.0938 39.0015 10.2735 39.0015 10.3733 39.0015C12.17 39.0015 13.9867 38.9815 15.7834 38.9616H16.1028C20.7143 37.7462 24.3078 35.4148 24.9865 30.3139C25.6653 25.3325 22.9103 21.9252 19.2969 18.9961C18.7779 18.5777 18.2389 18.1991 17.6799 17.8604C15.3841 16.5652 15.4839 15.2701 17.6999 14.0347L17.7198 14.0546ZM3.965 28.68C3.965 25.3524 9.71449 18.6375 12.4295 18.7371C15.5837 18.8567 21.5528 25.3923 21.6127 28.7996C21.6726 32.685 17.8795 35.7934 13.0683 35.8134C8.07747 35.8134 3.965 32.5854 3.965 28.68ZM11.9504 3.75306C15.0447 3.95232 17.8196 4.86889 19.1173 7.99721C19.5165 8.97357 12.4495 14.3734 11.2317 13.8753C8.55659 12.7594 6.20089 11.0458 6.32067 7.77803C6.46042 4.29105 8.99579 3.65343 11.9504 3.75306Z" fill="#E00900"/>
</svg>
