<svg width="27" height="40" viewBox="0 0 27 40" fill="none" xmlns="http://www.w3.org/2000/svg">
<path d="M23.9179 27.9934C21.1429 28.2723 20.5041 26.9573 20.6039 24.5263C20.7437 21.2386 20.6239 17.931 20.6439 14.6233C20.6439 13.0691 20.544 11.4352 18.4479 11.495C16.5314 11.5548 16.751 13.1887 16.751 14.4639C16.711 17.2734 16.5114 20.1028 16.7909 22.8725C16.9905 24.9448 16.751 26.4392 15.9724 27.296C15.1938 28.1528 13.8762 28.3919 11.9797 27.9336C5.71118 27.9336 5.65129 27.9336 7.96705 22.8127C10.8019 16.5162 13.7764 10.2994 16.5913 3.98303C17.0504 2.96682 18.5477 1.6318 16.8109 0.555822C15.0541 -0.500236 14.1158 0.755078 13.437 2.22957C9.3645 11.0168 5.27198 19.804 1.19944 28.6111C0.301081 30.5638 0.70035 31.7394 3.19578 31.6796C6.17034 31.5999 9.18483 31.8191 12.1394 31.6198C15.2936 31.4206 17.31 31.9984 16.7909 35.8242C16.6112 37.1592 16.212 39.1916 18.4479 39.2713C20.9034 39.351 20.7636 37.2986 20.6039 35.6847C20.3444 32.9349 20.8634 31.1616 24.2373 31.5999C25.5349 31.7593 27.0322 31.5003 26.9124 29.5675C26.7926 27.5152 25.0757 27.8539 23.9179 27.9735V27.9934Z" fill="#6744F3"/>
</svg>
