<svg width="27" height="39" viewBox="0 0 27 39" fill="none" xmlns="http://www.w3.org/2000/svg">
<path d="M23.1119 34.6258C19.219 34.5461 15.3461 34.6059 10.475 34.6059C13.7091 31.1986 16.2245 28.668 18.6002 26.0179C21.6945 22.5509 24.2299 18.7849 25.0484 14.0227C26.1264 7.74614 23.1518 2.00756 17.8815 0.57292C11.2736 -1.22039 5.72372 1.74853 3.46785 8.34391C2.92884 9.91803 1.4715 11.8907 4.32628 12.7475C7.00138 13.5644 6.64204 11.0538 7.18106 9.77855C9.23729 4.77722 12.4913 2.66511 16.4241 3.94034C20.0575 5.11596 22.1337 9.34019 21.1155 13.664C20.856 14.76 20.337 15.816 19.8778 16.8721C17.063 23.4674 11.6329 27.8112 6.48234 32.434C4.54588 34.1675 1.73103 35.1837 0.712891 38.3718C8.55853 38.3718 15.9849 38.3917 23.4313 38.3718C24.8088 38.3718 26.7852 38.9098 26.8051 36.6383C26.8251 34.028 24.6291 34.6856 23.1119 34.6656V34.6258Z" fill="#040000"/>
</svg>
