<svg width="28" height="39" viewBox="0 0 28 39" fill="none" xmlns="http://www.w3.org/2000/svg">
<path d="M25.4138 0.0863361C23.5572 -0.0132919 23.0981 1.58075 23.0781 3.19473C23.0781 14.0343 23.0781 24.8738 23.0781 35.6934C23.0781 37.0882 23.1979 38.5627 24.8549 38.6823C26.9111 38.8417 27.0508 37.2277 27.0508 35.6535C27.0508 30.2338 27.0508 24.814 27.0508 19.3943C27.0508 13.9745 27.0508 8.55472 27.0508 3.13495C27.0508 1.78001 27.0708 0.166034 25.4138 0.0664062V0.0863361Z" fill="#6744F3"/>
<path d="M2.51733 0.0859375C0.780511 0.16564 0.740586 1.75969 0.740586 3.09471C0.720622 8.5344 0.740586 13.9741 0.740586 19.4138C0.740586 24.8535 0.720622 30.2932 0.740586 35.7329C0.740586 36.9682 0.461101 38.7018 2.39756 38.7018C3.91478 38.7018 4.69336 37.4664 4.69336 35.9919C4.71332 24.9531 4.73328 13.9143 4.69336 2.87553C4.69336 1.52058 4.1743 0.0261649 2.51733 0.105867V0.0859375Z" fill="#6744F3"/>
</svg>
