<svg width="25" height="39" viewBox="0 0 25 39" fill="none" xmlns="http://www.w3.org/2000/svg">
<path d="M22.0255 2.78214C20.9874 2.96147 20.2288 3.0611 19.3903 2.46333C10.2471 -3.87301 0.20543 4.97395 0.0457226 13.9604C-0.0940216 22.0104 5.09649 25.9756 12.9421 23.445C13.6808 23.2059 14.3995 22.9668 15.4775 22.6081C15.3378 27.3504 13.4412 31.3953 12.5029 35.6594C12.2035 37.0343 12.1436 38.4888 13.8604 38.8076C15.3178 39.0866 15.7769 37.7117 16.0764 36.6158C18.8713 26.3541 21.6262 16.0725 24.3812 5.81084C24.9202 3.79835 24.3213 2.38362 22.0455 2.78214H22.0255ZM18.5119 9.81587C18.3323 15.8932 14.0601 20.4163 9.10915 20.4163C4.89686 20.4163 3.73898 17.6068 3.6192 14.2991C3.41956 9.11848 8.23074 3.85812 12.8623 4.01753C16.815 4.15701 19.031 6.06986 18.5119 9.81587Z" fill="#040000"/>
</svg>
