<svg width="24" height="38" viewBox="0 0 24 38" fill="none" xmlns="http://www.w3.org/2000/svg">
<path d="M16.6419 37.0088C22.1917 34.279 25.1263 26.6076 22.9304 20.4706C20.9141 14.7918 16.1029 11.7033 10.014 13.5564C5.08303 15.0508 5.64202 12.7793 5.34256 9.49154C4.90337 4.68947 7 3.57363 11.3516 3.57363C13.9668 3.91237 16.6419 3.63341 19.297 3.63341C20.5148 3.63341 21.7126 3.57364 21.5729 1.86003C21.4731 0.505091 20.4549 0.445312 19.4368 0.445312C16.9413 0.445312 14.4659 0.445312 11.9704 0.445312C2.5 0.445312 1.86894 3.73968 1.86894 10.3284C1.86894 11.6435 1.86894 12.9586 1.86894 14.2936C1.86894 18.4647 3.72553 19.5606 7.43873 17.5813C12.8289 14.6921 17.7 16.2463 19.6165 21.4668C21.2135 25.8106 19.5965 31.4296 15.9033 33.7211C11.2917 36.5904 7.81803 34.0598 4.40428 31.1706C3.56581 30.4533 2.98687 28.4806 1.30994 29.9153C0.152057 30.8916 0.73102 31.9079 1.48963 32.944C4.52408 37.1881 12.0703 39.2604 16.6219 37.0287L16.6419 37.0088Z" fill="#E00900"/>
</svg>
