<svg width="38" height="40" viewBox="0 0 38 40" fill="none" xmlns="http://www.w3.org/2000/svg">
<path d="M25.5489 0.590242C21.0572 0.490614 18.0028 2.54294 16.0064 6.36866C13.7905 10.573 13.2914 15.116 13.5509 19.8782C13.2714 24.6006 13.8504 29.303 16.246 33.587C18.2623 37.1737 21.4165 39.0467 25.5689 38.8873C29.7413 38.7278 32.8955 36.556 34.4527 32.8299C38.1259 24.1423 38.1459 15.2754 34.4527 6.58784C32.8756 2.88168 29.901 0.669941 25.5689 0.570312L25.5489 0.590242ZM33.5743 19.8782C33.734 23.8634 33.195 27.7488 31.4581 31.3554C30.1605 34.0453 28.1841 35.6195 24.8502 35.5198C21.696 35.4401 19.8993 33.8859 18.8612 31.2757C15.7868 23.4848 15.7469 15.654 19.0209 7.92287C20.0989 5.39232 22.1152 3.69863 25.1497 3.6787C28.2241 3.63885 30.1006 5.55171 31.2984 7.94278C33.155 11.6489 33.7939 15.7138 33.5743 19.8583V19.8782Z" fill="#E00900"/>
<path d="M4.66806 20.0768C4.66806 14.7965 4.66806 9.53614 4.66806 4.25585C4.66806 2.72158 4.66804 0.988057 2.65173 1.00798C0.595493 1.00798 0.695318 2.78137 0.695318 4.29571C0.695318 14.8364 0.695307 25.377 0.715271 35.9176C0.715271 37.2925 0.276091 39.2652 2.57189 39.1655C4.44845 39.0659 4.68802 37.5117 4.66806 35.8977C4.62813 30.6174 4.66806 25.3571 4.66806 20.0768Z" fill="#E00900"/>
</svg>
