<svg width="26" height="40" viewBox="0 0 26 40" fill="none" xmlns="http://www.w3.org/2000/svg">
<path d="M12.7688 39.3756C18.159 39.6944 22.2315 37.2236 24.1879 32.5212C26.7632 26.3044 24.148 21.8012 19.257 18.1349C23.7088 13.552 25.0264 9.68642 23.1898 5.74115C21.5528 2.19439 18.1789 0.859375 14.6254 0.859375C9.99392 0.859375 6.48034 3.27037 4.38418 7.47468C3.90506 8.41118 2.88693 9.54694 4.40415 10.4037C5.76166 11.1808 6.91955 10.9617 7.47852 9.24806C7.67816 8.65029 8.15728 8.13222 8.53658 7.59423C10.7725 4.50576 13.787 3.76851 17.2806 4.96405C19.9357 5.8607 20.6344 7.99274 20.1953 10.5432C19.5365 14.3291 16.7416 15.4051 13.3278 15.6641C11.4912 15.8036 8.99575 15.0464 9.15546 18.3142C9.29521 21.2034 11.571 20.4463 13.228 20.5857C16.8813 20.8846 20.1753 21.7215 21.2533 25.8062C22.1716 29.2932 21.393 32.3618 18.3586 34.5536C14.8051 37.1041 11.1718 36.6657 7.85783 34.175C6.1809 32.8998 4.9232 31.0865 3.54572 29.4526C2.76714 28.536 1.94865 28.2969 1.01037 28.9943C0.271719 29.5323 0.25176 30.3094 0.531248 31.1862C1.6492 34.7329 8.11735 39.1365 12.7289 39.3955L12.7688 39.3756Z" fill="#040000"/>
</svg>
