<svg width="23" height="40" viewBox="0 0 23 40" fill="none" xmlns="http://www.w3.org/2000/svg">
<path d="M8.16313 13.7333C10.2393 10.1069 11.9961 6.97855 13.8327 3.91001C14.5315 2.75432 15.5895 1.53886 14.1122 0.502725C12.4752 -0.652961 11.4172 0.502732 10.6386 1.9573C7.84372 7.15789 5.04884 12.3585 2.21403 17.5591C0.0579718 21.5043 -0.161645 25.7684 0.417296 30.0325C1.05613 34.6353 3.5316 38.0227 8.40268 38.8595C13.1939 39.6964 17.3264 38.461 19.9017 34.0176C25.4315 24.4732 19.9017 14.1916 8.14318 13.7333H8.16313ZM10.6586 35.5519C6.40634 35.4921 3.85103 32.3239 3.77117 27.0237C3.67136 21.3051 6.34645 17.579 10.7184 17.3399C15.1104 17.1008 18.0051 20.3885 18.2047 25.868C18.4044 31.4273 15.1503 35.6117 10.6785 35.5519H10.6586Z" fill="#040000"/>
</svg>
