<svg width="24" height="24" viewBox="0 0 24 24" fill="none" xmlns="http://www.w3.org/2000/svg">
<path d="M12.1123 0.571289C12.6069 0.571289 13.0432 0.702198 13.4214 0.964017C13.8287 1.22583 14.0323 1.64765 14.0323 2.22947V9.99675H21.756C22.2505 9.99675 22.6141 10.1713 22.8469 10.5204C23.1087 10.8404 23.2396 11.2477 23.2396 11.7422C23.2396 12.2367 23.1087 12.6586 22.8469 13.0077C22.6141 13.3567 22.2505 13.5313 21.756 13.5313H14.0323V21.9531C14.0323 22.5349 13.8287 22.9568 13.4214 23.2186C13.0432 23.4804 12.6069 23.6113 12.1123 23.6113C11.6178 23.6113 11.1669 23.4804 10.7596 23.2186C10.3523 22.9568 10.1487 22.5349 10.1487 21.9531V13.5313H2.42504C1.9305 13.5313 1.55232 13.3567 1.2905 13.0077C1.05777 12.6586 0.941406 12.2367 0.941406 11.7422C0.941406 11.2477 1.05777 10.8404 1.2905 10.5204C1.55232 10.1713 1.9305 9.99675 2.42504 9.99675H10.1487V2.22947C10.1487 1.64765 10.3523 1.22583 10.7596 0.964017C11.1669 0.702198 11.6178 0.571289 12.1123 0.571289Z" fill="black"/>
</svg>
