<svg width="21" height="153" viewBox="0 0 21 153" fill="none" xmlns="http://www.w3.org/2000/svg">
<path d="M15.1633 137.987H0.457031L5.98469 132.459H20.6569L15.1633 137.987Z" fill="#AFD69A"/>
<path d="M20.6839 147.132L15.1562 152.659V137.953L20.6839 132.459V147.132Z" fill="#80C269"/>
<path d="M15.1292 137.953H0.457031V152.625H15.1292V137.953Z" fill="#95CB7E"/>
<path d="M15.1608 153H0.454489C0.249761 153 0.113281 152.864 0.113281 152.659V137.987C0.113281 137.987 0.215643 137.714 0.318007 137.68L5.70918 132.254C5.70918 132.254 5.84566 132.152 5.94803 132.152H20.552C20.552 132.152 20.6884 132.152 20.7908 132.152C20.9273 132.22 20.9955 132.322 20.9955 132.459V147.165C20.9955 147.165 20.9955 147.336 20.8932 147.404L15.3655 152.898C15.3655 152.898 15.229 153 15.1267 153H15.1608ZM0.795704 152.318H14.7855V138.328H0.795704V152.318ZM15.502 138.089V151.806L20.3472 146.961V133.244L15.502 138.089ZM1.30752 137.645H14.9902L19.8354 132.8H6.11863L1.30752 137.645Z" fill="#22AC38"/>
<path d="M15.1633 123.28H0.457031L5.98469 117.787H20.6569L15.1633 123.28Z" fill="#AFD69A"/>
<path d="M20.6839 132.459L15.1562 137.986V123.28L20.6839 117.752V132.459Z" fill="#80C269"/>
<path d="M15.1292 123.28H0.457031V137.952H15.1292V123.28Z" fill="#95CB7E"/>
<path d="M15.1608 138.294H0.454489C0.249761 138.294 0.113281 138.157 0.113281 137.953V123.281C0.113281 123.281 0.215643 123.008 0.318007 122.973L5.70918 117.548C5.70918 117.548 5.84566 117.446 5.94803 117.446H20.552C20.552 117.446 20.6884 117.446 20.7908 117.446C20.9273 117.514 20.9955 117.616 20.9955 117.753V132.459C20.9955 132.459 20.9955 132.63 20.8932 132.698L15.3655 138.192C15.3655 138.192 15.229 138.294 15.1267 138.294H15.1608ZM0.795704 137.646H14.7855V123.656H0.795704V137.646ZM15.502 123.417V137.134L20.3472 132.289V118.572L15.502 123.417ZM1.30752 122.939H14.9902L19.8354 118.094H6.11863L1.30752 122.939Z" fill="#22AC38"/>
<path d="M15.1633 108.608H0.457031L5.98469 103.115H20.6569L15.1633 108.608Z" fill="#AFD69A"/>
<path d="M20.6605 117.787L15.1328 123.28V108.608L20.6605 103.081V117.787Z" fill="#80C269"/>
<path d="M15.1292 108.608H0.457031V123.281H15.1292V108.608Z" fill="#95CB7E"/>
<path d="M15.1295 123.622H0.423239C0.218511 123.622 0.0820312 123.485 0.0820312 123.28V108.608C0.0820312 108.608 0.184393 108.335 0.286757 108.301L5.67793 102.876C5.67793 102.876 5.81441 102.773 5.91678 102.773H20.5207C20.5207 102.773 20.6572 102.773 20.7596 102.773C20.896 102.842 20.9643 102.944 20.9643 103.081V117.787C20.9643 117.787 20.9643 117.957 20.8619 118.026L15.3343 123.519C15.3343 123.519 15.1978 123.622 15.0954 123.622H15.1295ZM0.798576 122.939H14.7883V108.949H0.798576V122.939ZM15.4708 108.745V122.461L20.316 117.616V103.899L15.4708 108.745ZM1.31039 108.267H14.993L19.8383 103.422H6.1215L1.31039 108.267Z" fill="#22AC38"/>
<path d="M15.1633 93.9359H0.457031L5.98469 88.4424H20.6227L15.1633 93.9359Z" fill="#AFD69A"/>
<path d="M20.6605 103.114L15.1328 108.608V93.9359L20.6605 88.4082V103.114Z" fill="#80C269"/>
<path d="M15.1292 93.936H0.457031V108.608H15.1292V93.936Z" fill="#95CB7E"/>
<path d="M15.1295 108.95H0.423239C0.218511 108.95 0.0820312 108.813 0.0820312 108.608V93.9363C0.0820312 93.9363 0.184393 93.6633 0.286757 93.6292L5.67793 88.2039C5.67793 88.2039 5.81441 88.1016 5.91678 88.1016H20.5207C20.5207 88.1016 20.6572 88.1016 20.7596 88.1016C20.896 88.1698 20.9643 88.2722 20.9643 88.4087V103.115C20.9643 103.115 20.9643 103.286 20.8619 103.354L15.3343 108.847C15.3343 108.847 15.1978 108.95 15.0954 108.95H15.1295ZM0.798576 108.267H14.7883V94.2775H0.798576V108.267ZM15.4708 94.0728V107.79L20.316 102.944V89.2276L15.4708 94.0728ZM1.31039 93.5951H14.993L19.8383 88.7499H6.1215L1.31039 93.5951Z" fill="#22AC38"/>
<path d="M15.1292 79.264H0.457031L5.95057 73.7363H20.6227L15.1292 79.264Z" fill="#AFD69A"/>
<path d="M20.6605 88.4426L15.1328 93.9362V79.264L20.6605 73.7363V88.4426Z" fill="#80C269"/>
<path d="M15.0901 79.2637H0.417969V93.9358H15.0901V79.2637Z" fill="#95CB7E"/>
<path d="M15.1295 94.2773H0.423239C0.218511 94.2773 0.0820312 94.1409 0.0820312 93.9361V79.2639C0.0820312 79.2639 0.184393 78.991 0.286757 78.9569L5.67793 73.5316C5.67793 73.5316 5.81441 73.4292 5.91678 73.4292H20.5207C20.5207 73.4292 20.6572 73.4292 20.7596 73.4292C20.896 73.4974 20.9643 73.5998 20.9643 73.7363V88.4426C20.9643 88.4426 20.9643 88.6132 20.8619 88.6814L15.3343 94.175C15.3343 94.175 15.1978 94.2773 15.0954 94.2773H15.1295ZM0.764454 93.5949H14.7542V79.6052H0.764454V93.5949ZM15.4708 79.3663V93.0831L20.316 88.2379V74.5211L15.4708 79.3663ZM1.27627 78.9227H14.9589L19.8042 74.0775H6.08739L1.27627 78.9227Z" fill="#22AC38"/>
<path d="M15.1243 64.5921H0.417969L5.94563 59.0645H20.6178L15.1243 64.5921Z" fill="#AFD69A"/>
<path d="M20.6605 73.7366L15.1328 79.2643V64.5921L20.6605 59.0645V73.7366Z" fill="#80C269"/>
<path d="M15.0901 64.5581H0.417969V79.2303H15.0901V64.5581Z" fill="#95CB7E"/>
<path d="M15.1295 79.605H0.423239C0.218511 79.605 0.0820312 79.4685 0.0820312 79.2638V64.5916C0.0820312 64.5916 0.184393 64.3186 0.286757 64.2845L5.67793 58.8592C5.67793 58.8592 5.81441 58.7568 5.91678 58.7568H20.5207C20.5207 58.7568 20.6572 58.7568 20.7596 58.7568C20.896 58.8251 20.9643 58.9274 20.9643 59.0639V73.7702C20.9643 73.7702 20.9643 73.9408 20.8619 74.0091L15.3343 79.5026C15.3343 79.5026 15.1978 79.605 15.0954 79.605H15.1295ZM0.764454 78.9225H14.7542V64.9328H0.764454V78.9225ZM15.4708 64.6939V78.4107L20.316 73.5655V59.8487L15.4708 64.6939ZM1.27627 64.2504H14.9589L19.8042 59.4051H6.08739L1.27627 64.2504Z" fill="#22AC38"/>
<path d="M15.1243 49.8851H0.417969L5.94563 44.3916H20.6178L15.1243 49.8851Z" fill="#AFD69A"/>
<path d="M20.6605 59.0638L15.1328 64.5914V49.9193L20.6605 44.3916V59.0638Z" fill="#80C269"/>
<path d="M15.0901 49.8853H0.417969V64.5574H15.0901V49.8853Z" fill="#95CB7E"/>
<path d="M15.1295 64.9331H0.423239C0.218511 64.9331 0.0820312 64.7966 0.0820312 64.5919V49.9197C0.0820312 49.9197 0.184393 49.6467 0.286757 49.6126L5.67793 44.1873C5.67793 44.1873 5.81441 44.085 5.91678 44.085H20.5207C20.5207 44.085 20.6572 44.085 20.7596 44.085C20.896 44.1532 20.9643 44.2556 20.9643 44.3921V59.0983C20.9643 59.0983 20.9643 59.269 20.8619 59.3372L15.3343 64.8307C15.3343 64.8307 15.1978 64.9331 15.0954 64.9331H15.1295ZM0.764454 64.2507H14.7542V50.2609H0.764454V64.2507ZM15.4708 50.0221V63.7389L20.316 58.8936V45.1768L15.4708 50.0221ZM1.27627 49.5785H14.9589L19.8042 44.7333H6.08739L1.27627 49.5785Z" fill="#22AC38"/>
<path d="M15.1243 35.2133H0.417969L5.94563 29.7197H20.6178L15.1243 35.2133Z" fill="#AFD69A"/>
<path d="M20.6175 44.3918L15.0898 49.8854V35.2132L20.6175 29.6855V44.3918Z" fill="#80C269"/>
<path d="M15.0901 35.2134H0.417969V49.8856H15.0901V35.2134Z" fill="#95CB7E"/>
<path d="M15.1295 50.2266H0.423239C0.218511 50.2266 0.0820312 50.0901 0.0820312 49.8853V35.2132C0.0820312 35.2132 0.184393 34.9402 0.286757 34.9061L5.67793 29.4808C5.67793 29.4808 5.81441 29.3784 5.91678 29.3784H20.5207C20.5207 29.3784 20.6572 29.3784 20.7596 29.3784C20.896 29.4467 20.9643 29.549 20.9643 29.6855V44.3918C20.9643 44.3918 20.9643 44.5624 20.8619 44.6307L15.3343 50.1242C15.3343 50.1242 15.1978 50.2266 15.0954 50.2266H15.1295ZM0.764454 49.5441H14.7542V35.5544H0.764454V49.5441ZM15.4708 35.3497V49.1006L20.316 44.2553V30.5385L15.4708 35.3497ZM1.27627 34.872H14.9589L19.8042 30.0267H6.08739L1.27627 34.872Z" fill="#22AC38"/>
<path d="M15.1243 20.5409H0.417969L5.94563 15.0474H20.5837L15.1243 20.5409Z" fill="#AFD69A"/>
<path d="M20.6175 29.7195L15.0898 35.213V20.5408L20.6175 15.0132V29.7195Z" fill="#80C269"/>
<path d="M15.0901 20.541H0.417969V35.2132H15.0901V20.541Z" fill="#95CB7E"/>
<path d="M15.0905 35.5542H0.384183C0.179455 35.5542 0.0429688 35.4177 0.0429688 35.213V20.5408C0.0429688 20.5408 0.145331 20.2678 0.247695 20.2337L5.63886 14.8084C5.63886 14.8084 5.77535 14.7061 5.87771 14.7061H20.4816C20.4816 14.7061 20.6181 14.7061 20.7205 14.7061C20.857 14.7743 20.9252 14.8767 20.9252 15.0131V29.7194C20.9252 29.7194 20.9252 29.89 20.8229 29.9583L15.2952 35.4518C15.2952 35.4518 15.1587 35.5542 15.0564 35.5542H15.0905ZM0.759514 34.8718H14.7834V20.882H0.759514V34.8718ZM15.4317 20.6773V34.3941L20.2769 29.5488V15.8321L15.4317 20.6773ZM1.27133 20.1996H14.954L19.7992 15.3544H6.08245L1.27133 20.1996Z" fill="#22AC38"/>
<path d="M15.0901 5.86896H0.417969L5.91151 0.341309H20.5837L15.0901 5.86896Z" fill="#AFD69A"/>
<path d="M20.6175 15.0476L15.0898 20.5411V5.86896L20.6175 0.341309V15.0476Z" fill="#80C269"/>
<path d="M15.0628 5.86865H0.390625V20.5408H15.0628V5.86865Z" fill="#95CB7E"/>
<path d="M15.0905 20.8823H0.384183C0.179455 20.8823 0.0429688 20.7458 0.0429688 20.541V5.86887C0.0429688 5.86887 0.145331 5.5959 0.247695 5.56178L5.67299 0.102364C5.67299 0.102364 5.80947 0 5.91184 0H20.5158C20.5158 0 20.6523 0 20.7546 0C20.8911 0.0682427 20.9593 0.170607 20.9593 0.307092V15.0134C20.9593 15.0134 20.9593 15.184 20.857 15.2522L15.3293 20.7458C15.3293 20.7458 15.1928 20.8481 15.0905 20.8481V20.8823ZM0.725392 20.1998H14.7493V6.21008H0.725392V20.1998ZM15.4317 6.00535V19.7563L20.2769 14.911V1.16013L15.4317 5.97123V6.00535ZM1.27133 5.52766H14.954L19.7992 0.682427H6.08245L1.27133 5.52766Z" fill="#22AC38"/>
</svg>
