<svg width="21" height="21" viewBox="0 0 21 21" fill="none" xmlns="http://www.w3.org/2000/svg">
<path d="M14.9904 5.86896H0.371094L5.86607 0.341309H20.4176L14.9904 5.86896Z" fill="#D3DEF1"/>
<path d="M20.452 15.0476L14.957 20.5411V5.86896L20.452 0.341309V15.0476Z" fill="#187FC4"/>
<path d="M14.9565 5.8689H0.371094V20.5411H14.9565V5.8689Z" fill="#A3BCE2"/>
<path d="M14.9585 20.8822H0.339197C0.13568 20.8822 0 20.7458 0 20.541V5.86887C0 5.86887 0.10176 5.5959 0.203519 5.56177L5.59673 0.102364C5.59673 0.102364 5.73241 0 5.83417 0H20.3518C20.3518 0 20.4874 0 20.5892 0C20.7249 0.0682426 20.7927 0.170607 20.7927 0.307092V15.0134C20.7927 15.0134 20.7588 15.184 20.691 15.2522L15.196 20.7458C15.196 20.7458 15.0603 20.8481 14.9585 20.8481V20.8822ZM0.712312 20.1998H14.6193V6.21008H0.712312V20.1998ZM15.2977 6.00535V19.7221L20.1143 14.911V1.16012L15.2977 6.00535ZM1.2211 5.52765H14.8229L19.6394 0.682426H6.00377L1.2211 5.52765Z" fill="#0068B7"/>
</svg>
