<svg width="21" height="21" viewBox="0 0 21 21" fill="none" xmlns="http://www.w3.org/2000/svg">
<path d="M14.9335 5.81498H0.339844L5.82515 0.338135H20.3849L14.9335 5.81498Z" fill="#AFD69A"/>
<path d="M20.3837 14.9093L14.8984 20.3523V5.81498L20.3837 0.338135V14.9093Z" fill="#80C269"/>
<path d="M14.8996 5.81494H0.339844V20.3523H14.8996V5.81494Z" fill="#95CB7E"/>
<path d="M14.8984 20.6903H0.338599C0.13544 20.6903 0 20.5551 0 20.3522V5.81493C0 5.81493 0.10158 5.54446 0.20316 5.51066L5.58689 0.101423C5.58689 0.101423 5.72233 0 5.82391 0H20.316C20.316 0 20.4514 0 20.553 0C20.6884 0.0676154 20.7561 0.169039 20.7561 0.304269V14.8754C20.7561 14.8754 20.7561 15.0444 20.6546 15.112L15.1693 20.5551C15.1693 20.5551 15.0338 20.6565 14.9322 20.6565L14.8984 20.6903ZM0.677199 20.0142H14.5598V6.153H0.677199V20.0142ZM15.237 5.95016V19.5409L20.0451 14.7402V1.14946L15.237 5.95016ZM1.1851 5.47685H14.7629L19.571 0.676154H5.95935L1.1851 5.47685Z" fill="#22AC38"/>
</svg>
