<svg width="38" height="46" viewBox="0 0 38 46" fill="none" xmlns="http://www.w3.org/2000/svg">
<path fill-rule="evenodd" clip-rule="evenodd" d="M23 4C23 1.79086 21.2091 0 19 0C16.7909 0 15 1.79086 15 4L15 32.3431L6.82843 24.1716C5.26633 22.6095 2.73367 22.6095 1.17157 24.1716C-0.390524 25.7337 -0.390524 28.2663 1.17157 29.8284L16.1688 44.8257C16.177 44.8339 16.1853 44.8421 16.1935 44.8502C16.5719 45.2229 17.0061 45.505 17.4689 45.6965C17.9351 45.8898 18.4459 45.9975 18.9815 46C18.9877 46 18.9938 46 19 46C19.0062 46 19.0123 46 19.0185 46C19.5541 45.9975 20.0649 45.8898 20.5311 45.6965C21.0029 45.5013 21.4449 45.2119 21.8284 44.8284L36.8284 29.8284C38.3905 28.2663 38.3905 25.7337 36.8284 24.1716C35.2663 22.6095 32.7337 22.6095 31.1716 24.1716L23 32.3431L23 4Z" fill="#9FA0A0"/>
</svg>
