<svg width="21" height="153" viewBox="0 0 21 153" fill="none" xmlns="http://www.w3.org/2000/svg">
<path d="M14.9592 137.987H0.339844L5.83482 132.459H20.4202L14.9592 137.987Z" fill="#D3DEF1"/>
<path d="M20.4559 147.131L14.9609 152.659V137.987L20.4559 132.459V147.131Z" fill="#187FC4"/>
<path d="M14.9253 137.952H0.339844V152.625H14.9253V137.952Z" fill="#A3BCE2"/>
<path d="M14.9585 153H0.339196C0.135678 153 0 152.864 0 152.659V137.987C0 137.987 0.101759 137.714 0.203518 137.68L5.56281 132.254C5.56281 132.254 5.69849 132.152 5.80025 132.152H20.3178C20.3178 132.152 20.4535 132.152 20.5553 132.152C20.691 132.22 20.7588 132.322 20.7588 132.459V147.165C20.7588 147.165 20.7249 147.336 20.657 147.404L15.1621 152.898C15.1621 152.898 15.0264 153 14.9246 153H14.9585ZM0.678392 152.318H14.5854V138.328H0.678392V152.318ZM15.2977 138.089V151.806L20.1143 146.995V133.278L15.2977 138.123V138.089ZM1.18719 137.645H14.7889L19.6055 132.8H5.96985L1.18719 137.645Z" fill="#0068B7"/>
<path d="M14.9592 123.28H0.339844L5.83482 117.787H20.4202L14.9592 123.28Z" fill="#D3DEF1"/>
<path d="M20.4559 132.459L14.9609 137.987V123.28L20.4559 117.753V132.459Z" fill="#187FC4"/>
<path d="M14.9253 123.28H0.339844V137.952H14.9253V123.28Z" fill="#A3BCE2"/>
<path d="M14.9585 138.328H0.339196C0.135678 138.328 0 138.191 0 137.987V123.314C0 123.314 0.101759 123.042 0.203518 123.007L5.56281 117.582C5.56281 117.582 5.69849 117.48 5.80025 117.48H20.3178C20.3178 117.48 20.4535 117.48 20.5553 117.48C20.691 117.548 20.7588 117.65 20.7588 117.787V132.493C20.7588 132.493 20.7249 132.664 20.657 132.732L15.1621 138.225C15.1621 138.225 15.0264 138.328 14.9246 138.328H14.9585ZM0.678392 137.645H14.5854V123.656H0.678392V137.645ZM15.2977 123.417V137.134L20.1143 132.323V118.606L15.2977 123.451V123.417ZM1.18719 122.939H14.7889L19.6055 118.094H5.96985L1.18719 122.939Z" fill="#0068B7"/>
<path d="M14.9592 108.608H0.339844L5.83482 103.115H20.4202L14.9592 108.608Z" fill="#D3DEF1"/>
<path d="M20.4559 117.787L14.9609 123.28V108.608L20.4559 103.081V117.787Z" fill="#187FC4"/>
<path d="M14.9253 108.608H0.339844V123.28H14.9253V108.608Z" fill="#A3BCE2"/>
<path d="M14.9585 123.622H0.339196C0.135678 123.622 0 123.485 0 123.28V108.608C0 108.608 0.101759 108.335 0.203518 108.301L5.56281 102.876C5.56281 102.876 5.69849 102.773 5.80025 102.773H20.3178C20.3178 102.773 20.4535 102.773 20.5553 102.773C20.691 102.842 20.7588 102.944 20.7588 103.081V117.787C20.7588 117.787 20.7249 117.957 20.657 118.026L15.1621 123.519C15.1621 123.519 15.0264 123.622 14.9246 123.622H14.9585ZM0.678392 122.939H14.5854V108.949H0.678392V122.939ZM15.2977 108.745V122.461L20.1143 117.65V103.934L15.2977 108.779V108.745ZM1.18719 108.267H14.7889L19.6055 103.422H5.96985L1.18719 108.267Z" fill="#0068B7"/>
<path d="M14.9592 93.9359H0.339844L5.83482 88.4424H20.4202L14.9592 93.9359Z" fill="#D3DEF1"/>
<path d="M20.4559 103.115L14.9609 108.608V93.9361L20.4559 88.4084V103.115Z" fill="#187FC4"/>
<path d="M14.9253 93.936H0.339844V108.608H14.9253V93.936Z" fill="#A3BCE2"/>
<path d="M14.9585 108.949H0.339196C0.135678 108.949 0 108.813 0 108.608V93.9361C0 93.9361 0.101759 93.6631 0.203518 93.629L5.56281 88.2037C5.56281 88.2037 5.69849 88.1013 5.80025 88.1013H20.3178C20.3178 88.1013 20.4535 88.1013 20.5553 88.1013C20.691 88.1696 20.7588 88.2719 20.7588 88.4084V103.115C20.7588 103.115 20.7249 103.285 20.657 103.354L15.1621 108.847C15.1621 108.847 15.0264 108.949 14.9246 108.949H14.9585ZM0.678392 108.267H14.5854V94.2773H0.678392V108.267ZM15.2977 94.0725V107.789L20.1143 102.978V89.2614L15.2977 94.1067V94.0725ZM1.18719 93.5949H14.7889L19.6055 88.7496H5.96985L1.18719 93.5949Z" fill="#0068B7"/>
<path d="M14.9592 79.2637H0.339844L5.83482 73.7361H20.4202L14.9592 79.2637Z" fill="#D3DEF1"/>
<path d="M20.4559 88.4424L14.9609 93.9359V79.2637L20.4559 73.7361V88.4424Z" fill="#187FC4"/>
<path d="M14.9253 79.2639H0.339844V93.9361H14.9253V79.2639Z" fill="#A3BCE2"/>
<path d="M14.9585 94.2773H0.339196C0.135678 94.2773 0 94.1408 0 93.9361V79.2639C0 79.2639 0.101759 78.991 0.203518 78.9568L5.56281 73.5316C5.56281 73.5316 5.69849 73.4292 5.80025 73.4292H20.3178C20.3178 73.4292 20.4535 73.4292 20.5553 73.4292C20.691 73.4974 20.7588 73.5998 20.7588 73.7363V88.4426C20.7588 88.4426 20.7249 88.6132 20.657 88.6814L15.1621 94.175C15.1621 94.175 15.0264 94.2773 14.9246 94.2773H14.9585ZM0.678392 93.5949H14.5854V79.6052H0.678392V93.5949ZM15.2977 79.4004V93.1172L20.1143 88.3061V74.5893L15.2977 79.4346V79.4004ZM1.18719 78.9227H14.7889L19.6055 74.0775H5.96985L1.18719 78.9227Z" fill="#0068B7"/>
<path d="M14.9592 64.5916H0.339844L5.83482 59.064H20.4202L14.9592 64.5916Z" fill="#D3DEF1"/>
<path d="M20.4559 73.7361L14.9609 79.2638V64.5916L20.4559 59.064V73.7361Z" fill="#187FC4"/>
<path d="M14.9253 64.5576H0.339844V79.2298H14.9253V64.5576Z" fill="#A3BCE2"/>
<path d="M14.9585 79.605H0.339196C0.135678 79.605 0 79.4685 0 79.2637V64.5916C0 64.5916 0.101759 64.3186 0.203518 64.2845L5.56281 58.8592C5.56281 58.8592 5.69849 58.7568 5.80025 58.7568H20.3178C20.3178 58.7568 20.4535 58.7568 20.5553 58.7568C20.691 58.8251 20.7588 58.9274 20.7588 59.0639V73.7702C20.7588 73.7702 20.7249 73.9408 20.657 74.0091L15.1621 79.5026C15.1621 79.5026 15.0264 79.605 14.9246 79.605H14.9585ZM0.678392 78.9225H14.5854V64.9328H0.678392V78.9225ZM15.2977 64.6939V78.4107L20.1143 73.5996V59.8828L15.2977 64.7281V64.6939ZM1.18719 64.2504H14.7889L19.6055 59.4051H5.96985L1.18719 64.2504Z" fill="#0068B7"/>
<path d="M14.9592 49.9195H0.339844L5.83482 44.3918H20.4202L14.9592 49.9195Z" fill="#D3DEF1"/>
<path d="M20.4559 59.064L14.9609 64.5917V49.8854L20.4559 44.3918V59.064Z" fill="#187FC4"/>
<path d="M14.9253 49.8853H0.339844V64.5574H14.9253V49.8853Z" fill="#A3BCE2"/>
<path d="M14.9585 64.9328H0.339196C0.135678 64.9328 0 64.7964 0 64.5916V49.9195C0 49.9195 0.101759 49.6465 0.203518 49.6124L5.56281 44.1871C5.56281 44.1871 5.69849 44.0847 5.80025 44.0847H20.3178C20.3178 44.0847 20.4535 44.0847 20.5553 44.0847C20.691 44.153 20.7588 44.2553 20.7588 44.3918V59.0981C20.7588 59.0981 20.7249 59.2687 20.657 59.3369L15.1621 64.8305C15.1621 64.8305 15.0264 64.9328 14.9246 64.9328H14.9585ZM0.678392 64.2504H14.5854V50.2607H0.678392V64.2504ZM15.2977 50.0218V63.7386L20.1143 58.9275V45.2107L15.2977 50.0559V50.0218ZM1.18719 49.5782H14.7889L19.6055 44.733H5.96985L1.18719 49.5782Z" fill="#0068B7"/>
<path d="M14.9592 35.2133H0.339844L5.83482 29.7197H20.4202L14.9592 35.2133Z" fill="#D3DEF1"/>
<path d="M20.4559 44.3918L14.9609 49.8854V35.2132L20.4559 29.6855V44.3918Z" fill="#187FC4"/>
<path d="M14.9253 35.2131H0.339844V49.8853H14.9253V35.2131Z" fill="#A3BCE2"/>
<path d="M14.9585 50.2265H0.339196C0.135678 50.2265 0 50.0901 0 49.8853V35.2132C0 35.2132 0.101759 34.9402 0.203518 34.9061L5.56281 29.4808C5.56281 29.4808 5.69849 29.3784 5.80025 29.3784H20.3178C20.3178 29.3784 20.4535 29.3784 20.5553 29.3784C20.691 29.4467 20.7588 29.549 20.7588 29.6855V44.3918C20.7588 44.3918 20.7249 44.5624 20.657 44.6306L15.1621 50.1242C15.1621 50.1242 15.0264 50.2265 14.9246 50.2265H14.9585ZM0.678392 49.5441H14.5854V35.5544H0.678392V49.5441ZM15.2977 35.3496V49.0664L20.1143 44.2553V30.5385L15.2977 35.3838V35.3496ZM1.18719 34.872H14.7889L19.6055 30.0267H5.96985L1.18719 34.872Z" fill="#0068B7"/>
<path d="M14.9592 20.5411H0.339844L5.83482 15.0476H20.4202L14.9592 20.5411Z" fill="#D3DEF1"/>
<path d="M20.4559 29.7197L14.9609 35.2132V20.5411L20.4559 15.0134V29.7197Z" fill="#187FC4"/>
<path d="M14.9253 20.541H0.339844V35.2132H14.9253V20.541Z" fill="#A3BCE2"/>
<path d="M14.9585 35.5544H0.339196C0.135678 35.5544 0 35.4179 0 35.2132V20.541C0 20.541 0.101759 20.2681 0.203518 20.234L5.56281 14.8087C5.56281 14.8087 5.69849 14.7063 5.80025 14.7063H20.3178C20.3178 14.7063 20.4535 14.7063 20.5553 14.7063C20.691 14.7745 20.7588 14.8769 20.7588 15.0134V29.7197C20.7588 29.7197 20.7249 29.8903 20.657 29.9585L15.1621 35.4521C15.1621 35.4521 15.0264 35.5544 14.9246 35.5544H14.9585ZM0.678392 34.872H14.5854V20.8823H0.678392V34.872ZM15.2977 20.6775V34.3943L20.1143 29.5832V15.8664L15.2977 20.7117V20.6775ZM1.18719 20.1998H14.7889L19.6055 15.3546H5.96985L1.18719 20.1998Z" fill="#0068B7"/>
<path d="M14.9592 5.86896H0.339844L5.83482 0.341309H20.4202L14.9592 5.86896Z" fill="#D3DEF1"/>
<path d="M20.4559 15.0476L14.9609 20.5411V5.86896L20.4559 0.341309V15.0476Z" fill="#187FC4"/>
<path d="M14.9253 5.8689H0.339844V20.5411H14.9253V5.8689Z" fill="#A3BCE2"/>
<path d="M14.9585 20.8822H0.339196C0.135678 20.8822 0 20.7458 0 20.541V5.86887C0 5.86887 0.101759 5.5959 0.203518 5.56177L5.59673 0.102364C5.59673 0.102364 5.73241 0 5.83417 0H20.3518C20.3518 0 20.4874 0 20.5892 0C20.7249 0.0682426 20.7927 0.170607 20.7927 0.307092V15.0134C20.7927 15.0134 20.7588 15.184 20.691 15.2522L15.196 20.7458C15.196 20.7458 15.0603 20.8481 14.9585 20.8481V20.8822ZM0.678392 20.1998H14.5854V6.21008H0.678392V20.1998ZM15.2977 6.00535V19.7221L20.1143 14.911V1.16012L15.2977 6.00535ZM1.18719 5.52765H14.7889L19.6055 0.682426H5.96985L1.18719 5.52765Z" fill="#0068B7"/>
</svg>
