<svg width="45" height="48" viewBox="0 0 45 48" fill="none" xmlns="http://www.w3.org/2000/svg">
<g filter="url(#filter0_f_5_2774)">
<path d="M11.377 18.0967H9.87695V19.5967V33.5504V35.0504H11.377H25.3278H26.8278V33.5504V19.5967V18.0967H25.3278H11.377Z" fill="#6744F3" stroke="#3300FF" stroke-width="3"/>
<path d="M25.9502 35.4285L26.192 35.1867C26.2203 35.1724 26.242 35.1605 26.2566 35.1526L26.26 35.1507C26.3343 35.1102 26.3954 35.0714 26.4382 35.0429C26.4603 35.0282 26.4793 35.015 26.4947 35.004L26.5156 34.9889L26.5242 34.9826L26.528 34.9797L26.5298 34.9784L26.5307 34.9778L26.5311 34.9774C26.5312 34.9773 26.5314 34.9772 26.3027 34.6722H26.3028L26.5315 34.9771L26.6146 34.9148L26.6883 34.8416L31.8901 29.6762C32.2777 29.3397 32.4014 28.9206 32.4411 28.7617C32.471 28.6419 32.4848 28.5381 32.4917 28.4647C32.4953 28.4266 32.4973 28.3929 32.4985 28.3647C32.4991 28.3505 32.4994 28.3375 32.4997 28.3257L32.4999 28.309L32.5 28.3013L32.5 28.2976L32.5 28.2958L32.5 28.2949C32.5 28.2945 32.5 28.2942 31.7061 28.2941V28.2941H32.5V14.3403C32.5 14.2567 32.4946 14.1715 32.483 14.0857L33.3193 13.2563H32.1544C32.0206 13.0701 31.8642 12.9257 31.7061 12.8146V11.626L30.8323 12.5H30.7732H30.7725H30.7718H30.7712H30.7705H30.7698H30.7692H30.7685H30.7678H30.7672H30.7665H30.7658H30.7651H30.7645H30.7638H30.7631H30.7624H30.7617H30.7611H30.7604H30.7597H30.759H30.7584H30.7577H30.757H30.7563H30.7556H30.7549H30.7542H30.7536H30.7529H30.7522H30.7515H30.7508H30.7501H30.7494H30.7487H30.7481H30.7474H30.7467H30.746H30.7453H30.7446H30.7439H30.7432H30.7425H30.7418H30.7411H30.7404H30.7397H30.739H30.7383H30.7376H30.7369H30.7362H30.7355H30.7348H30.7341H30.7334H30.7327H30.732H30.7313H30.7306H30.7299H30.7292H30.7285H30.7278H30.7271H30.7264H30.7257H30.725H30.7243H30.7236H30.7229H30.7222H30.7215H30.7208H30.7201H30.7194H30.7187H30.718H30.7172H30.7165H30.7158H30.7151H30.7144H30.7137H30.713H30.7123H30.7116H30.7109H30.7102H30.7095H30.7088H30.708H30.7073H30.7066H30.7059H30.7052H30.7045H30.7038H30.7031H30.7024H30.7017H30.701H30.7002H30.6995H30.6988H30.6981H30.6974H30.6967H30.696H30.6953H30.6946H30.6939H30.6932H30.6925H30.6917H30.691H30.6903H30.6896H30.6889H30.6882H30.6875H30.6868H30.6861H30.6854H30.6847H30.684H30.6833H30.6826H30.6818H30.6811H30.6804H30.6797H30.679H30.6783H30.6776H30.6769H30.6762H30.6755H30.6748H30.6741H30.6734H30.6727H30.672H30.6713H30.6706H30.6699H30.6692H30.6685H30.6678H30.6671H30.6664H30.6657H30.665H30.6643H30.6636H30.6629H30.6622H30.6615H30.6608H30.6601H30.6594H30.6588H30.6581H30.6574H30.6567H30.656H30.6553H30.6546H30.6539H30.6532H30.6525H30.6518H30.6512H30.6505H30.6498H30.6491H30.6484H30.6477H30.6471H30.6464H30.6457H30.645H30.6443H30.6436H30.643H30.6423H30.6416H30.6409H30.6403H30.6396H30.6389H30.6382H30.6376H30.6369H30.6362H30.6355H30.6349H30.6342H30.6335H30.6329H30.6322H30.6315H30.6309H30.6302H30.6296H30.6289H30.6282H30.6276H30.6269H30.6262H30.6256H30.6249H30.6243H30.6236H30.623H30.6223H30.6217H30.621H30.6204H30.6197H30.6191H30.6184H30.6178H30.6171H30.6165H30.6158H30.6152H30.6146H30.6139H30.6133H30.6126H30.612H30.6114H30.6107H30.6101H30.6095H30.6088H30.6082H30.6076H30.607H30.6063H30.6057H30.6051H30.6045H30.6038H30.6032H30.6026H30.602H30.6014H30.6008H30.6001H30.5995H30.5989H30.5983H30.5977H30.5971H30.5965H30.5959H30.5953H30.5947H30.5941H30.5935H30.5929H30.5923H30.5917H30.5911H30.5905H30.5899H30.5893H30.5887H30.5881H30.5876H30.587H30.5864H30.5858H30.5852H30.5847H30.5841H30.5835H30.5829H30.5824H30.5818H30.5812H30.5807H30.5801H30.5795H30.579H30.5784H30.5778H30.5773H30.5767H30.5762H30.5756H30.5751H30.5745H30.574H30.5734H30.5729H30.5723H30.5718H30.5713H30.5707H30.5702H30.5696H30.5691H30.5686H30.5681H30.5675H30.567H30.5665H30.566H30.5654H30.5649H30.5644H30.5639H30.5634H30.5629H30.5623H30.5618H30.5613H30.5608H30.5603H30.5598H30.5593H30.5588H30.5583H30.5578H30.5574H30.5569H30.5564H30.5559H30.5554H30.5549H30.5544H30.554H30.5535H30.553H30.5525H30.5521H30.5516H30.5511H30.5507H30.5502H30.5498H30.5493H30.5489H30.5484H30.5479H30.5475H30.5471H30.5466H30.5462H30.5457H30.5453H30.5449H30.5444H30.544H30.5436H30.5431H30.5427H30.5423H30.5419H30.5414H30.541H30.5406H30.5402H30.5398H30.5394H30.539H30.5386H30.5382H30.5378H30.5374H30.537H30.5366H30.5362H30.5358H30.5354H30.535H30.5347H30.5343H30.5339H30.5335H30.5332H30.5328H30.5324H30.5321H30.5317H30.5314H30.531H30.5307H30.5303H30.53H30.5296H30.5293H30.5289H30.5286H30.5282H30.5279H30.5276H30.5273H30.5269H30.5266H30.5263H30.526H30.5257H30.5253H30.525H30.5247H30.5244H30.5241H30.5238H30.5235H30.5232H30.5229H30.5226H30.5224H30.5221H30.5218H30.5215H30.5212H30.521H30.5207H30.5204H30.5202H30.5199H30.5196H30.5194H30.5191H30.5189H30.5186H30.5184H30.5181H30.5179H30.5177H30.5174H30.5172H30.517H30.5167H30.5165H30.5163H30.5161H30.5159H30.5156H30.5154H30.5152H30.515H30.5148H30.5146H30.5144H30.5143H30.5141H30.5139H30.5137H30.5135H30.5133H30.5132H30.513H30.5128H30.5127H30.5125H30.5123H30.5122H30.512H30.5119H30.5117H30.5116H30.5115H30.5113H30.5112H30.5111H30.5109H30.5108H30.5107H30.5106H30.5105H30.5104H30.5102H30.5101H30.51H30.5099H30.5098H30.5098H30.5097H30.5096H30.5095H30.5094H30.5093H30.5093H30.5092H30.5091H30.5091H30.509H30.509H30.5089H30.5089H30.5088H30.5088H30.5087H30.5087H30.5087H30.5086H30.5086H30.5086H30.5086H30.5085H30.5085H16.6333C16.1794 12.5 15.831 12.6903 15.7434 12.7381L15.74 12.74C15.6657 12.7805 15.6046 12.8192 15.5619 12.8477C15.5398 12.8625 15.5208 12.8757 15.5053 12.8867L15.4845 12.9017L15.4759 12.9081L15.472 12.9109L15.4702 12.9123L15.4694 12.9129L15.4689 12.9132C15.4688 12.9134 15.4686 12.9135 15.9294 13.5279L15.9294 13.5279L15.4685 12.9135L15.3832 12.9775L15.3079 13.0529L10.266 18.0957C10.1037 18.2226 10.0048 18.3471 9.96618 18.396C9.86056 18.5298 9.78726 18.6594 9.74519 18.7388C9.69903 18.826 9.66367 18.9045 9.64077 18.9579C9.62881 18.9858 9.61899 19.0099 9.61152 19.0286L9.60188 19.0532L9.59828 19.0626L9.59679 19.0665L9.59612 19.0683L9.5958 19.0691L9.59565 19.0695C9.59559 19.0697 9.59553 19.0699 10.2562 19.3176V19.3177L9.5955 19.0699L9.5 19.3246V19.5966V33.5503C9.5 34.0046 9.65796 34.4997 10.0433 34.8851C10.4286 35.2704 10.9237 35.4285 11.3781 35.4285H24.207V36.2646L25.043 35.4285H25.3289H25.9502ZM28.7061 27.5216L27.207 29.0209V20.3691L28.7061 18.8698V27.5216ZM17.4437 16.2563H26.0342L24.56 17.7185H15.9819L17.4437 16.2563ZM13.2562 31.6722V21.4748H23.4509V31.6722H13.2562Z" fill="#6744F3" stroke="#3300FF" stroke-width="3"/>
</g>
<defs>
<filter id="filter0_f_5_2774" x="0" y="0.00415039" width="44.9609" height="47.8823" filterUnits="userSpaceOnUse" color-interpolation-filters="sRGB">
<feFlood flood-opacity="0" result="BackgroundImageFix"/>
<feBlend mode="normal" in="SourceGraphic" in2="BackgroundImageFix" result="shape"/>
<feGaussianBlur stdDeviation="4" result="effect1_foregroundBlur_5_2774"/>
</filter>
</defs>
</svg>
