<svg width="34" height="32" viewBox="0 0 34 32" fill="none" xmlns="http://www.w3.org/2000/svg">
<path d="M14.1337 2.27543C15.0049 -0.543601 18.9951 -0.543594 19.8663 2.27544L21.5401 7.69223C21.9286 8.94925 23.0907 9.80651 24.4064 9.80651H30.1311C33.0007 9.80651 34.2326 13.4484 31.9523 15.1905L27.0662 18.9231C26.0671 19.6864 25.6499 20.9916 26.0211 22.1928L27.8256 28.0325C28.688 30.8231 25.4592 33.0753 23.1382 31.3022L18.8212 28.0043C17.746 27.1829 16.254 27.1829 15.1788 28.0043L10.8618 31.3022C8.54076 33.0753 5.31202 30.8231 6.17437 28.0325L7.97892 22.1928C8.35011 20.9916 7.93292 19.6864 6.93384 18.9231L2.0477 15.1905C-0.232639 13.4484 0.999286 9.80651 3.86889 9.80651H9.59359C10.9093 9.80651 12.0714 8.94926 12.4599 7.69223L14.1337 2.27543Z" fill="#0277FF"/>
</svg>
