<svg width="19" height="19" viewBox="0 0 19 19" fill="none" xmlns="http://www.w3.org/2000/svg">
<mask id="mask0_1_2893" style="mask-type:luminance" maskUnits="userSpaceOnUse" x="1" y="0" width="17" height="18">
<path d="M1 8.51482C1 13.235 4.78737 17.0296 9.4985 17.0296C14.2096 17.0296 17.997 13.235 17.997 8.51482C17.997 3.79465 14.2096 0 9.4985 0C4.78737 0 1 3.79465 1 8.51482Z" fill="white"/>
</mask>
<g mask="url(#mask0_1_2893)">
<mask id="mask1_1_2893" style="mask-type:luminance" maskUnits="userSpaceOnUse" x="1" y="0" width="17" height="18">
<path d="M17.997 0.0463867H1V17.076H17.997V0.0463867Z" fill="white"/>
</mask>
<g mask="url(#mask1_1_2893)">
<path d="M17.997 0.0463867H1V17.076H17.997V0.0463867Z" fill="#FED400"/>
<path d="M9.4985 17.0296C14.1921 17.0296 17.997 13.2174 17.997 8.51482C17.997 3.81222 14.1921 0 9.4985 0C4.80491 0 1 3.81222 1 8.51482C1 13.2174 4.80491 17.0296 9.4985 17.0296Z" fill="#FED400"/>
<path d="M9.49845 16.9835C14.1665 16.9835 17.9508 13.192 17.9508 8.51494C17.9508 3.83789 14.1665 0.0463867 9.49845 0.0463867C4.83037 0.0463867 1.04614 3.83789 1.04614 8.51494C1.04614 13.192 4.83037 16.9835 9.49845 16.9835Z" fill="#FED400"/>
<path d="M9.49853 16.9373C14.1411 16.9373 17.9047 13.1665 17.9047 8.51505C17.9047 3.86355 14.1411 0.0927734 9.49853 0.0927734C4.85596 0.0927734 1.09241 3.86355 1.09241 8.51505C1.09241 13.1665 4.85596 16.9373 9.49853 16.9373Z" fill="#FED400"/>
<path d="M9.49853 16.9373C14.1411 16.9373 17.9047 13.1665 17.9047 8.51505C17.9047 3.86355 14.1411 0.0927734 9.49853 0.0927734C4.85596 0.0927734 1.09241 3.86355 1.09241 8.51505C1.09241 13.1665 4.85596 16.9373 9.49853 16.9373Z" fill="#FED500"/>
<path d="M9.49849 16.8907C14.1156 16.8907 17.8584 13.1406 17.8584 8.51467C17.8584 3.88873 14.1156 0.138672 9.49849 0.138672C4.88142 0.138672 1.13855 3.88873 1.13855 8.51467C1.13855 13.1406 4.88142 16.8907 9.49849 16.8907Z" fill="#FED500"/>
<path d="M9.49844 16.8445C14.09 16.8445 17.8122 13.1152 17.8122 8.51478C17.8122 3.9144 14.09 0.185059 9.49844 0.185059C4.90688 0.185059 1.18469 3.9144 1.18469 8.51478C1.18469 13.1152 4.90688 16.8445 9.49844 16.8445Z" fill="#FED500"/>
<path d="M9.49852 16.7983C14.0646 16.7983 17.7661 13.0897 17.7661 8.51489C17.7661 3.94007 14.0646 0.231445 9.49852 0.231445C4.93247 0.231445 1.23096 3.94007 1.23096 8.51489C1.23096 13.0897 4.93247 16.7983 9.49852 16.7983Z" fill="#FED500"/>
<path d="M9.49852 16.7983C14.0646 16.7983 17.7661 13.0897 17.7661 8.51489C17.7661 3.94007 14.0646 0.231445 9.49852 0.231445C4.93247 0.231445 1.23096 3.94007 1.23096 8.51489C1.23096 13.0897 4.93247 16.7983 9.49852 16.7983Z" fill="#FED500"/>
<path d="M9.49847 16.7522C14.039 16.7522 17.7198 13.0643 17.7198 8.515C17.7198 3.96574 14.039 0.277832 9.49847 0.277832C4.95793 0.277832 1.2771 3.96574 1.2771 8.515C1.2771 13.0643 4.95793 16.7522 9.49847 16.7522Z" fill="#FED500"/>
<path d="M9.49843 16.7055C14.0135 16.7055 17.6736 13.0383 17.6736 8.51462C17.6736 3.99092 14.0135 0.32373 9.49843 0.32373C4.9834 0.32373 1.32324 3.99092 1.32324 8.51462C1.32324 13.0383 4.9834 16.7055 9.49843 16.7055Z" fill="#FED600"/>
<path d="M9.4985 16.6593C13.988 16.6593 17.6275 13.0129 17.6275 8.51473C17.6275 4.01659 13.988 0.370117 9.4985 0.370117C5.00898 0.370117 1.36951 4.01659 1.36951 8.51473C1.36951 13.0129 5.00898 16.6593 9.4985 16.6593Z" fill="#FED600"/>
<path d="M9.4985 16.6593C13.988 16.6593 17.6275 13.0129 17.6275 8.51473C17.6275 4.01659 13.988 0.370117 9.4985 0.370117C5.00898 0.370117 1.36951 4.01659 1.36951 8.51473C1.36951 13.0129 5.00898 16.6593 9.4985 16.6593Z" fill="#FED600"/>
<path d="M9.49846 16.6132C13.9625 16.6132 17.5813 12.9874 17.5813 8.51484C17.5813 4.04225 13.9625 0.416504 9.49846 0.416504C5.03445 0.416504 1.41565 4.04225 1.41565 8.51484C1.41565 12.9874 5.03445 16.6132 9.49846 16.6132Z" fill="#FED600"/>
<path d="M9.49854 16.567C13.937 16.567 17.5352 12.962 17.5352 8.51495C17.5352 4.06792 13.937 0.462891 9.49854 0.462891C5.06003 0.462891 1.46191 4.06792 1.46191 8.51495C1.46191 12.962 5.06003 16.567 9.49854 16.567Z" fill="#FED600"/>
<path d="M9.49849 16.5208C13.9115 16.5208 17.4889 12.9365 17.4889 8.51506C17.4889 4.09359 13.9115 0.509277 9.49849 0.509277C5.0855 0.509277 1.50806 4.09359 1.50806 8.51506C1.50806 12.9365 5.0855 16.5208 9.49849 16.5208Z" fill="#FED600"/>
<path d="M9.49849 16.5208C13.9115 16.5208 17.4889 12.9365 17.4889 8.51506C17.4889 4.09359 13.9115 0.509277 9.49849 0.509277C5.0855 0.509277 1.50806 4.09359 1.50806 8.51506C1.50806 12.9365 5.0855 16.5208 9.49849 16.5208Z" fill="#FED702"/>
<path d="M9.49845 16.4742C13.8859 16.4742 17.4427 12.9106 17.4427 8.51469C17.4427 4.11877 13.8859 0.555176 9.49845 0.555176C5.11096 0.555176 1.5542 4.11877 1.5542 8.51469C1.5542 12.9106 5.11096 16.4742 9.49845 16.4742Z" fill="#FED707"/>
<path d="M9.49852 16.428C13.8605 16.428 17.3966 12.8852 17.3966 8.51479C17.3966 4.14444 13.8605 0.601562 9.49852 0.601562C5.13655 0.601562 1.60046 4.14444 1.60046 8.51479C1.60046 12.8852 5.13655 16.428 9.49852 16.428Z" fill="#FED70C"/>
<path d="M9.49848 16.3819C13.8349 16.3819 17.3503 12.8597 17.3503 8.51491C17.3503 4.17011 13.8349 0.647949 9.49848 0.647949C5.16201 0.647949 1.64661 4.17011 1.64661 8.51491C1.64661 12.8597 5.16201 16.3819 9.49848 16.3819Z" fill="#FED711"/>
<path d="M9.49848 16.3819C13.8349 16.3819 17.3503 12.8597 17.3503 8.51491C17.3503 4.17011 13.8349 0.647949 9.49848 0.647949C5.16201 0.647949 1.64661 4.17011 1.64661 8.51491C1.64661 12.8597 5.16201 16.3819 9.49848 16.3819Z" fill="#FED715"/>
<path d="M9.49844 16.3357C13.8094 16.3357 17.3041 12.8343 17.3041 8.51502C17.3041 4.19577 13.8094 0.694336 9.49844 0.694336C5.18748 0.694336 1.69275 4.19577 1.69275 8.51502C1.69275 12.8343 5.18748 16.3357 9.49844 16.3357Z" fill="#FED718"/>
<path d="M9.49851 16.289C13.784 16.289 17.258 12.8083 17.258 8.51464C17.258 4.22095 13.784 0.740234 9.49851 0.740234C5.21306 0.740234 1.73901 4.22095 1.73901 8.51464C1.73901 12.8083 5.21306 16.289 9.49851 16.289Z" fill="#FED81B"/>
<path d="M9.49847 16.2429C13.7584 16.2429 17.2118 12.7829 17.2118 8.51475C17.2118 4.24662 13.7584 0.786621 9.49847 0.786621C5.23852 0.786621 1.78516 4.24662 1.78516 8.51475C1.78516 12.7829 5.23852 16.2429 9.49847 16.2429Z" fill="#FED81D"/>
<path d="M9.49847 16.2429C13.7584 16.2429 17.2118 12.7829 17.2118 8.51475C17.2118 4.24662 13.7584 0.786621 9.49847 0.786621C5.23852 0.786621 1.78516 4.24662 1.78516 8.51475C1.78516 12.7829 5.23852 16.2429 9.49847 16.2429Z" fill="#FED820"/>
<path d="M9.49854 16.1967C13.733 16.1967 17.1657 12.7574 17.1657 8.51486C17.1657 4.27229 13.733 0.833008 9.49854 0.833008C5.26411 0.833008 1.83142 4.27229 1.83142 8.51486C1.83142 12.7574 5.26411 16.1967 9.49854 16.1967Z" fill="#FED822"/>
<path d="M9.4985 16.1505C13.7074 16.1505 17.1194 12.732 17.1194 8.51497C17.1194 4.29796 13.7074 0.879395 9.4985 0.879395C5.28957 0.879395 1.87756 4.29796 1.87756 8.51497C1.87756 12.732 5.28957 16.1505 9.4985 16.1505Z" fill="#FED824"/>
<path d="M9.49845 16.1039C13.6819 16.1039 17.0732 12.706 17.0732 8.51459C17.0732 4.32314 13.6819 0.925293 9.49845 0.925293C5.31504 0.925293 1.92371 4.32314 1.92371 8.51459C1.92371 12.706 5.31504 16.1039 9.49845 16.1039Z" fill="#FED826"/>
<path d="M9.49845 16.1039C13.6819 16.1039 17.0732 12.706 17.0732 8.51459C17.0732 4.32314 13.6819 0.925293 9.49845 0.925293C5.31504 0.925293 1.92371 4.32314 1.92371 8.51459C1.92371 12.706 5.31504 16.1039 9.49845 16.1039Z" fill="#FED928"/>
<path d="M9.49853 16.0577C13.6564 16.0577 17.0271 12.6806 17.0271 8.5147C17.0271 4.34881 13.6564 0.97168 9.49853 0.97168C5.34062 0.97168 1.96997 4.34881 1.96997 8.5147C1.96997 12.6806 5.34062 16.0577 9.49853 16.0577Z" fill="#FED92A"/>
<path d="M9.49848 16.0116C13.6309 16.0116 16.9809 12.6552 16.9809 8.51481C16.9809 4.37448 13.6309 1.01807 9.49848 1.01807C5.36608 1.01807 2.01611 4.37448 2.01611 8.51481C2.01611 12.6552 5.36608 16.0116 9.49848 16.0116Z" fill="#FFD92C"/>
<path d="M9.49844 15.9654C13.6053 15.9654 16.9346 12.6297 16.9346 8.51492C16.9346 4.40014 13.6053 1.06445 9.49844 1.06445C5.39155 1.06445 2.06226 4.40014 2.06226 8.51492C2.06226 12.6297 5.39155 15.9654 9.49844 15.9654Z" fill="#FFD92E"/>
<path d="M9.49844 15.9654C13.6053 15.9654 16.9346 12.6297 16.9346 8.51492C16.9346 4.40014 13.6053 1.06445 9.49844 1.06445C5.39155 1.06445 2.06226 4.40014 2.06226 8.51492C2.06226 12.6297 5.39155 15.9654 9.49844 15.9654Z" fill="#FFD930"/>
<path d="M9.49852 15.9192C13.5799 15.9192 16.8885 12.6043 16.8885 8.51504C16.8885 4.42581 13.5799 1.11084 9.49852 1.11084C5.41714 1.11084 2.10852 4.42581 2.10852 8.51504C2.10852 12.6043 5.41714 15.9192 9.49852 15.9192Z" fill="#FFD932"/>
<path d="M9.49847 15.8726C13.5543 15.8726 16.8423 12.5783 16.8423 8.51466C16.8423 4.45099 13.5543 1.15674 9.49847 1.15674C5.4426 1.15674 2.15466 4.45099 2.15466 8.51466C2.15466 12.5783 5.4426 15.8726 9.49847 15.8726Z" fill="#FFDA33"/>
<path d="M9.49855 15.8264C13.5289 15.8264 16.7962 12.5529 16.7962 8.51477C16.7962 4.47666 13.5289 1.20312 9.49855 1.20312C5.46818 1.20312 2.20093 4.47666 2.20093 8.51477C2.20093 12.5529 5.46818 15.8264 9.49855 15.8264Z" fill="#FFDA35"/>
<path d="M9.49855 15.8264C13.5289 15.8264 16.7962 12.5529 16.7962 8.51477C16.7962 4.47666 13.5289 1.20312 9.49855 1.20312C5.46818 1.20312 2.20093 4.47666 2.20093 8.51477C2.20093 12.5529 5.46818 15.8264 9.49855 15.8264Z" fill="#FFDA36"/>
<path d="M9.49851 15.7802C13.5034 15.7802 16.7499 12.5274 16.7499 8.51488C16.7499 4.50233 13.5034 1.24951 9.49851 1.24951C5.49365 1.24951 2.24707 4.50233 2.24707 8.51488C2.24707 12.5274 5.49365 15.7802 9.49851 15.7802Z" fill="#FFDA38"/>
<path d="M9.49846 15.7341C13.4778 15.7341 16.7037 12.502 16.7037 8.51499C16.7037 4.528 13.4778 1.2959 9.49846 1.2959C5.51911 1.2959 2.29321 4.528 2.29321 8.51499C2.29321 12.502 5.51911 15.7341 9.49846 15.7341Z" fill="#FFDA39"/>
<path d="M9.49854 15.6874C13.4524 15.6874 16.6576 12.476 16.6576 8.51461C16.6576 4.55318 13.4524 1.3418 9.49854 1.3418C5.5447 1.3418 2.33948 4.55318 2.33948 8.51461C2.33948 12.476 5.5447 15.6874 9.49854 15.6874Z" fill="#FFDA3B"/>
<path d="M9.49854 15.6874C13.4524 15.6874 16.6576 12.476 16.6576 8.51461C16.6576 4.55318 13.4524 1.3418 9.49854 1.3418C5.5447 1.3418 2.33948 4.55318 2.33948 8.51461C2.33948 12.476 5.5447 15.6874 9.49854 15.6874Z" fill="#FFDB3C"/>
<path d="M9.49849 15.6413C13.4268 15.6413 16.6114 12.4506 16.6114 8.51472C16.6114 4.57884 13.4268 1.38818 9.49849 1.38818C5.57016 1.38818 2.38562 4.57884 2.38562 8.51472C2.38562 12.4506 5.57016 15.6413 9.49849 15.6413Z" fill="#FFDB3E"/>
<path d="M9.49845 15.5951C13.4013 15.5951 16.5651 12.4252 16.5651 8.51483C16.5651 4.60451 13.4013 1.43457 9.49845 1.43457C5.59562 1.43457 2.43176 4.60451 2.43176 8.51483C2.43176 12.4252 5.59562 15.5951 9.49845 15.5951Z" fill="#FFDB3F"/>
<path d="M9.49853 15.5489C13.3758 15.5489 16.519 12.3997 16.519 8.51494C16.519 4.63018 13.3758 1.48096 9.49853 1.48096C5.62121 1.48096 2.47803 4.63018 2.47803 8.51494C2.47803 12.3997 5.62121 15.5489 9.49853 15.5489Z" fill="#FFDB41"/>
<path d="M9.49853 15.5489C13.3758 15.5489 16.519 12.3997 16.519 8.51494C16.519 4.63018 13.3758 1.48096 9.49853 1.48096C5.62121 1.48096 2.47803 4.63018 2.47803 8.51494C2.47803 12.3997 5.62121 15.5489 9.49853 15.5489Z" fill="#FFDB42"/>
<path d="M9.49848 15.5028C13.3503 15.5028 16.4728 12.3743 16.4728 8.51505C16.4728 4.65585 13.3503 1.52734 9.49848 1.52734C5.64668 1.52734 2.52417 4.65585 2.52417 8.51505C2.52417 12.3743 5.64668 15.5028 9.49848 15.5028Z" fill="#FFDB43"/>
<path d="M9.49844 15.4561C13.3247 15.4561 16.4266 12.3483 16.4266 8.51467C16.4266 4.68103 13.3247 1.57324 9.49844 1.57324C5.67214 1.57324 2.57031 4.68103 2.57031 8.51467C2.57031 12.3483 5.67214 15.4561 9.49844 15.4561Z" fill="#FFDC45"/>
<path d="M9.49851 15.4099C13.2993 15.4099 16.3804 12.3229 16.3804 8.51479C16.3804 4.7067 13.2993 1.61963 9.49851 1.61963C5.69772 1.61963 2.61658 4.7067 2.61658 8.51479C2.61658 12.3229 5.69772 15.4099 9.49851 15.4099Z" fill="#FFDC46"/>
<path d="M9.49851 15.4099C13.2993 15.4099 16.3804 12.3229 16.3804 8.51479C16.3804 4.7067 13.2993 1.61963 9.49851 1.61963C5.69772 1.61963 2.61658 4.7067 2.61658 8.51479C2.61658 12.3229 5.69772 15.4099 9.49851 15.4099Z" fill="#FFDC47"/>
<path d="M9.49847 15.3638C13.2737 15.3638 16.3342 12.2974 16.3342 8.51489C16.3342 4.73236 13.2737 1.66602 9.49847 1.66602C5.72319 1.66602 2.66272 4.73236 2.66272 8.51489C2.66272 12.2974 5.72319 15.3638 9.49847 15.3638Z" fill="#FFDC49"/>
<path d="M9.49855 15.3176C13.2483 15.3176 16.2881 12.272 16.2881 8.51501C16.2881 4.75803 13.2483 1.7124 9.49855 1.7124C5.74878 1.7124 2.70898 4.75803 2.70898 8.51501C2.70898 12.272 5.74878 15.3176 9.49855 15.3176Z" fill="#FFDC4A"/>
<path d="M9.4985 15.271C13.2228 15.271 16.2419 12.246 16.2419 8.51463C16.2419 4.78321 13.2228 1.7583 9.4985 1.7583C5.77424 1.7583 2.75513 4.78321 2.75513 8.51463C2.75513 12.246 5.77424 15.271 9.4985 15.271Z" fill="#FFDC4B"/>
<path d="M9.4985 15.271C13.2228 15.271 16.2419 12.246 16.2419 8.51463C16.2419 4.78321 13.2228 1.7583 9.4985 1.7583C5.77424 1.7583 2.75513 4.78321 2.75513 8.51463C2.75513 12.246 5.77424 15.271 9.4985 15.271Z" fill="#FFDD4C"/>
<path d="M9.49845 15.2248C13.1972 15.2248 16.1956 12.2206 16.1956 8.51474C16.1956 4.80888 13.1972 1.80469 9.49845 1.80469C5.7997 1.80469 2.80127 4.80888 2.80127 8.51474C2.80127 12.2206 5.7997 15.2248 9.49845 15.2248Z" fill="#FFDD4E"/>
<path d="M9.49853 15.1786C13.1718 15.1786 16.1495 12.1952 16.1495 8.51485C16.1495 4.83455 13.1718 1.85107 9.49853 1.85107C5.82529 1.85107 2.84753 4.83455 2.84753 8.51485C2.84753 12.1952 5.82529 15.1786 9.49853 15.1786Z" fill="#FFDD4F"/>
<path d="M9.49849 15.1325C13.1462 15.1325 16.1033 12.1697 16.1033 8.51496C16.1033 4.86022 13.1462 1.89746 9.49849 1.89746C5.85075 1.89746 2.89368 4.86022 2.89368 8.51496C2.89368 12.1697 5.85075 15.1325 9.49849 15.1325Z" fill="#FFDD50"/>
<path d="M9.49849 15.1325C13.1462 15.1325 16.1033 12.1697 16.1033 8.51496C16.1033 4.86022 13.1462 1.89746 9.49849 1.89746C5.85075 1.89746 2.89368 4.86022 2.89368 8.51496C2.89368 12.1697 5.85075 15.1325 9.49849 15.1325Z" fill="#FFDD51"/>
<path d="M9.49844 15.0858C13.1207 15.0858 16.0571 12.1438 16.0571 8.51458C16.0571 4.8854 13.1207 1.94336 9.49844 1.94336C5.87622 1.94336 2.93982 4.8854 2.93982 8.51458C2.93982 12.1438 5.87622 15.0858 9.49844 15.0858Z" fill="#FFDD53"/>
<path d="M9.49852 15.0396C13.0952 15.0396 16.0109 12.1183 16.0109 8.51469C16.0109 4.91107 13.0952 1.98975 9.49852 1.98975C5.9018 1.98975 2.98608 4.91107 2.98608 8.51469C2.98608 12.1183 5.9018 15.0396 9.49852 15.0396Z" fill="#FFDE54"/>
<path d="M9.49848 14.9935C13.0697 14.9935 15.9647 12.0929 15.9647 8.5148C15.9647 4.93673 13.0697 2.03613 9.49848 2.03613C5.92727 2.03613 3.03223 4.93673 3.03223 8.5148C3.03223 12.0929 5.92727 14.9935 9.49848 14.9935Z" fill="#FFDE55"/>
<path d="M9.49848 14.9935C13.0697 14.9935 15.9647 12.0929 15.9647 8.5148C15.9647 4.93673 13.0697 2.03613 9.49848 2.03613C5.92727 2.03613 3.03223 4.93673 3.03223 8.5148C3.03223 12.0929 5.92727 14.9935 9.49848 14.9935Z" fill="#FFDE56"/>
<path d="M9.49843 14.9473C13.0441 14.9473 15.9185 12.0674 15.9185 8.51491C15.9185 4.9624 13.0441 2.08252 9.49843 2.08252C5.95273 2.08252 3.07837 4.9624 3.07837 8.51491C3.07837 12.0674 5.95273 14.9473 9.49843 14.9473Z" fill="#FFDE57"/>
<path d="M9.49851 14.9011C13.0187 14.9011 15.8724 12.042 15.8724 8.51502C15.8724 4.98807 13.0187 2.12891 9.49851 2.12891C5.97831 2.12891 3.12463 4.98807 3.12463 8.51502C3.12463 12.042 5.97831 14.9011 9.49851 14.9011Z" fill="#FFDE58"/>
<path d="M9.49846 14.8545C12.9931 14.8545 15.8261 12.016 15.8261 8.51465C15.8261 5.01325 12.9931 2.1748 9.49846 2.1748C6.00378 2.1748 3.17078 5.01325 3.17078 8.51465C3.17078 12.016 6.00378 14.8545 9.49846 14.8545Z" fill="#FFDF5A"/>
<path d="M9.49846 14.8545C12.9931 14.8545 15.8261 12.016 15.8261 8.51465C15.8261 5.01325 12.9931 2.1748 9.49846 2.1748C6.00378 2.1748 3.17078 5.01325 3.17078 8.51465C3.17078 12.016 6.00378 14.8545 9.49846 14.8545Z" fill="#FFDF5B"/>
<path d="M9.49854 14.8083C12.9677 14.8083 15.78 11.9906 15.78 8.51476C15.78 5.03892 12.9677 2.22119 9.49854 2.22119C6.02937 2.22119 3.21704 5.03892 3.21704 8.51476C3.21704 11.9906 6.02937 14.8083 9.49854 14.8083Z" fill="#FFDF5C"/>
<path d="M9.4985 14.7622C12.9422 14.7622 15.7338 11.9652 15.7338 8.51487C15.7338 5.06459 12.9422 2.26758 9.4985 2.26758C6.05483 2.26758 3.26318 5.06459 3.26318 8.51487C3.26318 11.9652 6.05483 14.7622 9.4985 14.7622Z" fill="#FFDF5D"/>
<path d="M9.49845 14.716C12.9166 14.716 15.6876 11.9397 15.6876 8.51498C15.6876 5.09025 12.9166 2.31396 9.49845 2.31396C6.08029 2.31396 3.30933 5.09025 3.30933 8.51498C3.30933 11.9397 6.08029 14.716 9.49845 14.716Z" fill="#FFDF5E"/>
<path d="M9.49845 14.716C12.9166 14.716 15.6876 11.9397 15.6876 8.51498C15.6876 5.09025 12.9166 2.31396 9.49845 2.31396C6.08029 2.31396 3.30933 5.09025 3.30933 8.51498C3.30933 11.9397 6.08029 14.716 9.49845 14.716Z" fill="#FFDF5F"/>
<path d="M9.49853 14.6693C12.8912 14.6693 15.6415 11.9138 15.6415 8.5146C15.6415 5.11543 12.8912 2.35986 9.49853 2.35986C6.10588 2.35986 3.35559 5.11543 3.35559 8.5146C3.35559 11.9138 6.10588 14.6693 9.49853 14.6693Z" fill="#FFE061"/>
<path d="M9.49848 14.6232C12.8656 14.6232 15.5952 11.8883 15.5952 8.51471C15.5952 5.1411 12.8656 2.40625 9.49848 2.40625C6.13134 2.40625 3.40173 5.1411 3.40173 8.51471C3.40173 11.8883 6.13134 14.6232 9.49848 14.6232Z" fill="#FFE062"/>
<path d="M9.49844 14.577C12.8401 14.577 15.549 11.8629 15.549 8.51482C15.549 5.16677 12.8401 2.45264 9.49844 2.45264C6.15681 2.45264 3.44788 5.16677 3.44788 8.51482C3.44788 11.8629 6.15681 14.577 9.49844 14.577Z" fill="#FFE063"/>
<path d="M9.49844 14.577C12.8401 14.577 15.549 11.8629 15.549 8.51482C15.549 5.16677 12.8401 2.45264 9.49844 2.45264C6.15681 2.45264 3.44788 5.16677 3.44788 8.51482C3.44788 11.8629 6.15681 14.577 9.49844 14.577Z" fill="#FFE064"/>
<path d="M9.49851 14.5308C12.8146 14.5308 15.5029 11.8374 15.5029 8.51493C15.5029 5.19244 12.8146 2.49902 9.49851 2.49902C6.18239 2.49902 3.49414 5.19244 3.49414 8.51493C3.49414 11.8374 6.18239 14.5308 9.49851 14.5308Z" fill="#FFE065"/>
<path d="M9.49847 14.4847C12.7891 14.4847 15.4567 11.812 15.4567 8.51504C15.4567 5.21811 12.7891 2.54541 9.49847 2.54541C6.20785 2.54541 3.54028 5.21811 3.54028 8.51504C3.54028 11.812 6.20785 14.4847 9.49847 14.4847Z" fill="#FFE166"/>
<path d="M9.49854 14.438C12.7637 14.438 15.4105 11.786 15.4105 8.51466C15.4105 5.24329 12.7637 2.59131 9.49854 2.59131C6.23344 2.59131 3.58655 5.24329 3.58655 8.51466C3.58655 11.786 6.23344 14.438 9.49854 14.438Z" fill="#FFE167"/>
<path d="M9.49854 14.438C12.7637 14.438 15.4105 11.786 15.4105 8.51466C15.4105 5.24329 12.7637 2.59131 9.49854 2.59131C6.23344 2.59131 3.58655 5.24329 3.58655 8.51466C3.58655 11.786 6.23344 14.438 9.49854 14.438Z" fill="#FFE168"/>
<path d="M9.4985 14.3919C12.7381 14.3919 15.3643 11.7606 15.3643 8.51478C15.3643 5.26896 12.7381 2.6377 9.4985 2.6377C6.25891 2.6377 3.63269 5.26896 3.63269 8.51478C3.63269 11.7606 6.25891 14.3919 9.4985 14.3919Z" fill="#FFE169"/>
<path d="M9.49846 14.3457C12.7125 14.3457 15.3181 11.7351 15.3181 8.51489C15.3181 5.29462 12.7125 2.68408 9.49846 2.68408C6.28437 2.68408 3.67883 5.29462 3.67883 8.51489C3.67883 11.7351 6.28437 14.3457 9.49846 14.3457Z" fill="#FFE16B"/>
<path d="M9.49853 14.2995C12.6871 14.2995 15.272 11.7097 15.272 8.515C15.272 5.32029 12.6871 2.73047 9.49853 2.73047C6.30995 2.73047 3.7251 5.32029 3.7251 8.515C3.7251 11.7097 6.30995 14.2995 9.49853 14.2995Z" fill="#FFE16C"/>
<path d="M9.49853 14.2995C12.6871 14.2995 15.272 11.7097 15.272 8.515C15.272 5.32029 12.6871 2.73047 9.49853 2.73047C6.30995 2.73047 3.7251 5.32029 3.7251 8.515C3.7251 11.7097 6.30995 14.2995 9.49853 14.2995Z" fill="#FFE26D"/>
<path d="M9.49849 14.2529C12.6616 14.2529 15.2257 11.6838 15.2257 8.51462C15.2257 5.34547 12.6616 2.77637 9.49849 2.77637C6.33542 2.77637 3.77124 5.34547 3.77124 8.51462C3.77124 11.6838 6.33542 14.2529 9.49849 14.2529Z" fill="#FFE26E"/>
<path d="M9.49845 14.2067C12.636 14.2067 15.1795 11.6583 15.1795 8.51473C15.1795 5.37114 12.636 2.82275 9.49845 2.82275C6.36088 2.82275 3.81738 5.37114 3.81738 8.51473C3.81738 11.6583 6.36088 14.2067 9.49845 14.2067Z" fill="#FFE26F"/>
<path d="M9.49852 14.1605C12.6106 14.1605 15.1334 11.6329 15.1334 8.51484C15.1334 5.39681 12.6106 2.86914 9.49852 2.86914C6.38647 2.86914 3.86365 5.39681 3.86365 8.51484C3.86365 11.6329 6.38647 14.1605 9.49852 14.1605Z" fill="#FFE270"/>
<path d="M9.49852 14.1605C12.6106 14.1605 15.1334 11.6329 15.1334 8.51484C15.1334 5.39681 12.6106 2.86914 9.49852 2.86914C6.38647 2.86914 3.86365 5.39681 3.86365 8.51484C3.86365 11.6329 6.38647 14.1605 9.49852 14.1605Z" fill="#FFE271"/>
<path d="M9.49848 14.1144C12.585 14.1144 15.0872 11.6074 15.0872 8.51495C15.0872 5.42247 12.585 2.91553 9.49848 2.91553C6.41193 2.91553 3.90979 5.42247 3.90979 8.51495C3.90979 11.6074 6.41193 14.1144 9.49848 14.1144Z" fill="#FFE372"/>
<path d="M9.49855 14.0682C12.5596 14.0682 15.041 11.582 15.041 8.51506C15.041 5.44814 12.5596 2.96191 9.49855 2.96191C6.43751 2.96191 3.95605 5.44814 3.95605 8.51506C3.95605 11.582 6.43751 14.0682 9.49855 14.0682Z" fill="#FFE373"/>
<path d="M9.49851 14.0215C12.534 14.0215 14.9948 11.556 14.9948 8.51468C14.9948 5.47332 12.534 3.00781 9.49851 3.00781C6.46298 3.00781 4.0022 5.47332 4.0022 8.51468C4.0022 11.556 6.46298 14.0215 9.49851 14.0215Z" fill="#FFE374"/>
<path d="M9.49851 14.0215C12.534 14.0215 14.9948 11.556 14.9948 8.51468C14.9948 5.47332 12.534 3.00781 9.49851 3.00781C6.46298 3.00781 4.0022 5.47332 4.0022 8.51468C4.0022 11.556 6.46298 14.0215 9.49851 14.0215Z" fill="#FFE375"/>
<path d="M9.49846 13.9754C12.5085 13.9754 14.9486 11.5306 14.9486 8.51479C14.9486 5.49899 12.5085 3.0542 9.49846 3.0542C6.48844 3.0542 4.04834 5.49899 4.04834 8.51479C4.04834 11.5306 6.48844 13.9754 9.49846 13.9754Z" fill="#FFE376"/>
<path d="M9.49854 13.9292C12.4831 13.9292 14.9025 11.5051 14.9025 8.5149C14.9025 5.52466 12.4831 3.10059 9.49854 3.10059C6.51403 3.10059 4.0946 5.52466 4.0946 8.5149C4.0946 11.5051 6.51403 13.9292 9.49854 13.9292Z" fill="#FFE377"/>
<path d="M9.49849 13.8831C12.4575 13.8831 14.8562 11.4797 14.8562 8.51501C14.8562 5.55033 12.4575 3.14697 9.49849 3.14697C6.53949 3.14697 4.14075 5.55033 4.14075 8.51501C4.14075 11.4797 6.53949 13.8831 9.49849 13.8831Z" fill="#FFE478"/>
<path d="M9.49849 13.8831C12.4575 13.8831 14.8562 11.4797 14.8562 8.51501C14.8562 5.55033 12.4575 3.14697 9.49849 3.14697C6.53949 3.14697 4.14075 5.55033 4.14075 8.51501C4.14075 11.4797 6.53949 13.8831 9.49849 13.8831Z" fill="#FFE479"/>
<path d="M9.49845 13.8364C12.4319 13.8364 14.81 11.4538 14.81 8.51464C14.81 5.57551 12.4319 3.19287 9.49845 3.19287C6.56496 3.19287 4.18689 5.57551 4.18689 8.51464C4.18689 11.4538 6.56496 13.8364 9.49845 13.8364Z" fill="#FFE47A"/>
<path d="M9.49853 13.7902C12.4065 13.7902 14.7639 11.4283 14.7639 8.51475C14.7639 5.60118 12.4065 3.23926 9.49853 3.23926C6.59054 3.23926 4.23315 5.60118 4.23315 8.51475C4.23315 11.4283 6.59054 13.7902 9.49853 13.7902Z" fill="#FFE47C"/>
<path d="M9.49848 13.7441C12.381 13.7441 14.7177 11.4029 14.7177 8.51486C14.7177 5.62684 12.381 3.28564 9.49848 3.28564C6.61601 3.28564 4.2793 5.62684 4.2793 8.51486C4.2793 11.4029 6.61601 13.7441 9.49848 13.7441Z" fill="#FFE47D"/>
<path d="M9.49848 13.7441C12.381 13.7441 14.7177 11.4029 14.7177 8.51486C14.7177 5.62684 12.381 3.28564 9.49848 3.28564C6.61601 3.28564 4.2793 5.62684 4.2793 8.51486C4.2793 11.4029 6.61601 13.7441 9.49848 13.7441Z" fill="#FFE57E"/>
<path d="M9.49844 13.6979C12.3554 13.6979 14.6714 11.3774 14.6714 8.51497C14.6714 5.65251 12.3554 3.33203 9.49844 3.33203C6.64147 3.33203 4.32544 5.65251 4.32544 8.51497C4.32544 11.3774 6.64147 13.6979 9.49844 13.6979Z" fill="#FFE57F"/>
<path d="M9.49852 13.6512C12.33 13.6512 14.6253 11.3515 14.6253 8.51459C14.6253 5.67769 12.33 3.37793 9.49852 3.37793C6.66706 3.37793 4.3717 5.67769 4.3717 8.51459C4.3717 11.3515 6.66706 13.6512 9.49852 13.6512Z" fill="#FFE580"/>
<path d="M9.49847 13.6051C12.3044 13.6051 14.5791 11.326 14.5791 8.5147C14.5791 5.70336 12.3044 3.42432 9.49847 3.42432C6.69252 3.42432 4.41785 5.70336 4.41785 8.5147C4.41785 11.326 6.69252 13.6051 9.49847 13.6051Z" fill="#FFE581"/>
<path d="M9.49847 13.6051C12.3044 13.6051 14.5791 11.326 14.5791 8.5147C14.5791 5.70336 12.3044 3.42432 9.49847 3.42432C6.69252 3.42432 4.41785 5.70336 4.41785 8.5147C4.41785 11.326 6.69252 13.6051 9.49847 13.6051Z" fill="#FFE582"/>
<path d="M9.49855 13.5589C12.279 13.5589 14.533 11.3006 14.533 8.51481C14.533 5.72903 12.279 3.4707 9.49855 3.4707C6.71811 3.4707 4.46411 5.72903 4.46411 8.51481C4.46411 11.3006 6.71811 13.5589 9.49855 13.5589Z" fill="#FFE583"/>
<path d="M9.4985 13.5128C12.2534 13.5128 14.4867 11.2751 14.4867 8.51492C14.4867 5.7547 12.2534 3.51709 9.4985 3.51709C6.74357 3.51709 4.51025 5.7547 4.51025 8.51492C4.51025 11.2751 6.74357 13.5128 9.4985 13.5128Z" fill="#FFE684"/>
<path d="M9.49846 13.4666C12.2279 13.4666 14.4405 11.2497 14.4405 8.51503C14.4405 5.78036 12.2279 3.56348 9.49846 3.56348C6.76904 3.56348 4.5564 5.78036 4.5564 8.51503C4.5564 11.2497 6.76904 13.4666 9.49846 13.4666Z" fill="#FFE685"/>
<path d="M9.49846 13.4666C12.2279 13.4666 14.4405 11.2497 14.4405 8.51503C14.4405 5.78036 12.2279 3.56348 9.49846 3.56348C6.76904 3.56348 4.5564 5.78036 4.5564 8.51503C4.5564 11.2497 6.76904 13.4666 9.49846 13.4666Z" fill="#FFE686"/>
<path d="M9.49854 13.4199C12.2025 13.4199 14.3944 11.2238 14.3944 8.51466C14.3944 5.80554 12.2025 3.60938 9.49854 3.60938C6.79462 3.60938 4.60266 5.80554 4.60266 8.51466C4.60266 11.2238 6.79462 13.4199 9.49854 13.4199Z" fill="#FFE687"/>
<path d="M9.49849 13.3738C12.1769 13.3738 14.3482 11.1983 14.3482 8.51476C14.3482 5.83121 12.1769 3.65576 9.49849 3.65576C6.82008 3.65576 4.6488 5.83121 4.6488 8.51476C4.6488 11.1983 6.82008 13.3738 9.49849 13.3738Z" fill="#FFE688"/>
<path d="M9.49844 13.3276C12.1513 13.3276 14.3019 11.1729 14.3019 8.51488C14.3019 5.85688 12.1513 3.70215 9.49844 3.70215C6.84555 3.70215 4.69495 5.85688 4.69495 8.51488C4.69495 11.1729 6.84555 13.3276 9.49844 13.3276Z" fill="#FFE789"/>
<path d="M9.49844 13.3276C12.1513 13.3276 14.3019 11.1729 14.3019 8.51488C14.3019 5.85688 12.1513 3.70215 9.49844 3.70215C6.84555 3.70215 4.69495 5.85688 4.69495 8.51488C4.69495 11.1729 6.84555 13.3276 9.49844 13.3276Z" fill="#FFE78A"/>
<path d="M9.49852 13.2814C12.1259 13.2814 14.2558 11.1474 14.2558 8.51499C14.2558 5.88255 12.1259 3.74854 9.49852 3.74854C6.87113 3.74854 4.74121 5.88255 4.74121 8.51499C4.74121 11.1474 6.87113 13.2814 9.49852 13.2814Z" fill="#FFE78B"/>
<path d="M9.49848 13.2348C12.1004 13.2348 14.2096 11.1215 14.2096 8.51461C14.2096 5.90773 12.1004 3.79443 9.49848 3.79443C6.8966 3.79443 4.78735 5.90773 4.78735 8.51461C4.78735 11.1215 6.8966 13.2348 9.49848 13.2348Z" fill="#FFE78C"/>
<path d="M9.49843 13.1886C12.0748 13.1886 14.1634 11.096 14.1634 8.51472C14.1634 5.9334 12.0748 3.84082 9.49843 3.84082C6.92206 3.84082 4.8335 5.9334 4.8335 8.51472C4.8335 11.096 6.92206 13.1886 9.49843 13.1886Z" fill="#FFE78D"/>
<path d="M9.49843 13.1886C12.0748 13.1886 14.1634 11.096 14.1634 8.51472C14.1634 5.9334 12.0748 3.84082 9.49843 3.84082C6.92206 3.84082 4.8335 5.9334 4.8335 8.51472C4.8335 11.096 6.92206 13.1886 9.49843 13.1886Z" fill="#FFE88E"/>
<path d="M9.49851 13.1424C12.0494 13.1424 14.1173 11.0706 14.1173 8.51483C14.1173 5.95906 12.0494 3.88721 9.49851 3.88721C6.94764 3.88721 4.87976 5.95906 4.87976 8.51483C4.87976 11.0706 6.94764 13.1424 9.49851 13.1424Z" fill="#FFE88F"/>
<path d="M9.49846 13.0963C12.0238 13.0963 14.071 11.0451 14.071 8.51494C14.071 5.98473 12.0238 3.93359 9.49846 3.93359C6.97311 3.93359 4.9259 5.98473 4.9259 8.51494C4.9259 11.0451 6.97311 13.0963 9.49846 13.0963Z" fill="#FFE890"/>
<path d="M9.49854 13.0501C11.9984 13.0501 14.0249 11.0197 14.0249 8.51505C14.0249 6.0104 11.9984 3.97998 9.49854 3.97998C6.9987 3.97998 4.97217 6.0104 4.97217 8.51505C4.97217 11.0197 6.9987 13.0501 9.49854 13.0501Z" fill="#FFE891"/>
<path d="M9.49854 13.0501C11.9984 13.0501 14.0249 11.0197 14.0249 8.51505C14.0249 6.0104 11.9984 3.97998 9.49854 3.97998C6.9987 3.97998 4.97217 6.0104 4.97217 8.51505C4.97217 11.0197 6.9987 13.0501 9.49854 13.0501Z" fill="#FFE892"/>
<path d="M9.4985 13.0035C11.9728 13.0035 13.9787 10.9938 13.9787 8.51467C13.9787 6.03558 11.9728 4.02588 9.4985 4.02588C7.02416 4.02588 5.01831 6.03558 5.01831 8.51467C5.01831 10.9938 7.02416 13.0035 9.4985 13.0035Z" fill="#FFE893"/>
<path d="M9.49845 12.9573C11.9473 12.9573 13.9325 10.9683 13.9325 8.51478C13.9325 6.06125 11.9473 4.07227 9.49845 4.07227C7.04962 4.07227 5.06445 6.06125 5.06445 8.51478C5.06445 10.9683 7.04962 12.9573 9.49845 12.9573Z" fill="#FFE994"/>
<path d="M9.49853 12.9111C11.9218 12.9111 13.8863 10.9429 13.8863 8.51489C13.8863 6.08692 11.9218 4.11865 9.49853 4.11865C7.07521 4.11865 5.11072 6.08692 5.11072 8.51489C5.11072 10.9429 7.07521 12.9111 9.49853 12.9111Z" fill="#FFE995"/>
<path d="M9.49853 12.9111C11.9218 12.9111 13.8863 10.9429 13.8863 8.51489C13.8863 6.08692 11.9218 4.11865 9.49853 4.11865C7.07521 4.11865 5.11072 6.08692 5.11072 8.51489C5.11072 10.9429 7.07521 12.9111 9.49853 12.9111Z" fill="#FFE996"/>
<path d="M9.49849 12.865C11.8963 12.865 13.8401 10.9174 13.8401 8.515C13.8401 6.11258 11.8963 4.16504 9.49849 4.16504C7.10067 4.16504 5.15686 6.11258 5.15686 8.515C5.15686 10.9174 7.10067 12.865 9.49849 12.865Z" fill="#FFE997"/>
<path d="M9.49844 12.8183C11.8707 12.8183 13.7939 10.8915 13.7939 8.51463C13.7939 6.13777 11.8707 4.21094 9.49844 4.21094C7.12614 4.21094 5.203 6.13777 5.203 8.51463C5.203 10.8915 7.12614 12.8183 9.49844 12.8183Z" fill="#FFE998"/>
<path d="M9.49852 12.7721C11.8453 12.7721 13.7478 10.866 13.7478 8.51474C13.7478 6.16343 11.8453 4.25732 9.49852 4.25732C7.15172 4.25732 5.24927 6.16343 5.24927 8.51474C5.24927 10.866 7.15172 12.7721 9.49852 12.7721Z" fill="#FFEA98"/>
<path d="M9.49852 12.7721C11.8453 12.7721 13.7478 10.866 13.7478 8.51474C13.7478 6.16343 11.8453 4.25732 9.49852 4.25732C7.15172 4.25732 5.24927 6.16343 5.24927 8.51474C5.24927 10.866 7.15172 12.7721 9.49852 12.7721Z" fill="#FFEA99"/>
<path d="M9.49847 12.726C11.8198 12.726 13.7015 10.8406 13.7015 8.51485C13.7015 6.1891 11.8198 4.30371 9.49847 4.30371C7.17718 4.30371 5.29541 6.1891 5.29541 8.51485C5.29541 10.8406 7.17718 12.726 9.49847 12.726Z" fill="#FFEA9A"/>
<path d="M9.49843 12.6798C11.7942 12.6798 13.6553 10.8151 13.6553 8.51496C13.6553 6.21477 11.7942 4.3501 9.49843 4.3501C7.20265 4.3501 5.34155 6.21477 5.34155 8.51496C5.34155 10.8151 7.20265 12.6798 9.49843 12.6798Z" fill="#FFEA9B"/>
<path d="M9.4985 12.6332C11.7688 12.6332 13.6092 10.7892 13.6092 8.51458C13.6092 6.23995 11.7688 4.396 9.4985 4.396C7.22824 4.396 5.38782 6.23995 5.38782 8.51458C5.38782 10.7892 7.22824 12.6332 9.4985 12.6332Z" fill="#FFEA9C"/>
<path d="M9.4985 12.6332C11.7688 12.6332 13.6092 10.7892 13.6092 8.51458C13.6092 6.23995 11.7688 4.396 9.4985 4.396C7.22824 4.396 5.38782 6.23995 5.38782 8.51458C5.38782 10.7892 7.22824 12.6332 9.4985 12.6332Z" fill="#FFEB9D"/>
<path d="M9.49846 12.587C11.7432 12.587 13.563 10.7638 13.563 8.51469C13.563 6.26562 11.7432 4.44238 9.49846 4.44238C7.2537 4.44238 5.43396 6.26562 5.43396 8.51469C5.43396 10.7638 7.2537 12.587 9.49846 12.587Z" fill="#FFEB9E"/>
<path d="M9.49854 12.5408C11.7178 12.5408 13.5168 10.7383 13.5168 8.5148C13.5168 6.29129 11.7178 4.48877 9.49854 4.48877C7.27928 4.48877 5.48022 6.29129 5.48022 8.5148C5.48022 10.7383 7.27928 12.5408 9.49854 12.5408Z" fill="#FFEB9F"/>
<path d="M9.49849 12.4947C11.6922 12.4947 13.4706 10.7129 13.4706 8.51491C13.4706 6.31695 11.6922 4.53516 9.49849 4.53516C7.30475 4.53516 5.52637 6.31695 5.52637 8.51491C5.52637 10.7129 7.30475 12.4947 9.49849 12.4947Z" fill="#FFEBA0"/>
<path d="M9.49849 12.4947C11.6922 12.4947 13.4706 10.7129 13.4706 8.51491C13.4706 6.31695 11.6922 4.53516 9.49849 4.53516C7.30475 4.53516 5.52637 6.31695 5.52637 8.51491C5.52637 10.7129 7.30475 12.4947 9.49849 12.4947Z" fill="#FFEBA1"/>
<path d="M9.49845 12.4485C11.6667 12.4485 13.4244 10.6874 13.4244 8.51502C13.4244 6.34262 11.6667 4.58154 9.49845 4.58154C7.33021 4.58154 5.57251 6.34262 5.57251 8.51502C5.57251 10.6874 7.33021 12.4485 9.49845 12.4485Z" fill="#FFEBA2"/>
<path d="M9.49852 12.4018C11.6412 12.4018 13.3783 10.6615 13.3783 8.51464C13.3783 6.3678 11.6412 4.62744 9.49852 4.62744C7.3558 4.62744 5.61877 6.3678 5.61877 8.51464C5.61877 10.6615 7.3558 12.4018 9.49852 12.4018Z" fill="#FFECA3"/>
<path d="M9.49848 12.3557C11.6157 12.3557 13.332 10.636 13.332 8.51476C13.332 6.39347 11.6157 4.67383 9.49848 4.67383C7.38126 4.67383 5.66492 6.39347 5.66492 8.51476C5.66492 10.636 7.38126 12.3557 9.49848 12.3557Z" fill="#FFECA4"/>
<path d="M9.49848 12.3557C11.6157 12.3557 13.332 10.636 13.332 8.51476C13.332 6.39347 11.6157 4.67383 9.49848 4.67383C7.38126 4.67383 5.66492 6.39347 5.66492 8.51476C5.66492 10.636 7.38126 12.3557 9.49848 12.3557Z" fill="#FFECA5"/>
<path d="M9.49844 12.3095C11.5901 12.3095 13.2858 10.6106 13.2858 8.51486C13.2858 6.41914 11.5901 4.72021 9.49844 4.72021C7.40673 4.72021 5.71106 6.41914 5.71106 8.51486C5.71106 10.6106 7.40673 12.3095 9.49844 12.3095Z" fill="#FFECA6"/>
<path d="M9.49851 12.2633C11.5647 12.2633 13.2397 10.5851 13.2397 8.51498C13.2397 6.44481 11.5647 4.7666 9.49851 4.7666C7.43231 4.7666 5.75732 6.44481 5.75732 8.51498C5.75732 10.5851 7.43231 12.2633 9.49851 12.2633Z" fill="#FFECA7"/>
<path d="M9.49847 12.2167C11.5392 12.2167 13.1935 10.5592 13.1935 8.5146C13.1935 6.46999 11.5392 4.8125 9.49847 4.8125C7.45777 4.8125 5.80347 6.46999 5.80347 8.5146C5.80347 10.5592 7.45777 12.2167 9.49847 12.2167Z" fill="#FFEDA8"/>
<path d="M9.49847 12.2167C11.5392 12.2167 13.1935 10.5592 13.1935 8.5146C13.1935 6.46999 11.5392 4.8125 9.49847 4.8125C7.45777 4.8125 5.80347 6.46999 5.80347 8.5146C5.80347 10.5592 7.45777 12.2167 9.49847 12.2167Z" fill="#FFEDA9"/>
<path d="M9.49854 12.1705C11.5137 12.1705 13.1474 10.5338 13.1474 8.51471C13.1474 6.49566 11.5137 4.85889 9.49854 4.85889C7.48336 4.85889 5.84973 6.49566 5.84973 8.51471C5.84973 10.5338 7.48336 12.1705 9.49854 12.1705Z" fill="#FFEDA9"/>
<path d="M9.4985 12.1244C11.4882 12.1244 13.1011 10.5083 13.1011 8.51482C13.1011 6.52132 11.4882 4.90527 9.4985 4.90527C7.50882 4.90527 5.89587 6.52132 5.89587 8.51482C5.89587 10.5083 7.50882 12.1244 9.4985 12.1244Z" fill="#FFEDAA"/>
<path d="M9.49845 12.0782C11.4626 12.0782 13.0549 10.4829 13.0549 8.51493C13.0549 6.54699 11.4626 4.95166 9.49845 4.95166C7.53429 4.95166 5.94202 6.54699 5.94202 8.51493C5.94202 10.4829 7.53429 12.0782 9.49845 12.0782Z" fill="#FFEDAB"/>
<path d="M9.49845 12.0782C11.4626 12.0782 13.0549 10.4829 13.0549 8.51493C13.0549 6.54699 11.4626 4.95166 9.49845 4.95166C7.53429 4.95166 5.94202 6.54699 5.94202 8.51493C5.94202 10.4829 7.53429 12.0782 9.49845 12.0782Z" fill="#FFEEAC"/>
<path d="M9.49853 12.032C11.4372 12.032 13.0088 10.4574 13.0088 8.51504C13.0088 6.57266 11.4372 4.99805 9.49853 4.99805C7.55987 4.99805 5.98828 6.57266 5.98828 8.51504C5.98828 10.4574 7.55987 12.032 9.49853 12.032Z" fill="#FFEEAD"/>
<path d="M9.49849 11.9854C11.4116 11.9854 12.9625 10.4315 12.9625 8.51466C12.9625 6.59784 11.4116 5.04395 9.49849 5.04395C7.58534 5.04395 6.03442 6.59784 6.03442 8.51466C6.03442 10.4315 7.58534 11.9854 9.49849 11.9854Z" fill="#FFEEAE"/>
<path d="M9.49844 11.9392C11.3861 11.9392 12.9163 10.406 12.9163 8.51477C12.9163 6.62351 11.3861 5.09033 9.49844 5.09033C7.6108 5.09033 6.08057 6.62351 6.08057 8.51477C6.08057 10.406 7.6108 11.9392 9.49844 11.9392Z" fill="#FFEEAF"/>
<path d="M9.49844 11.9392C11.3861 11.9392 12.9163 10.406 12.9163 8.51477C12.9163 6.62351 11.3861 5.09033 9.49844 5.09033C7.6108 5.09033 6.08057 6.62351 6.08057 8.51477C6.08057 10.406 7.6108 11.9392 9.49844 11.9392Z" fill="#FFEEB0"/>
<path d="M9.49852 11.893C11.3607 11.893 12.8702 10.3806 12.8702 8.51488C12.8702 6.64917 11.3607 5.13672 9.49852 5.13672C7.63639 5.13672 6.12683 6.64917 6.12683 8.51488C6.12683 10.3806 7.63639 11.893 9.49852 11.893Z" fill="#FFEFB1"/>
<path d="M9.49847 11.8469C11.3351 11.8469 12.824 10.3551 12.824 8.51499C12.824 6.67484 11.3351 5.18311 9.49847 5.18311C7.66185 5.18311 6.17297 6.67484 6.17297 8.51499C6.17297 10.3551 7.66185 11.8469 9.49847 11.8469Z" fill="#FFEFB2"/>
<path d="M9.49855 11.8002C11.3097 11.8002 12.7779 10.3292 12.7779 8.51462C12.7779 6.70002 11.3097 5.229 9.49855 5.229C7.68744 5.229 6.21924 6.70002 6.21924 8.51462C6.21924 10.3292 7.68744 11.8002 9.49855 11.8002Z" fill="#FFEFB3"/>
<path d="M9.49855 11.8002C11.3097 11.8002 12.7779 10.3292 12.7779 8.51462C12.7779 6.70002 11.3097 5.229 9.49855 5.229C7.68744 5.229 6.21924 6.70002 6.21924 8.51462C6.21924 10.3292 7.68744 11.8002 9.49855 11.8002Z" fill="#FFEFB4"/>
<path d="M9.4985 11.7541C11.2841 11.7541 12.7316 10.3038 12.7316 8.51473C12.7316 6.72569 11.2841 5.27539 9.4985 5.27539C7.7129 5.27539 6.26538 6.72569 6.26538 8.51473C6.26538 10.3038 7.7129 11.7541 9.4985 11.7541Z" fill="#FFEFB5"/>
<path d="M9.49846 11.7079C11.2586 11.7079 12.6854 10.2783 12.6854 8.51484C12.6854 6.75136 11.2586 5.32178 9.49846 5.32178C7.73837 5.32178 6.31152 6.75136 6.31152 8.51484C6.31152 10.2783 7.73837 11.7079 9.49846 11.7079Z" fill="#FFEFB5"/>
<path d="M9.49854 11.6617C11.2331 11.6617 12.6393 10.2529 12.6393 8.51495C12.6393 6.77703 11.2331 5.36816 9.49854 5.36816C7.76395 5.36816 6.35779 6.77703 6.35779 8.51495C6.35779 10.2529 7.76395 11.6617 9.49854 11.6617Z" fill="#FFF0B6"/>
<path d="M9.49854 11.6617C11.2331 11.6617 12.6393 10.2529 12.6393 8.51495C12.6393 6.77703 11.2331 5.36816 9.49854 5.36816C7.76395 5.36816 6.35779 6.77703 6.35779 8.51495C6.35779 10.2529 7.76395 11.6617 9.49854 11.6617Z" fill="#FFF0B7"/>
<path d="M9.49849 11.6156C11.2076 11.6156 12.5931 10.2274 12.5931 8.51506C12.5931 6.8027 11.2076 5.41455 9.49849 5.41455C7.78941 5.41455 6.40393 6.8027 6.40393 8.51506C6.40393 10.2274 7.78941 11.6156 9.49849 11.6156Z" fill="#FFF0B8"/>
<path d="M9.49845 11.5689C11.182 11.5689 12.5468 10.2015 12.5468 8.51468C12.5468 6.82788 11.182 5.46045 9.49845 5.46045C7.81488 5.46045 6.45007 6.82788 6.45007 8.51468C6.45007 10.2015 7.81488 11.5689 9.49845 11.5689Z" fill="#FFF0B9"/>
<path d="M9.49853 11.5227C11.1566 11.5227 12.5007 10.176 12.5007 8.51479C12.5007 6.85354 11.1566 5.50684 9.49853 5.50684C7.84047 5.50684 6.49634 6.85354 6.49634 8.51479C6.49634 10.176 7.84047 11.5227 9.49853 11.5227Z" fill="#FFF0BA"/>
<path d="M9.49853 11.5227C11.1566 11.5227 12.5007 10.176 12.5007 8.51479C12.5007 6.85354 11.1566 5.50684 9.49853 5.50684C7.84047 5.50684 6.49634 6.85354 6.49634 8.51479C6.49634 10.176 7.84047 11.5227 9.49853 11.5227Z" fill="#FFF1BB"/>
<path d="M9.49848 11.4766C11.131 11.4766 12.4545 10.1506 12.4545 8.5149C12.4545 6.87921 11.131 5.55322 9.49848 5.55322C7.86593 5.55322 6.54248 6.87921 6.54248 8.5149C6.54248 10.1506 7.86593 11.4766 9.49848 11.4766Z" fill="#FFF1BC"/>
<path d="M9.49844 11.4304C11.1055 11.4304 12.4082 10.1251 12.4082 8.51501C12.4082 6.90488 11.1055 5.59961 9.49844 5.59961C7.89139 5.59961 6.58862 6.90488 6.58862 8.51501C6.58862 10.1251 7.89139 11.4304 9.49844 11.4304Z" fill="#FFF1BD"/>
<path d="M9.49851 11.3838C11.08 11.3838 12.3621 10.0992 12.3621 8.51463C12.3621 6.93006 11.08 5.64551 9.49851 5.64551C7.91698 5.64551 6.63489 6.93006 6.63489 8.51463C6.63489 10.0992 7.91698 11.3838 9.49851 11.3838Z" fill="#FFF1BE"/>
<path d="M9.49851 11.3838C11.08 11.3838 12.3621 10.0992 12.3621 8.51463C12.3621 6.93006 11.08 5.64551 9.49851 5.64551C7.91698 5.64551 6.63489 6.93006 6.63489 8.51463C6.63489 10.0992 7.91698 11.3838 9.49851 11.3838Z" fill="#FFF1BE"/>
<path d="M9.49847 11.3376C11.0545 11.3376 12.3159 10.0738 12.3159 8.51474C12.3159 6.95573 11.0545 5.69189 9.49847 5.69189C7.94244 5.69189 6.68103 6.95573 6.68103 8.51474C6.68103 10.0738 7.94244 11.3376 9.49847 11.3376Z" fill="#FFF2BF"/>
<path d="M9.49855 11.2914C11.0291 11.2914 12.2698 10.0483 12.2698 8.51486C12.2698 6.9814 11.0291 5.73828 9.49855 5.73828C7.96803 5.73828 6.72729 6.9814 6.72729 8.51486C6.72729 10.0483 7.96803 11.2914 9.49855 11.2914Z" fill="#FFF2C0"/>
<path d="M9.4985 11.2453C11.0035 11.2453 12.2236 10.0229 12.2236 8.51497C12.2236 7.00706 11.0035 5.78467 9.4985 5.78467C7.99349 5.78467 6.77344 7.00706 6.77344 8.51497C6.77344 10.0229 7.99349 11.2453 9.4985 11.2453Z" fill="#FFF2C1"/>
<path d="M9.4985 11.2453C11.0035 11.2453 12.2236 10.0229 12.2236 8.51497C12.2236 7.00706 11.0035 5.78467 9.4985 5.78467C7.99349 5.78467 6.77344 7.00706 6.77344 8.51497C6.77344 10.0229 7.99349 11.2453 9.4985 11.2453Z" fill="#FFF2C2"/>
<path d="M9.49845 11.1986C10.978 11.1986 12.1773 9.99693 12.1773 8.51459C12.1773 7.03225 10.978 5.83057 9.49845 5.83057C8.01895 5.83057 6.81958 7.03225 6.81958 8.51459C6.81958 9.99693 8.01895 11.1986 9.49845 11.1986Z" fill="#FFF2C3"/>
<path d="M9.49853 11.1524C10.9525 11.1524 12.1312 9.97148 12.1312 8.5147C12.1312 7.05791 10.9525 5.87695 9.49853 5.87695C8.04454 5.87695 6.86584 7.05791 6.86584 8.5147C6.86584 9.97148 8.04454 11.1524 9.49853 11.1524Z" fill="#FFF2C4"/>
<path d="M9.49849 11.1063C10.927 11.1063 12.085 9.94604 12.085 8.51481C12.085 7.08358 10.927 5.92334 9.49849 5.92334C8.07 5.92334 6.91199 7.08358 6.91199 8.51481C6.91199 9.94604 8.07 11.1063 9.49849 11.1063Z" fill="#FFF3C5"/>
<path d="M9.49849 11.1063C10.927 11.1063 12.085 9.94604 12.085 8.51481C12.085 7.08358 10.927 5.92334 9.49849 5.92334C8.07 5.92334 6.91199 7.08358 6.91199 8.51481C6.91199 9.94604 8.07 11.1063 9.49849 11.1063Z" fill="#FFF3C5"/>
<path d="M9.49844 11.0601C10.9014 11.0601 12.0388 9.92059 12.0388 8.51492C12.0388 7.10925 10.9014 5.96973 9.49844 5.96973C8.09547 5.96973 6.95813 7.10925 6.95813 8.51492C6.95813 9.92059 8.09547 11.0601 9.49844 11.0601Z" fill="#FFF3C6"/>
<path d="M9.49852 11.0139C10.876 11.0139 11.9926 9.89514 11.9926 8.51503C11.9926 7.13492 10.876 6.01611 9.49852 6.01611C8.12105 6.01611 7.00439 7.13492 7.00439 8.51503C7.00439 9.89514 8.12105 11.0139 9.49852 11.0139Z" fill="#FFF3C7"/>
<path d="M9.49847 10.9673C10.8504 10.9673 11.9464 9.86921 11.9464 8.51465C11.9464 7.1601 10.8504 6.06201 9.49847 6.06201C8.14651 6.06201 7.05054 7.1601 7.05054 8.51465C7.05054 9.86921 8.14651 10.9673 9.49847 10.9673Z" fill="#FFF3C8"/>
<path d="M9.49847 10.9673C10.8504 10.9673 11.9464 9.86921 11.9464 8.51465C11.9464 7.1601 10.8504 6.06201 9.49847 6.06201C8.14651 6.06201 7.05054 7.1601 7.05054 8.51465C7.05054 9.86921 8.14651 10.9673 9.49847 10.9673Z" fill="#FFF4C9"/>
<path d="M9.49843 10.9211C10.8249 10.9211 11.9002 9.84376 11.9002 8.51476C11.9002 7.18577 10.8249 6.1084 9.49843 6.1084C8.17198 6.1084 7.09668 7.18577 7.09668 8.51476C7.09668 9.84376 8.17198 10.9211 9.49843 10.9211Z" fill="#FFF4CA"/>
<path d="M9.49851 10.875C10.7994 10.875 11.8541 9.81831 11.8541 8.51487C11.8541 7.21143 10.7994 6.15479 9.49851 6.15479C8.19757 6.15479 7.14294 7.21143 7.14294 8.51487C7.14294 9.81831 8.19757 10.875 9.49851 10.875Z" fill="#FFF4CB"/>
<path d="M9.49846 10.8288C10.7739 10.8288 11.8078 9.79286 11.8078 8.51498C11.8078 7.2371 10.7739 6.20117 9.49846 6.20117C8.22303 6.20117 7.18909 7.2371 7.18909 8.51498C7.18909 9.79286 8.22303 10.8288 9.49846 10.8288Z" fill="#FFF4CB"/>
<path d="M9.49846 10.8288C10.7739 10.8288 11.8078 9.79286 11.8078 8.51498C11.8078 7.2371 10.7739 6.20117 9.49846 6.20117C8.22303 6.20117 7.18909 7.2371 7.18909 8.51498C7.18909 9.79286 8.22303 10.8288 9.49846 10.8288Z" fill="#FFF4CC"/>
<path d="M9.49854 10.7821C10.7485 10.7821 11.7617 9.76693 11.7617 8.51461C11.7617 7.26228 10.7485 6.24707 9.49854 6.24707C8.24861 6.24707 7.23535 7.26228 7.23535 8.51461C7.23535 9.76693 8.24861 10.7821 9.49854 10.7821Z" fill="#FFF5CD"/>
<path d="M9.4985 10.736C10.7229 10.736 11.7155 9.74148 11.7155 8.51472C11.7155 7.28795 10.7229 6.29346 9.4985 6.29346C8.27408 6.29346 7.28149 7.28795 7.28149 8.51472C7.28149 9.74148 8.27408 10.736 9.4985 10.736Z" fill="#FFF5CE"/>
<path d="M9.49845 10.6898C10.6974 10.6898 11.6693 9.71604 11.6693 8.51483C11.6693 7.31362 10.6974 6.33984 9.49845 6.33984C8.29954 6.33984 7.32764 7.31362 7.32764 8.51483C7.32764 9.71604 8.29954 10.6898 9.49845 10.6898Z" fill="#FFF5CF"/>
<path d="M9.49845 10.6898C10.6974 10.6898 11.6693 9.71604 11.6693 8.51483C11.6693 7.31362 10.6974 6.33984 9.49845 6.33984C8.29954 6.33984 7.32764 7.31362 7.32764 8.51483C7.32764 9.71604 8.29954 10.6898 9.49845 10.6898Z" fill="#FFF5D0"/>
<path d="M9.49853 10.6436C10.6719 10.6436 11.6232 9.69059 11.6232 8.51494C11.6232 7.33928 10.6719 6.38623 9.49853 6.38623C8.32513 6.38623 7.3739 7.33928 7.3739 8.51494C7.3739 9.69059 8.32513 10.6436 9.49853 10.6436Z" fill="#FFF5D1"/>
<path d="M9.49848 10.5975C10.6464 10.5975 11.5769 9.66514 11.5769 8.51505C11.5769 7.36495 10.6464 6.43262 9.49848 6.43262C8.35059 6.43262 7.42004 7.36495 7.42004 8.51505C7.42004 9.66514 8.35059 10.5975 9.49848 10.5975Z" fill="#FFF6D1"/>
<path d="M9.49844 10.5508C10.6208 10.5508 11.5307 9.63921 11.5307 8.51467C11.5307 7.39013 10.6208 6.47852 9.49844 6.47852C8.37606 6.47852 7.46619 7.39013 7.46619 8.51467C7.46619 9.63921 8.37606 10.5508 9.49844 10.5508Z" fill="#FFF6D2"/>
<path d="M9.49844 10.5508C10.6208 10.5508 11.5307 9.63921 11.5307 8.51467C11.5307 7.39013 10.6208 6.47852 9.49844 6.47852C8.37606 6.47852 7.46619 7.39013 7.46619 8.51467C7.46619 9.63921 8.37606 10.5508 9.49844 10.5508Z" fill="#FFF6D3"/>
<path d="M9.49851 10.5047C10.5954 10.5047 11.4846 9.61376 11.4846 8.51478C11.4846 7.4158 10.5954 6.5249 9.49851 6.5249C8.40164 6.5249 7.51245 7.4158 7.51245 8.51478C7.51245 9.61376 8.40164 10.5047 9.49851 10.5047Z" fill="#FFF6D4"/>
<path d="M9.49847 10.4585C10.5698 10.4585 11.4383 9.58831 11.4383 8.51489C11.4383 7.44147 10.5698 6.57129 9.49847 6.57129C8.42711 6.57129 7.55859 7.44147 7.55859 8.51489C7.55859 9.58831 8.42711 10.4585 9.49847 10.4585Z" fill="#FFF6D5"/>
<path d="M9.49854 10.4123C10.5444 10.4123 11.3922 9.56287 11.3922 8.515C11.3922 7.46714 10.5444 6.61768 9.49854 6.61768C8.45269 6.61768 7.60486 7.46714 7.60486 8.515C7.60486 9.56287 8.45269 10.4123 9.49854 10.4123Z" fill="#FFF6D6"/>
<path d="M9.49854 10.4123C10.5444 10.4123 11.3922 9.56287 11.3922 8.515C11.3922 7.46714 10.5444 6.61768 9.49854 6.61768C8.45269 6.61768 7.60486 7.46714 7.60486 8.515C7.60486 9.56287 8.45269 10.4123 9.49854 10.4123Z" fill="#FFF7D6"/>
<path d="M9.4985 10.3657C10.5188 10.3657 11.346 9.53693 11.346 8.51462C11.346 7.49232 10.5188 6.66357 9.4985 6.66357C8.47816 6.66357 7.651 7.49232 7.651 8.51462C7.651 9.53693 8.47816 10.3657 9.4985 10.3657Z" fill="#FFF7D7"/>
<path d="M9.49846 10.3195C10.4933 10.3195 11.2998 9.51148 11.2998 8.51473C11.2998 7.51799 10.4933 6.70996 9.49846 6.70996C8.50362 6.70996 7.69714 7.51799 7.69714 8.51473C7.69714 9.51148 8.50362 10.3195 9.49846 10.3195Z" fill="#FFF7D8"/>
<path d="M9.49853 10.2733C10.4679 10.2733 11.2537 9.48603 11.2537 8.51484C11.2537 7.54365 10.4679 6.75635 9.49853 6.75635C8.5292 6.75635 7.74341 7.54365 7.74341 8.51484C7.74341 9.48603 8.5292 10.2733 9.49853 10.2733Z" fill="#FFF7D9"/>
<path d="M9.49853 10.2733C10.4679 10.2733 11.2537 9.48603 11.2537 8.51484C11.2537 7.54365 10.4679 6.75635 9.49853 6.75635C8.5292 6.75635 7.74341 7.54365 7.74341 8.51484C7.74341 9.48603 8.5292 10.2733 9.49853 10.2733Z" fill="#FFF7DA"/>
<path d="M9.49849 10.2272C10.4423 10.2272 11.2074 9.46059 11.2074 8.51496C11.2074 7.56932 10.4423 6.80273 9.49849 6.80273C8.55467 6.80273 7.78955 7.56932 7.78955 8.51496C7.78955 9.46059 8.55467 10.2272 9.49849 10.2272Z" fill="#FFF8DB"/>
<path d="M9.49845 10.1805C10.4168 10.1805 11.1612 9.43465 11.1612 8.51458C11.1612 7.5945 10.4168 6.84863 9.49845 6.84863C8.58013 6.84863 7.83569 7.5945 7.83569 8.51458C7.83569 9.43465 8.58013 10.1805 9.49845 10.1805Z" fill="#FFF8DB"/>
<path d="M9.49852 10.1344C10.3913 10.1344 11.1151 9.40921 11.1151 8.51469C11.1151 7.62017 10.3913 6.89502 9.49852 6.89502C8.60572 6.89502 7.88196 7.62017 7.88196 8.51469C7.88196 9.40921 8.60572 10.1344 9.49852 10.1344Z" fill="#FFF8DC"/>
<path d="M9.49852 10.1344C10.3913 10.1344 11.1151 9.40921 11.1151 8.51469C11.1151 7.62017 10.3913 6.89502 9.49852 6.89502C8.60572 6.89502 7.88196 7.62017 7.88196 8.51469C7.88196 9.40921 8.60572 10.1344 9.49852 10.1344Z" fill="#FFF8DD"/>
<path d="M9.49848 10.0882C10.3658 10.0882 11.0689 9.38376 11.0689 8.5148C11.0689 7.64584 10.3658 6.94141 9.49848 6.94141C8.63118 6.94141 7.9281 7.64584 7.9281 8.5148C7.9281 9.38376 8.63118 10.0882 9.49848 10.0882Z" fill="#FFF8DE"/>
<path d="M9.49855 10.042C10.3403 10.042 11.0227 9.35831 11.0227 8.51491C11.0227 7.67151 10.3403 6.98779 9.49855 6.98779C8.65677 6.98779 7.97437 7.67151 7.97437 8.51491C7.97437 9.35831 8.65677 10.042 9.49855 10.042Z" fill="#FFF8DF"/>
<path d="M9.49851 9.99586C10.3148 9.99586 10.9765 9.33286 10.9765 8.51502C10.9765 7.69717 10.3148 7.03418 9.49851 7.03418C8.68223 7.03418 8.02051 7.69717 8.02051 8.51502C8.02051 9.33286 8.68223 9.99586 9.49851 9.99586Z" fill="#FFF9E0"/>
<path d="M9.49851 9.99586C10.3148 9.99586 10.9765 9.33286 10.9765 8.51502C10.9765 7.69717 10.3148 7.03418 9.49851 7.03418C8.68223 7.03418 8.02051 7.69717 8.02051 8.51502C8.02051 9.33286 8.68223 9.99586 9.49851 9.99586Z" fill="#FFF9E0"/>
<path d="M9.49846 9.9492C10.2892 9.9492 10.9303 9.30693 10.9303 8.51464C10.9303 7.72236 10.2892 7.08008 9.49846 7.08008C8.7077 7.08008 8.06665 7.72236 8.06665 8.51464C8.06665 9.30693 8.7077 9.9492 9.49846 9.9492Z" fill="#FFF9E1"/>
<path d="M9.49854 9.90304C10.2638 9.90304 10.8842 9.28148 10.8842 8.51475C10.8842 7.74802 10.2638 7.12646 9.49854 7.12646C8.73328 7.12646 8.11292 7.74802 8.11292 8.51475C8.11292 9.28148 8.73328 9.90304 9.49854 9.90304Z" fill="#FFF9E2"/>
<path d="M9.49849 9.85687C10.2382 9.85687 10.8379 9.25604 10.8379 8.51486C10.8379 7.77369 10.2382 7.17285 9.49849 7.17285C8.75874 7.17285 8.15906 7.77369 8.15906 8.51486C8.15906 9.25604 8.75874 9.85687 9.49849 9.85687Z" fill="#FFF9E3"/>
<path d="M9.49849 9.85687C10.2382 9.85687 10.8379 9.25604 10.8379 8.51486C10.8379 7.77369 10.2382 7.17285 9.49849 7.17285C8.75874 7.17285 8.15906 7.77369 8.15906 8.51486C8.15906 9.25604 8.75874 9.85687 9.49849 9.85687Z" fill="#FFFAE4"/>
<path d="M9.49845 9.81071C10.2127 9.81071 10.7917 9.23059 10.7917 8.51497C10.7917 7.79936 10.2127 7.21924 9.49845 7.21924C8.78421 7.21924 8.2052 7.79936 8.2052 8.51497C8.2052 9.23059 8.78421 9.81071 9.49845 9.81071Z" fill="#FFFAE4"/>
<path d="M9.49853 9.76405C10.1873 9.76405 10.7456 9.20465 10.7456 8.5146C10.7456 7.82454 10.1873 7.26514 9.49853 7.26514C8.8098 7.26514 8.25146 7.82454 8.25146 8.5146C8.25146 9.20465 8.8098 9.76405 9.49853 9.76405Z" fill="#FFFAE5"/>
<path d="M9.49848 9.71789C10.1617 9.71789 10.6994 9.1792 10.6994 8.51471C10.6994 7.85021 10.1617 7.31152 9.49848 7.31152C8.83526 7.31152 8.29761 7.85021 8.29761 8.51471C8.29761 9.1792 8.83526 9.71789 9.49848 9.71789Z" fill="#FFFAE6"/>
<path d="M9.49848 9.71789C10.1617 9.71789 10.6994 9.1792 10.6994 8.51471C10.6994 7.85021 10.1617 7.31152 9.49848 7.31152C8.83526 7.31152 8.29761 7.85021 8.29761 8.51471C8.29761 9.1792 8.83526 9.71789 9.49848 9.71789Z" fill="#FFFAE7"/>
<path d="M9.49844 9.67172C10.1362 9.67172 10.6531 9.15376 10.6531 8.51482C10.6531 7.87587 10.1362 7.35791 9.49844 7.35791C8.86072 7.35791 8.34375 7.87587 8.34375 8.51482C8.34375 9.15376 8.86072 9.67172 9.49844 9.67172Z" fill="#FFFAE8"/>
<path d="M9.49851 9.62556C10.1107 9.62556 10.607 9.12831 10.607 8.51493C10.607 7.90154 10.1107 7.4043 9.49851 7.4043C8.88631 7.4043 8.39001 7.90154 8.39001 8.51493C8.39001 9.12831 8.88631 9.62556 9.49851 9.62556Z" fill="#FFFBE8"/>
<path d="M9.49847 9.57939C10.0852 9.57939 10.5608 9.10286 10.5608 8.51504C10.5608 7.92721 10.0852 7.45068 9.49847 7.45068C8.91177 7.45068 8.43616 7.92721 8.43616 8.51504C8.43616 9.10286 8.91177 9.57939 9.49847 9.57939Z" fill="#FFFBE9"/>
<path d="M9.49847 9.57939C10.0852 9.57939 10.5608 9.10286 10.5608 8.51504C10.5608 7.92721 10.0852 7.45068 9.49847 7.45068C8.91177 7.45068 8.43616 7.92721 8.43616 8.51504C8.43616 9.10286 8.91177 9.57939 9.49847 9.57939Z" fill="#FFFBEA"/>
<path d="M9.49855 9.53274C10.0597 9.53274 10.5147 9.07693 10.5147 8.51466C10.5147 7.95239 10.0597 7.49658 9.49855 7.49658C8.93736 7.49658 8.48242 7.95239 8.48242 8.51466C8.48242 9.07693 8.93736 9.53274 9.49855 9.53274Z" fill="#FFFBEB"/>
<path d="M9.4985 9.48657C10.0342 9.48657 10.4684 9.05148 10.4684 8.51477C10.4684 7.97806 10.0342 7.54297 9.4985 7.54297C8.96282 7.54297 8.52856 7.97806 8.52856 8.51477C8.52856 9.05148 8.96282 9.48657 9.4985 9.48657Z" fill="#FFFBEC"/>
<path d="M9.49846 9.4404C10.0086 9.4404 10.4222 9.02603 10.4222 8.51488C10.4222 8.00373 10.0086 7.58936 9.49846 7.58936C8.98828 7.58936 8.57471 8.00373 8.57471 8.51488C8.57471 9.02603 8.98828 9.4404 9.49846 9.4404Z" fill="#FFFBEC"/>
<path d="M9.49846 9.4404C10.0086 9.4404 10.4222 9.02603 10.4222 8.51488C10.4222 8.00373 10.0086 7.58936 9.49846 7.58936C8.98828 7.58936 8.57471 8.00373 8.57471 8.51488C8.57471 9.02603 8.98828 9.4404 9.49846 9.4404Z" fill="#FFFCED"/>
<path d="M9.49854 9.39424C9.9832 9.39424 10.3761 9.00059 10.3761 8.51499C10.3761 8.0294 9.9832 7.63574 9.49854 7.63574C9.01387 7.63574 8.62097 8.0294 8.62097 8.51499C8.62097 9.00059 9.01387 9.39424 9.49854 9.39424Z" fill="#FFFCEE"/>
<path d="M9.49849 9.34758C9.95765 9.34758 10.3299 8.97465 10.3299 8.51461C10.3299 8.05458 9.95765 7.68164 9.49849 7.68164C9.03933 7.68164 8.66711 8.05458 8.66711 8.51461C8.66711 8.97465 9.03933 9.34758 9.49849 9.34758Z" fill="#FFFCEF"/>
<path d="M9.49844 9.30142C9.93209 9.30142 10.2836 8.9492 10.2836 8.51472C10.2836 8.08024 9.93209 7.72803 9.49844 7.72803C9.0648 7.72803 8.71326 8.08024 8.71326 8.51472C8.71326 8.9492 9.0648 9.30142 9.49844 9.30142Z" fill="#FFFCF0"/>
<path d="M9.49844 9.30142C9.93209 9.30142 10.2836 8.9492 10.2836 8.51472C10.2836 8.08024 9.93209 7.72803 9.49844 7.72803C9.0648 7.72803 8.71326 8.08024 8.71326 8.51472C8.71326 8.9492 9.0648 9.30142 9.49844 9.30142Z" fill="#FFFCF0"/>
<path d="M9.49852 9.25525C9.90666 9.25525 10.2375 8.92376 10.2375 8.51483C10.2375 8.10591 9.90666 7.77441 9.49852 7.77441C9.09038 7.77441 8.75952 8.10591 8.75952 8.51483C8.75952 8.92376 9.09038 9.25525 9.49852 9.25525Z" fill="#FFFCF1"/>
<path d="M9.49848 9.20909C9.88111 9.20909 10.1913 8.89831 10.1913 8.51494C10.1913 8.13158 9.88111 7.8208 9.49848 7.8208C9.11585 7.8208 8.80566 8.13158 8.80566 8.51494C8.80566 8.89831 9.11585 9.20909 9.49848 9.20909Z" fill="#FFFDF2"/>
<path d="M9.49843 9.16292C9.85555 9.16292 10.1451 8.87286 10.1451 8.51506C10.1451 8.15725 9.85555 7.86719 9.49843 7.86719C9.14131 7.86719 8.85181 8.15725 8.85181 8.51506C8.85181 8.87286 9.14131 9.16292 9.49843 9.16292Z" fill="#FFFDF3"/>
<path d="M9.49843 9.16292C9.85555 9.16292 10.1451 8.87286 10.1451 8.51506C10.1451 8.15725 9.85555 7.86719 9.49843 7.86719C9.14131 7.86719 8.85181 8.15725 8.85181 8.51506C8.85181 8.87286 9.14131 9.16292 9.49843 9.16292Z" fill="#FFFDF3"/>
<path d="M9.49851 9.11627C9.83012 9.11627 10.0989 8.84693 10.0989 8.51468C10.0989 8.18243 9.83012 7.91309 9.49851 7.91309C9.1669 7.91309 8.89807 8.18243 8.89807 8.51468C8.89807 8.84693 9.1669 9.11627 9.49851 9.11627Z" fill="#FFFDF4"/>
<path d="M9.49846 9.0701C9.80457 9.0701 10.0527 8.82148 10.0527 8.51479C10.0527 8.2081 9.80457 7.95947 9.49846 7.95947C9.19236 7.95947 8.94421 8.2081 8.94421 8.51479C8.94421 8.82148 9.19236 9.0701 9.49846 9.0701Z" fill="#FFFDF5"/>
<path d="M9.49854 9.02394C9.77914 9.02394 10.0066 8.79603 10.0066 8.5149C10.0066 8.23376 9.77914 8.00586 9.49854 8.00586C9.21795 8.00586 8.99048 8.23376 8.99048 8.5149C8.99048 8.79603 9.21795 9.02394 9.49854 9.02394Z" fill="#FFFDF6"/>
<path d="M9.49854 9.02394C9.77914 9.02394 10.0066 8.79603 10.0066 8.5149C10.0066 8.23376 9.77914 8.00586 9.49854 8.00586C9.21795 8.00586 8.99048 8.23376 8.99048 8.5149C8.99048 8.79603 9.21795 9.02394 9.49854 9.02394Z" fill="#FFFEF6"/>
<path d="M9.4985 8.97777C9.75358 8.97777 9.96037 8.77059 9.96037 8.51501C9.96037 8.25943 9.75358 8.05225 9.4985 8.05225C9.24341 8.05225 9.03662 8.25943 9.03662 8.51501C9.03662 8.77059 9.24341 8.97777 9.4985 8.97777Z" fill="#FFFEF7"/>
<path d="M9.49845 8.93112C9.72803 8.93112 9.91414 8.74465 9.91414 8.51463C9.91414 8.28461 9.72803 8.09814 9.49845 8.09814C9.26887 8.09814 9.08276 8.28461 9.08276 8.51463C9.08276 8.74465 9.26887 8.93112 9.49845 8.93112Z" fill="#FFFEF8"/>
<path d="M9.49853 8.88495C9.7026 8.88495 9.86803 8.7192 9.86803 8.51474C9.86803 8.31028 9.7026 8.14453 9.49853 8.14453C9.29446 8.14453 9.12903 8.31028 9.12903 8.51474C9.12903 8.7192 9.29446 8.88495 9.49853 8.88495Z" fill="#FFFEF9"/>
<path d="M9.49853 8.88495C9.7026 8.88495 9.86803 8.7192 9.86803 8.51474C9.86803 8.31028 9.7026 8.14453 9.49853 8.14453C9.29446 8.14453 9.12903 8.31028 9.12903 8.51474C9.12903 8.7192 9.29446 8.88495 9.49853 8.88495Z" fill="#FFFEF9"/>
<path d="M9.49849 8.83878C9.67705 8.83878 9.8218 8.69376 9.8218 8.51485C9.8218 8.33595 9.67705 8.19092 9.49849 8.19092C9.31993 8.19092 9.17517 8.33595 9.17517 8.51485C9.17517 8.69376 9.31993 8.83878 9.49849 8.83878Z" fill="#FFFEFA"/>
<path d="M9.49844 8.79262C9.65149 8.79262 9.77556 8.66831 9.77556 8.51496C9.77556 8.36162 9.65149 8.2373 9.49844 8.2373C9.34539 8.2373 9.22131 8.36162 9.22131 8.51496C9.22131 8.66831 9.34539 8.79262 9.49844 8.79262Z" fill="#FFFEFB"/>
<path d="M9.49852 8.74596C9.62606 8.74596 9.72945 8.64237 9.72945 8.51459C9.72945 8.3868 9.62606 8.2832 9.49852 8.2832C9.37097 8.2832 9.26758 8.3868 9.26758 8.51459C9.26758 8.64237 9.37097 8.74596 9.49852 8.74596Z" fill="#FFFEFC"/>
<path d="M9.49852 8.74596C9.62606 8.74596 9.72945 8.64237 9.72945 8.51459C9.72945 8.3868 9.62606 8.2832 9.49852 8.2832C9.37097 8.2832 9.26758 8.3868 9.26758 8.51459C9.26758 8.64237 9.37097 8.74596 9.49852 8.74596Z" fill="#FFFFFC"/>
<path d="M9.49847 8.6998C9.60051 8.6998 9.68322 8.61693 9.68322 8.5147C9.68322 8.41247 9.60051 8.32959 9.49847 8.32959C9.39644 8.32959 9.31372 8.41247 9.31372 8.5147C9.31372 8.61693 9.39644 8.6998 9.49847 8.6998Z" fill="#FFFFFD"/>
<path d="M9.49855 8.65363C9.57507 8.65363 9.63711 8.59148 9.63711 8.51481C9.63711 8.43813 9.57507 8.37598 9.49855 8.37598C9.42202 8.37598 9.35999 8.43813 9.35999 8.51481C9.35999 8.59148 9.42202 8.65363 9.49855 8.65363Z" fill="#FFFFFE"/>
<path d="M9.49851 8.60747C9.54952 8.60747 9.59088 8.56603 9.59088 8.51492C9.59088 8.4638 9.54952 8.42236 9.49851 8.42236C9.44749 8.42236 9.40613 8.4638 9.40613 8.51492C9.40613 8.56603 9.44749 8.60747 9.49851 8.60747Z" fill="#FFFFFE"/>
<path d="M9.49851 8.60747C9.54952 8.60747 9.59088 8.56603 9.59088 8.51492C9.59088 8.4638 9.54952 8.42236 9.49851 8.42236C9.44749 8.42236 9.40613 8.4638 9.40613 8.51492C9.40613 8.56603 9.44749 8.60747 9.49851 8.60747Z" fill="white"/>
</g>
</g>
<path d="M9.19131 18.4179C4.11068 18.4179 0 14.2994 0 9.20897C0 4.11858 4.11068 0 9.19131 0C14.2719 0 18.3826 4.11858 18.3826 9.20897C18.3826 14.2994 14.2719 18.4179 9.19131 18.4179ZM9.19131 1.43456C4.89587 1.43456 1.38562 4.95155 1.38562 9.25524C1.38562 13.5589 4.89587 17.0759 9.19131 17.0759C13.4867 17.0759 16.997 13.5589 16.997 9.25524C16.997 4.95155 13.4867 1.43456 9.19131 1.43456Z" fill="#BA8A2D"/>
</svg>
